M48
INCH,LZ
T01C.004
T02C.008
T03C.028
;LEADER: 12 
;HEADER: 
;CODE  : ASCII 
;FILE  : X4_test-1127-1-4.drl for board G:/Work/SZENCTECH/2019/201911/X4SIP02/pcb/cam/#Taaabgt19108.tmp ... layers TOP and BOTTOM
;T02 Holesize 1. = 8.000000 Tolerance = +0.000000/-0.000000 PLATED MILS Quantity = 135
;T03 Holesize 2. = 28.000000 Tolerance = +0.000000/-0.000000 PLATED MILS Quantity = 14
%
G90
T02
X0003Y0005
X0005Y000912
X0005Y001212
X000295Y002
X00075Y0021
X00075Y00265
X000295Y00275
X0005Y00355
X0005Y00385
X00028Y00442
X00125Y0044
X0015Y004
X001Y00385
X001Y00355
X0015Y003
X00175Y00265
X00125Y00265
X00175Y0021
X00125Y0021
X001Y001212
X0015Y001
X001Y000912
X001Y0005
X002Y0005
X0025Y001
X002Y0015
X00225Y0021
X00275Y0021
X00225Y00265
X00275Y00265
X0025Y003
X002Y0035
X0025Y004
X00225Y0044
X00325Y0044
X0035Y004
X003Y0035
X0035Y003
X003935Y0028
X00325Y00265
X00325Y0021
X003935Y001739
X003Y0015
X0035Y001
X003Y0005
X004Y0005
X00483Y00125
X004Y0015
X00476Y00298
X00475Y00324
X0047Y00375
X00425Y0039
X00425Y0044
X00585Y0044
X00585Y00405
X00504Y00375
X00586Y00355
X00505Y00336
X00587Y0031
X00507Y00305
X005697Y002797
X0054Y0028
X00508Y002506
X005822Y002358
X00582Y00218
X00508Y002034
X00569Y00139
X00548Y00139
X00515Y0013
X00601Y00135
X0069Y00165
X0067Y00175
X006733Y002034
X006733Y002506
X00631Y00276
X006Y0028
X00662Y00282
X006953Y00309
X006497Y0031
X00762Y00443
X00765Y0039
X00765Y0035
X007356Y002946
X007878Y0028
X007356Y001846
X007878Y001739
X00715Y00164
X00711Y00123
X008499Y000286
X008Y0005
X0085Y001
X008Y0015
X0085Y0021
X0085Y00265
X00825Y00295
X0085Y0035
X008Y004
X00862Y00443
X00962Y00443
X009Y004
X0095Y0035
X009Y003
X0095Y00265
X009Y00265
X0095Y0021
X009Y0021
X009Y0015
X0095Y001
X009Y0005
X009499Y000286
X010499Y000286
X01Y0005
X01081Y000874
X01081Y001174
X01Y0015
X01Y0021
X0105Y0021
X01Y00265
X0105Y00265
X01Y003
X01081Y003512
X01081Y003812
X01Y004
X01062Y00443
X01153Y00444
X01131Y003812
X01131Y003512
X0115Y00275
X011Y00265
X011Y0021
X0115Y002
X01131Y001174
X01131Y000874
X011Y0005
X01153Y00028
T03
X004406Y00043
X004906Y00043
X004406Y00093
X004906Y00093
X005406Y00043
X005906Y00043
X005406Y00093
X005906Y00093
X006406Y00043
X006906Y00043
X006406Y00093
X006906Y00093
X007406Y00093
X007406Y00043
M30
