%FSLAX25Y25*%
%MOIN*%
G70*
G01*
G75*
%ADD10C,0.00394*%
%ADD11C,0.00197*%
%ADD12C,0.00787*%
%ADD13C,0.01575*%
%ADD14C,0.00591*%
%ADD15C,0.01000*%
%ADD16C,0.00500*%
%ADD17C,0.00667*%
D10*
X66012Y49530D02*
X67900D01*
Y53470D01*
X66012D02*
X67900D01*
X66012Y49530D02*
Y53470D01*
X72612Y93768D02*
Y95656D01*
X68672D02*
X72612D01*
X68672Y93768D02*
Y95656D01*
Y93768D02*
X72612D01*
X113812Y49330D02*
Y53270D01*
X115700D01*
Y49330D02*
Y53270D01*
X113812Y49330D02*
X115700D01*
X98188Y61830D02*
Y65770D01*
X96300Y61830D02*
X98188D01*
X96300D02*
Y65770D01*
X98188D01*
X82430Y53100D02*
Y54988D01*
Y53100D02*
X86370D01*
Y54988D01*
X82430D02*
X86370D01*
X93052Y57761D02*
Y67604D01*
X80454Y57761D02*
Y67604D01*
X68428Y83388D02*
X81338D01*
Y73061D02*
Y83388D01*
X68428Y73061D02*
X81338D01*
X68428D02*
Y83388D01*
X72602Y87863D02*
Y89751D01*
X68662D02*
X72602D01*
X68662Y87863D02*
Y89751D01*
Y87863D02*
X72602D01*
X76537Y89640D02*
X80477D01*
Y87752D02*
Y89640D01*
X76537Y87752D02*
X80477D01*
X76537D02*
Y89640D01*
Y95545D02*
X80477D01*
Y93657D02*
Y95545D01*
X76537Y93657D02*
X80477D01*
X76537D02*
Y95545D01*
X68850Y99125D02*
X75150D01*
X68850D02*
Y102275D01*
X75150D01*
Y99125D02*
Y102275D01*
X66113Y51500D02*
X67687D01*
X66900Y50713D02*
Y51500D01*
Y52287D01*
X70642Y93869D02*
Y95444D01*
Y94657D02*
X71430D01*
X69855D02*
X70642D01*
X114700Y51300D02*
Y52087D01*
Y50513D02*
Y51300D01*
X113913D02*
X115487D01*
X97300Y63013D02*
Y63800D01*
Y64587D01*
X96513Y63800D02*
X98087D01*
X84400Y53313D02*
Y54887D01*
X83613Y54100D02*
X84400D01*
X85187D01*
X77304Y55202D02*
Y70163D01*
Y55202D02*
X96202D01*
Y70163D01*
X77304D02*
X96202D01*
X86753Y61502D02*
Y63864D01*
X85572Y62683D02*
X87934D01*
X66615Y71140D02*
X83151D01*
Y85313D01*
X66615D02*
X83151D01*
X66615Y71140D02*
Y85313D01*
X70632Y87964D02*
Y89539D01*
Y88751D02*
X71420D01*
X69845D02*
X70632D01*
X78506D02*
X79294D01*
X77719D02*
X78506D01*
Y87964D02*
Y89539D01*
Y94657D02*
X79294D01*
X77719D02*
X78506D01*
Y93869D02*
Y95444D01*
X67796Y72518D02*
Y83935D01*
Y72518D02*
X81969D01*
Y83935D01*
X67796D02*
X81969D01*
D11*
X80011Y79802D02*
X80798D01*
X80405Y79408D02*
Y80195D01*
X68970Y79802D02*
X69757D01*
X69381Y79408D02*
Y80195D01*
X74292Y78225D02*
X75474D01*
X74883Y77634D02*
Y78815D01*
D12*
X71213Y100700D02*
X72787D01*
X72000Y99913D02*
Y101487D01*
X66882Y98338D02*
X77118D01*
X66882D02*
Y103062D01*
X77118D01*
Y98338D02*
Y103062D01*
D13*
X80304Y54809D02*
G03*
X80304Y54809I-440J0D01*
G01*
D14*
X65325Y55000D02*
X68475D01*
X65325Y48000D02*
Y55000D01*
Y48000D02*
X68475D01*
Y55000D01*
X67142Y93082D02*
Y96232D01*
Y93082D02*
X74142D01*
Y96232D01*
X67142D02*
X74142D01*
X116275Y47800D02*
Y54800D01*
X113125Y47800D02*
X116275D01*
X113125D02*
Y54800D01*
X116275D01*
X95725Y60300D02*
Y67300D01*
X98875D01*
Y60300D02*
Y67300D01*
X95725Y60300D02*
X98875D01*
X87900Y52525D02*
Y55675D01*
X80900D02*
X87900D01*
X80900Y52525D02*
Y55675D01*
Y52525D02*
X87900D01*
X67132Y87176D02*
Y90326D01*
Y87176D02*
X74132D01*
Y90326D01*
X67132D02*
X74132D01*
X75006Y87176D02*
X82006D01*
X75006D02*
Y90326D01*
X82006D01*
Y87176D02*
Y90326D01*
X75006Y93082D02*
X82006D01*
X75006D02*
Y96232D01*
X82006D01*
Y93082D02*
Y96232D01*
D15*
X65828Y83345D02*
G03*
X65828Y83345I-394J0D01*
G01*
D16*
X117598Y40200D02*
X121142D01*
X119370Y38428D02*
Y41972D01*
X107598Y40200D02*
X111142D01*
X109370Y38428D02*
Y41972D01*
X97598Y40200D02*
X101142D01*
X99370Y38428D02*
Y41972D01*
X87598Y40200D02*
X91142D01*
X89370Y38428D02*
Y41972D01*
X77598Y40200D02*
X81142D01*
X79370Y38428D02*
Y41972D01*
X67598Y40200D02*
X71142D01*
X69370Y38428D02*
Y41972D01*
X57598Y40200D02*
X61142D01*
X59370Y38428D02*
Y41972D01*
X47598Y40200D02*
X51142D01*
X49370Y38428D02*
Y41972D01*
X37598Y40200D02*
X41142D01*
X39370Y38428D02*
Y41972D01*
X117598Y30200D02*
X121142D01*
X119370Y28428D02*
Y31972D01*
X107598Y30200D02*
X111142D01*
X109370Y28428D02*
Y31972D01*
X97598Y30200D02*
X101142D01*
X99370Y28428D02*
Y31972D01*
X87598Y30200D02*
X91142D01*
X89370Y28428D02*
Y31972D01*
X77598Y30200D02*
X81142D01*
X79370Y28428D02*
Y31972D01*
X67598Y30200D02*
X71142D01*
X69370Y28428D02*
Y31972D01*
X57598Y30200D02*
X61142D01*
X59370Y28428D02*
Y31972D01*
X47598Y30200D02*
X51142D01*
X49370Y28428D02*
Y31972D01*
X37598Y30200D02*
X41142D01*
X39370Y28428D02*
Y31972D01*
X35039Y145669D02*
X43701D01*
X39370Y141339D02*
Y150000D01*
X35039Y11811D02*
X43701D01*
X39370Y7480D02*
Y16142D01*
X113779Y11811D02*
X122441D01*
X118110Y7480D02*
Y16142D01*
X113779Y145669D02*
X122441D01*
X118110Y141339D02*
Y150000D01*
X74800Y85500D02*
X76000D01*
X75400Y84900D02*
Y86100D01*
X75600Y97400D02*
X76800D01*
X76200Y96800D02*
Y98000D01*
X73400Y97300D02*
X74600D01*
X74000Y96700D02*
Y97900D01*
X75000Y91800D02*
X76200D01*
X75600Y91200D02*
Y92400D01*
X72400Y91800D02*
X73600D01*
X73000Y91200D02*
Y92400D01*
X71931Y85500D02*
X73131D01*
X72531Y84900D02*
Y86100D01*
X82800Y76100D02*
X84000D01*
X83400Y75500D02*
Y76700D01*
X65400Y76300D02*
X66600D01*
X66000Y75700D02*
Y76900D01*
X81700Y84059D02*
X82900D01*
X82300Y83459D02*
Y84659D01*
X78230Y84530D02*
X79430D01*
X78830Y83930D02*
Y85130D01*
X72690Y79491D02*
X73891D01*
X73290Y78891D02*
Y80090D01*
X72131Y77148D02*
X72931D01*
X72531Y76748D02*
Y77548D01*
X66345Y84600D02*
X67545D01*
X66945Y84000D02*
Y85200D01*
X114100Y56200D02*
X115300D01*
X114700Y55600D02*
Y56800D01*
X99632Y61831D02*
X100831D01*
X100232Y61231D02*
Y62432D01*
X90484Y55484D02*
X91684D01*
X91084Y54884D02*
Y56084D01*
X85769Y51432D02*
X86968D01*
X86369Y50832D02*
Y52031D01*
X76855Y75573D02*
X77655D01*
X77255Y75173D02*
Y75973D01*
X78430Y75573D02*
X79230D01*
X78830Y75173D02*
Y75973D01*
X78430Y77148D02*
X79230D01*
X78830Y76748D02*
Y77548D01*
X76855Y77148D02*
X77655D01*
X77255Y76748D02*
Y77548D01*
X76855Y79014D02*
X77655D01*
X77255Y78614D02*
Y79414D01*
X75280Y77148D02*
X76080D01*
X75680Y76748D02*
Y77548D01*
X75280Y75573D02*
X76080D01*
X75680Y75173D02*
Y75973D01*
X73706Y75573D02*
X74506D01*
X74106Y75173D02*
Y75973D01*
X72131Y75573D02*
X72931D01*
X72531Y75173D02*
Y75973D01*
X70556Y75573D02*
X71356D01*
X70956Y75173D02*
Y75973D01*
X4200Y136100D02*
X5400D01*
X4800Y135500D02*
Y136700D01*
X10300Y136100D02*
X11500D01*
X10900Y135500D02*
Y136700D01*
X14600Y135900D02*
X15800D01*
X15200Y135300D02*
Y136500D01*
X20400Y134900D02*
X21600D01*
X21000Y134300D02*
Y135500D01*
X22500Y131600D02*
X23700D01*
X23100Y131000D02*
Y132200D01*
X22900Y125400D02*
X24100D01*
X23500Y124800D02*
Y126000D01*
X22800Y122000D02*
X24000D01*
X23400Y121400D02*
Y122600D01*
X22700Y116000D02*
X23900D01*
X23300Y115400D02*
Y116600D01*
X25900Y110600D02*
X27100D01*
X26500Y110000D02*
Y111200D01*
X28700Y105400D02*
X29900D01*
X29300Y104800D02*
Y106000D01*
X30200Y97700D02*
X31400D01*
X30800Y97100D02*
Y98300D01*
X29100Y93800D02*
X30300D01*
X29700Y93200D02*
Y94400D01*
X27700Y89100D02*
X28900D01*
X28300Y88500D02*
Y89700D01*
X31600Y85700D02*
X32800D01*
X32200Y85100D02*
Y86300D01*
X37300Y85300D02*
X38500D01*
X37900Y84700D02*
Y85900D01*
X41900Y85300D02*
X43100D01*
X42500Y84700D02*
Y85900D01*
X48400Y85100D02*
X49600D01*
X49000Y84500D02*
Y85700D01*
X53900Y85100D02*
X55100D01*
X54500Y84500D02*
Y85700D01*
X61400Y85000D02*
X62600D01*
X62000Y84400D02*
Y85600D01*
X63100Y90900D02*
X64300D01*
X63700Y90300D02*
Y91500D01*
X51500Y93100D02*
X52700D01*
X52100Y92500D02*
Y93700D01*
X45900Y93100D02*
X47100D01*
X46500Y92500D02*
Y93700D01*
X36000Y93500D02*
X37200D01*
X36600Y92900D02*
Y94100D01*
X35100Y125200D02*
X36300D01*
X35700Y124600D02*
Y125800D01*
X34900Y120200D02*
X36100D01*
X35500Y119600D02*
Y120800D01*
X35900Y112700D02*
X37100D01*
X36500Y112100D02*
Y113300D01*
X42200Y106100D02*
X43400D01*
X42800Y105500D02*
Y106700D01*
X57600Y105100D02*
X58800D01*
X58200Y104500D02*
Y105700D01*
X35800Y104300D02*
X37000D01*
X36400Y103700D02*
Y104900D01*
X52300Y100700D02*
X53500D01*
X52900Y100100D02*
Y101300D01*
X49500Y116100D02*
X50700D01*
X50100Y115500D02*
Y116700D01*
X41400Y123400D02*
X42600D01*
X42000Y122800D02*
Y124000D01*
X43400Y113800D02*
X44600D01*
X44000Y113200D02*
Y114400D01*
X65200Y134100D02*
X66400D01*
X65800Y133500D02*
Y134700D01*
X48800Y131400D02*
X50000D01*
X49400Y130800D02*
Y132000D01*
X61400Y122300D02*
X62600D01*
X62000Y121700D02*
Y122900D01*
X80100Y116200D02*
X81300D01*
X80700Y115600D02*
Y116800D01*
X65200Y114000D02*
X66400D01*
X65800Y113400D02*
Y114600D01*
X54500Y150100D02*
X55700D01*
X55100Y149500D02*
Y150700D01*
X55800Y139900D02*
X57000D01*
X56400Y139300D02*
Y140500D01*
X87100Y140000D02*
X88300D01*
X87700Y139400D02*
Y140600D01*
X69800Y148900D02*
X71000D01*
X70400Y148300D02*
Y149500D01*
X79700Y135500D02*
X80900D01*
X80300Y134900D02*
Y136100D01*
X77800Y129500D02*
X79000D01*
X78400Y128900D02*
Y130100D01*
X102300Y121900D02*
X103500D01*
X102900Y121300D02*
Y122500D01*
X101200Y115000D02*
X102400D01*
X101800Y114400D02*
Y115600D01*
X90700Y103000D02*
X91900D01*
X91300Y102400D02*
Y103600D01*
X85700Y86200D02*
X86900D01*
X86300Y85600D02*
Y86800D01*
X84300Y89300D02*
X85500D01*
X84900Y88700D02*
Y89900D01*
X85600Y94700D02*
X86800D01*
X86200Y94100D02*
Y95300D01*
X64200Y95700D02*
X65400D01*
X64800Y95100D02*
Y96300D01*
X64100Y101200D02*
X65300D01*
X64700Y100600D02*
Y101800D01*
X67200Y105900D02*
X68400D01*
X67800Y105300D02*
Y106500D01*
X72200Y108000D02*
X73400D01*
X72800Y107400D02*
Y108600D01*
X78500Y108000D02*
X79700D01*
X79100Y107400D02*
Y108600D01*
X83800Y104100D02*
X85000D01*
X84400Y103500D02*
Y104700D01*
X83200Y99000D02*
X84400D01*
X83800Y98400D02*
Y99600D01*
X88200Y110400D02*
X89400D01*
X88800Y109800D02*
Y111000D01*
X92000Y85700D02*
X93200D01*
X92600Y85100D02*
Y86300D01*
X104300Y85600D02*
X105500D01*
X104900Y85000D02*
Y86200D01*
X118600Y85600D02*
X119800D01*
X119200Y85000D02*
Y86200D01*
X97900Y85900D02*
X99100D01*
X98500Y85300D02*
Y86500D01*
X124500Y85700D02*
X125700D01*
X125100Y85100D02*
Y86300D01*
X127700Y90200D02*
X128900D01*
X128300Y89600D02*
Y90800D01*
X126300Y96900D02*
X127500D01*
X126900Y96300D02*
Y97500D01*
Y105200D02*
X128100D01*
X127500Y104600D02*
Y105800D01*
X130400Y113500D02*
X131600D01*
X131000Y112900D02*
Y114100D01*
X133000Y120600D02*
X134200D01*
X133600Y120000D02*
Y121200D01*
X149400Y142200D02*
X150600D01*
X150000Y141600D02*
Y142800D01*
X142000Y149600D02*
X143200D01*
X142600Y149000D02*
Y150200D01*
X135000Y148200D02*
X136200D01*
X135600Y147600D02*
Y148800D01*
X133200Y139900D02*
X134400D01*
X133800Y139300D02*
Y140500D01*
X142700Y140200D02*
X143900D01*
X143300Y139600D02*
Y140800D01*
X150200Y151400D02*
X151400D01*
X150800Y150800D02*
Y152000D01*
X123400Y126200D02*
X124600D01*
X124000Y125600D02*
Y126800D01*
X113500Y115000D02*
X114700D01*
X114100Y114400D02*
Y115600D01*
X108800Y105700D02*
X110000D01*
X109400Y105100D02*
Y106300D01*
X98700Y100100D02*
X99900D01*
X99300Y99500D02*
Y100700D01*
X114700Y98300D02*
X115900D01*
X115300Y97700D02*
Y98900D01*
X107100Y95600D02*
X108300D01*
X107700Y95000D02*
Y96200D01*
X95400Y94200D02*
X96600D01*
X96000Y93600D02*
Y94800D01*
X93700Y128100D02*
X94900D01*
X94300Y127500D02*
Y128700D01*
X90000Y122100D02*
X91200D01*
X90600Y121500D02*
Y122700D01*
X108200Y131800D02*
X109400D01*
X108800Y131200D02*
Y132400D01*
X98800Y143700D02*
X100000D01*
X99400Y143100D02*
Y144300D01*
X88900Y151500D02*
X90100D01*
X89500Y150900D02*
Y152100D01*
X79200Y148800D02*
X80400D01*
X79800Y148200D02*
Y149400D01*
X71400Y122200D02*
X72600D01*
X72000Y121600D02*
Y122800D01*
X56400Y130100D02*
X57600D01*
X57000Y129500D02*
Y130700D01*
X55600Y114600D02*
X56800D01*
X56200Y114000D02*
Y115200D01*
X99700Y133700D02*
X100900D01*
X100300Y133100D02*
Y134300D01*
X131100Y131400D02*
X132300D01*
X131700Y130800D02*
Y132000D01*
X115100Y125700D02*
X116300D01*
X115700Y125100D02*
Y126300D01*
X126400Y118300D02*
X127600D01*
X127000Y117700D02*
Y118900D01*
X119100Y105600D02*
X120300D01*
X119700Y105000D02*
Y106200D01*
X4600Y90800D02*
X5800D01*
X5200Y90200D02*
Y91400D01*
X14800Y90500D02*
X16000D01*
X15400Y89900D02*
Y91100D01*
X11100Y84300D02*
X12300D01*
X11700Y83700D02*
Y84900D01*
X10600Y89400D02*
X11800D01*
X11200Y88800D02*
Y90000D01*
X4900Y78900D02*
X6100D01*
X5500Y78300D02*
Y79500D01*
X5100Y84000D02*
X6300D01*
X5700Y83400D02*
Y84600D01*
X17700Y79200D02*
X18900D01*
X18300Y78600D02*
Y79800D01*
X11300Y76700D02*
X12500D01*
X11900Y76100D02*
Y77300D01*
X4500Y72300D02*
X5700D01*
X5100Y71700D02*
Y72900D01*
X5900Y67000D02*
X7100D01*
X6500Y66400D02*
Y67600D01*
X12500Y65000D02*
X13700D01*
X13100Y64400D02*
Y65600D01*
X10900Y70300D02*
X12100D01*
X11500Y69700D02*
Y70900D01*
X17800Y73100D02*
X19000D01*
X18400Y72500D02*
Y73700D01*
X17700Y66400D02*
X18900D01*
X18300Y65800D02*
Y67000D01*
X5100Y19400D02*
X6300D01*
X5700Y18800D02*
Y20000D01*
X5300Y12200D02*
X6500D01*
X5900Y11600D02*
Y12800D01*
X4900Y6000D02*
X6100D01*
X5500Y5400D02*
Y6600D01*
X11300Y5900D02*
X12500D01*
X11900Y5300D02*
Y6500D01*
X11800Y12000D02*
X13000D01*
X12400Y11400D02*
Y12600D01*
X11600Y19900D02*
X12800D01*
X12200Y19300D02*
Y20500D01*
X18900Y19200D02*
X20100D01*
X19500Y18600D02*
Y19800D01*
X19100Y12700D02*
X20300D01*
X19700Y12100D02*
Y13300D01*
X18400Y6300D02*
X19600D01*
X19000Y5700D02*
Y6900D01*
X25400Y6000D02*
X26600D01*
X26000Y5400D02*
Y6600D01*
X25400Y12900D02*
X26600D01*
X26000Y12300D02*
Y13500D01*
Y19500D02*
X27200D01*
X26600Y18900D02*
Y20100D01*
X23900Y27200D02*
X25100D01*
X24500Y26600D02*
Y27800D01*
X23900Y34000D02*
X25100D01*
X24500Y33400D02*
Y34600D01*
X23500Y41400D02*
X24700D01*
X24100Y40800D02*
Y42000D01*
X27000Y47300D02*
X28200D01*
X27600Y46700D02*
Y47900D01*
X59700Y73900D02*
X60900D01*
X60300Y73300D02*
Y74500D01*
X53500Y74100D02*
X54700D01*
X54100Y73500D02*
Y74700D01*
X48400Y73900D02*
X49600D01*
X49000Y73300D02*
Y74500D01*
X42500Y73900D02*
X43700D01*
X43100Y73300D02*
Y74500D01*
X35700Y73800D02*
X36900D01*
X36300Y73200D02*
Y74400D01*
X30000Y73800D02*
X31200D01*
X30600Y73200D02*
Y74400D01*
X27700Y69900D02*
X28900D01*
X28300Y69300D02*
Y70500D01*
X28200Y63400D02*
X29400D01*
X28800Y62800D02*
Y64000D01*
X28200Y58200D02*
X29400D01*
X28800Y57600D02*
Y58800D01*
X28300Y52100D02*
X29500D01*
X28900Y51500D02*
Y52700D01*
X35000Y66300D02*
X36200D01*
X35600Y65700D02*
Y66900D01*
X34700Y60400D02*
X35900D01*
X35300Y59800D02*
Y61000D01*
X35100Y55000D02*
X36300D01*
X35700Y54400D02*
Y55600D01*
X36300Y48900D02*
X37500D01*
X36900Y48300D02*
Y49500D01*
X42600Y49100D02*
X43800D01*
X43200Y48500D02*
Y49700D01*
X41500Y55800D02*
X42700D01*
X42100Y55200D02*
Y56400D01*
X45100Y65100D02*
X46300D01*
X45700Y64500D02*
Y65700D01*
X50700Y69000D02*
X51900D01*
X51300Y68400D02*
Y69600D01*
X50100Y61200D02*
X51300D01*
X50700Y60600D02*
Y61800D01*
X47300Y54100D02*
X48500D01*
X47900Y53500D02*
Y54700D01*
X55200Y61500D02*
X56400D01*
X55800Y60900D02*
Y62100D01*
X57600Y68800D02*
X58800D01*
X58200Y68200D02*
Y69400D01*
X40300Y61600D02*
X41500D01*
X40900Y61000D02*
Y62200D01*
X41100Y68200D02*
X42300D01*
X41700Y67600D02*
Y68800D01*
X52000Y56100D02*
X53200D01*
X52600Y55500D02*
Y56700D01*
X59500Y63600D02*
X60700D01*
X60100Y63000D02*
Y64200D01*
X48900Y48500D02*
X50100D01*
X49500Y47900D02*
Y49100D01*
X110800Y85800D02*
X112000D01*
X111400Y85200D02*
Y86400D01*
X86900Y75000D02*
X88100D01*
X87500Y74400D02*
Y75600D01*
X91900Y75100D02*
X93100D01*
X92500Y74500D02*
Y75700D01*
X96000Y74800D02*
X97200D01*
X96600Y74200D02*
Y75400D01*
X103500Y74500D02*
X104700D01*
X104100Y73900D02*
Y75100D01*
X110600Y74300D02*
X111800D01*
X111200Y73700D02*
Y74900D01*
X117100Y74000D02*
X118300D01*
X117700Y73400D02*
Y74600D01*
X123900Y73800D02*
X125100D01*
X124500Y73200D02*
Y74400D01*
X129100Y71400D02*
X130300D01*
X129700Y70800D02*
Y72000D01*
X128400Y64500D02*
X129600D01*
X129000Y63900D02*
Y65100D01*
Y58700D02*
X130200D01*
X129600Y58100D02*
Y59300D01*
X128600Y53500D02*
X129800D01*
X129200Y52900D02*
Y54100D01*
X130000Y49300D02*
X131200D01*
X130600Y48700D02*
Y49900D01*
X134000Y43700D02*
X135200D01*
X134600Y43100D02*
Y44300D01*
X134000Y37300D02*
X135200D01*
X134600Y36700D02*
Y37900D01*
X132200Y31700D02*
X133400D01*
X132800Y31100D02*
Y32300D01*
X127100Y28400D02*
X128300D01*
X127700Y27800D02*
Y29000D01*
X124800Y36100D02*
X126000D01*
X125400Y35500D02*
Y36700D01*
X129000Y41300D02*
X130200D01*
X129600Y40700D02*
Y41900D01*
X121700Y47900D02*
X122900D01*
X122300Y47300D02*
Y48500D01*
X119200Y55100D02*
X120400D01*
X119800Y54500D02*
Y55700D01*
X120100Y63300D02*
X121300D01*
X120700Y62700D02*
Y63900D01*
X114500Y66800D02*
X115700D01*
X115100Y66200D02*
Y67400D01*
X105500Y67000D02*
X106700D01*
X106100Y66400D02*
Y67600D01*
X96500Y57000D02*
X97700D01*
X97100Y56400D02*
Y57600D01*
X94000Y53300D02*
X95200D01*
X94600Y52700D02*
Y53900D01*
X98700Y50700D02*
X99900D01*
X99300Y50100D02*
Y51300D01*
X107100Y49900D02*
X108300D01*
X107700Y49300D02*
Y50500D01*
X103200Y55000D02*
X104400D01*
X103800Y54400D02*
Y55600D01*
X112300Y62300D02*
X113500D01*
X112900Y61700D02*
Y62900D01*
X116100Y60500D02*
X117300D01*
X116700Y59900D02*
Y61100D01*
X120800Y66400D02*
X122000D01*
X121400Y65800D02*
Y67000D01*
X123500Y57400D02*
X124700D01*
X124100Y56800D02*
Y58000D01*
X123900Y53300D02*
X125100D01*
X124500Y52700D02*
Y53900D01*
X123200Y42600D02*
X124400D01*
X123800Y42000D02*
Y43200D01*
X120900Y34700D02*
X122100D01*
X121500Y34100D02*
Y35300D01*
X127900Y21100D02*
X129100D01*
X128500Y20500D02*
Y21700D01*
X134500Y24300D02*
X135700D01*
X135100Y23700D02*
Y24900D01*
X149900Y19600D02*
X151100D01*
X150500Y19000D02*
Y20200D01*
X144200Y20000D02*
X145400D01*
X144800Y19400D02*
Y20600D01*
X54900Y19800D02*
X56100D01*
X55500Y19200D02*
Y20400D01*
X54400Y11800D02*
X55600D01*
X55000Y11200D02*
Y12400D01*
X53800Y5300D02*
X55000D01*
X54400Y4700D02*
Y5900D01*
X66000Y5300D02*
X67200D01*
X66600Y4700D02*
Y5900D01*
X64800Y13000D02*
X66000D01*
X65400Y12400D02*
Y13600D01*
X65600Y20400D02*
X66800D01*
X66200Y19800D02*
Y21000D01*
X74700Y20000D02*
X75900D01*
X75300Y19400D02*
Y20600D01*
X74100Y11800D02*
X75300D01*
X74700Y11200D02*
Y12400D01*
X78200Y5600D02*
X79400D01*
X78800Y5000D02*
Y6200D01*
X89700Y5400D02*
X90900D01*
X90300Y4800D02*
Y6000D01*
X84600Y13300D02*
X85800D01*
X85200Y12700D02*
Y13900D01*
X84100Y20700D02*
X85300D01*
X84700Y20100D02*
Y21300D01*
X93400Y20300D02*
X94600D01*
X94000Y19700D02*
Y20900D01*
X93100Y14400D02*
X94300D01*
X93700Y13800D02*
Y15000D01*
X99100Y4900D02*
X100300D01*
X99700Y4300D02*
Y5500D01*
X105800Y4600D02*
X107000D01*
X106400Y4000D02*
Y5200D01*
X103500Y11600D02*
X104700D01*
X104100Y11000D02*
Y12200D01*
X106700Y20700D02*
X107900D01*
X107300Y20100D02*
Y21300D01*
X99800Y19800D02*
X101000D01*
X100400Y19200D02*
Y20400D01*
X48100Y22400D02*
X49300D01*
X48700Y21800D02*
Y23000D01*
X50500Y17200D02*
X51700D01*
X51100Y16600D02*
Y17800D01*
X48900Y5100D02*
X50100D01*
X49500Y4500D02*
Y5700D01*
X71900Y4600D02*
X73100D01*
X72500Y4000D02*
Y5200D01*
X79400Y12200D02*
X80600D01*
X80000Y11600D02*
Y12800D01*
X105800Y61600D02*
X107000D01*
X106400Y61000D02*
Y62200D01*
X91000Y72000D02*
X92200D01*
X91600Y71400D02*
Y72600D01*
X90200Y52300D02*
X91400D01*
X90800Y51700D02*
Y52900D01*
X77000Y62100D02*
X78200D01*
X77600Y61500D02*
Y62700D01*
X77100Y54200D02*
X78300D01*
X77700Y53600D02*
Y54800D01*
X60700Y149300D02*
X61900D01*
X61300Y148700D02*
Y149900D01*
X62500Y143500D02*
X63700D01*
X63100Y142900D02*
Y144100D01*
X68800Y140100D02*
X70000D01*
X69400Y139500D02*
Y140700D01*
X97200Y150300D02*
X98400D01*
X97800Y149700D02*
Y150900D01*
X89500Y132300D02*
X90700D01*
X90100Y131700D02*
Y132900D01*
X140600Y89100D02*
X141800D01*
X141200Y88500D02*
Y89700D01*
X148600Y89500D02*
X149800D01*
X149200Y88900D02*
Y90100D01*
X151800Y84400D02*
X153000D01*
X152400Y83800D02*
Y85000D01*
X148100Y79300D02*
X149300D01*
X148700Y78700D02*
Y79900D01*
X141100Y82700D02*
X142300D01*
X141700Y82100D02*
Y83300D01*
X136500Y80500D02*
X137700D01*
X137100Y79900D02*
Y81100D01*
X142700Y77300D02*
X143900D01*
X143300Y76700D02*
Y77900D01*
X152200Y75900D02*
X153400D01*
X152800Y75300D02*
Y76500D01*
X138700Y73200D02*
X139900D01*
X139300Y72600D02*
Y73800D01*
X139200Y66800D02*
X140400D01*
X139800Y66200D02*
Y67400D01*
X149500Y68300D02*
X150700D01*
X150100Y67700D02*
Y68900D01*
X148100Y72300D02*
X149300D01*
X148700Y71700D02*
Y72900D01*
X152500Y70600D02*
X153700D01*
X153100Y70000D02*
Y71200D01*
X151800Y64900D02*
X153000D01*
X152400Y64300D02*
Y65500D01*
X144500Y65700D02*
X145700D01*
X145100Y65100D02*
Y66300D01*
X146400Y84700D02*
X147600D01*
X147000Y84100D02*
Y85300D01*
X152200Y91800D02*
X153400D01*
X152800Y91200D02*
Y92400D01*
X144000Y91700D02*
X145200D01*
X144600Y91100D02*
Y92300D01*
X143600Y71100D02*
X144800D01*
X144200Y70500D02*
Y71700D01*
X147800Y13900D02*
X149000D01*
X148400Y13300D02*
Y14500D01*
X147600Y8600D02*
X148800D01*
X148200Y8000D02*
Y9200D01*
X146300Y4700D02*
X147500D01*
X146900Y4100D02*
Y5300D01*
X152100Y4400D02*
X153300D01*
X152700Y3800D02*
Y5000D01*
X151500Y8700D02*
X152700D01*
X152100Y8100D02*
Y9300D01*
X152000Y14900D02*
X153200D01*
X152600Y14300D02*
Y15500D01*
X22900Y151500D02*
X24100D01*
X23500Y150900D02*
Y152100D01*
X22700Y146200D02*
X23900D01*
X23300Y145600D02*
Y146800D01*
X20400Y142300D02*
X21600D01*
X21000Y141700D02*
Y142900D01*
X26200Y137500D02*
X27400D01*
X26800Y136900D02*
Y138100D01*
X30500Y133300D02*
X31700D01*
X31100Y132700D02*
Y133900D01*
X39700Y130600D02*
X40900D01*
X40300Y130000D02*
Y131200D01*
X28300Y126600D02*
X29500D01*
X28900Y126000D02*
Y127200D01*
Y119100D02*
X30100D01*
X29500Y118500D02*
Y119700D01*
X50100Y122800D02*
X51300D01*
X50700Y122200D02*
Y123400D01*
X56200Y123100D02*
X57400D01*
X56800Y122500D02*
Y123700D01*
X51300Y143800D02*
X52500D01*
X51900Y143200D02*
Y144400D01*
X49600Y137900D02*
X50800D01*
X50200Y137300D02*
Y138500D01*
X49600Y152500D02*
X50800D01*
X50200Y151900D02*
Y153100D01*
X129700Y152800D02*
X130900D01*
X130300Y152200D02*
Y153400D01*
X149800Y137500D02*
X151000D01*
X150400Y136900D02*
Y138100D01*
X141300Y136700D02*
X142500D01*
X141900Y136100D02*
Y137300D01*
X119300Y132100D02*
X120500D01*
X119900Y131500D02*
Y132700D01*
X108000Y118900D02*
X109200D01*
X108600Y118300D02*
Y119500D01*
X120000Y118800D02*
X121200D01*
X120600Y118200D02*
Y119400D01*
X120200Y95300D02*
X121400D01*
X120800Y94700D02*
Y95900D01*
X95800Y108300D02*
X97000D01*
X96400Y107700D02*
Y108900D01*
X67100Y56200D02*
X68300D01*
X67700Y55600D02*
Y56800D01*
X139100Y12400D02*
X140300D01*
X139700Y11800D02*
Y13000D01*
X133300Y12400D02*
X134500D01*
X133900Y11800D02*
Y13000D01*
X128800Y12300D02*
X130000D01*
X129400Y11700D02*
Y12900D01*
X7800Y150500D02*
X9000D01*
X8400Y149900D02*
Y151100D01*
X16100Y150000D02*
X17300D01*
X16700Y149400D02*
Y150600D01*
X13100Y143600D02*
X14300D01*
X13700Y143000D02*
Y144200D01*
X7800Y144100D02*
X9000D01*
X8400Y143500D02*
Y144700D01*
X11600Y151600D02*
X12800D01*
X12200Y151000D02*
Y152200D01*
X66500Y152500D02*
X67700D01*
X67100Y151900D02*
Y153100D01*
X75700Y152200D02*
X76900D01*
X76300Y151600D02*
Y152800D01*
X103900Y152500D02*
X105100D01*
X104500Y151900D02*
Y153100D01*
Y143400D02*
X105700D01*
X105100Y142800D02*
Y144000D01*
X138500Y153000D02*
X139700D01*
X139100Y152400D02*
Y153600D01*
X136300Y29500D02*
X137500D01*
X136900Y28900D02*
Y30100D01*
X131100Y25900D02*
X132300D01*
X131700Y25300D02*
Y26500D01*
X140700Y16500D02*
X141900D01*
X141300Y15900D02*
Y17100D01*
M02*
