%FSLAX25Y25*%
%MOIN*%
G70*
G01*
G75*
G04 Layer_Color=8388736*
%ADD10C,0.00800*%
%ADD11R,0.16500X0.07000*%
%ADD12R,0.16500X0.10500*%
%ADD13R,0.02362X0.01969*%
%ADD14R,0.01969X0.02362*%
%ADD15R,0.05512X0.04528*%
%ADD16C,0.01181*%
%ADD17R,0.03150X0.03150*%
%ADD18C,0.01000*%
%ADD19C,0.02000*%
%ADD20C,0.00500*%
%ADD21C,0.01500*%
%ADD22C,0.05906*%
%ADD23R,0.05906X0.05906*%
%ADD24C,0.15748*%
%ADD25C,0.02000*%
%ADD26C,0.01800*%
%ADD27C,0.01150*%
%ADD28C,0.02400*%
%ADD29C,0.04000*%
%ADD30C,0.04543*%
%ADD31C,0.02200*%
%ADD32C,0.09661*%
%ADD33R,0.17000X0.11500*%
%ADD34C,0.00787*%
%ADD35C,0.00394*%
%ADD36C,0.00600*%
%ADD37C,0.01063*%
%ADD38R,0.16900X0.07400*%
%ADD39R,0.16900X0.10900*%
%ADD40R,0.02762X0.02369*%
%ADD41R,0.02369X0.02762*%
%ADD42R,0.06312X0.05328*%
%ADD43C,0.00787*%
%ADD44R,0.03950X0.03950*%
%ADD45C,0.06706*%
%ADD46R,0.06706X0.06706*%
%ADD47C,0.14567*%
%ADD48C,0.02800*%
%ADD49C,0.02600*%
%ADD50C,0.01950*%
%ADD51C,0.03200*%
D38*
X147638Y114014D02*
D03*
Y43148D02*
D03*
X9843Y43048D02*
D03*
Y113914D02*
D03*
D39*
X147538Y127814D02*
D03*
X147638Y100114D02*
D03*
X147538Y56948D02*
D03*
X147638Y29248D02*
D03*
X9943D02*
D03*
X9843Y56948D02*
D03*
X9943Y100114D02*
D03*
X9843Y127814D02*
D03*
D40*
X66900Y53469D02*
D03*
Y49531D02*
D03*
X114700Y49332D02*
D03*
Y53268D02*
D03*
X97300Y61831D02*
D03*
Y65768D02*
D03*
D41*
X72611Y94657D02*
D03*
X68674D02*
D03*
X82432Y54100D02*
D03*
X86369D02*
D03*
X72601Y88751D02*
D03*
X68664D02*
D03*
X80475D02*
D03*
X76538D02*
D03*
X80475Y94657D02*
D03*
X76538D02*
D03*
D42*
X82422Y59533D02*
D03*
X91084D02*
D03*
Y65832D02*
D03*
X82422D02*
D03*
D43*
X69381Y73998D02*
D03*
X70956D02*
D03*
X72531D02*
D03*
X74106D02*
D03*
X75680D02*
D03*
X77255D02*
D03*
X78830D02*
D03*
X80405D02*
D03*
X69381Y75573D02*
D03*
X70956D02*
D03*
X72531D02*
D03*
X74106D02*
D03*
X75680D02*
D03*
X77255D02*
D03*
X78830D02*
D03*
X80405D02*
D03*
X69381Y77439D02*
D03*
X70956Y77148D02*
D03*
X72531D02*
D03*
X74106D02*
D03*
X75680D02*
D03*
X77255D02*
D03*
X78830D02*
D03*
X80405Y77439D02*
D03*
X69381Y79014D02*
D03*
X71743Y78565D02*
D03*
X75680Y79014D02*
D03*
X77255D02*
D03*
X78830Y78723D02*
D03*
X80405Y79014D02*
D03*
X69381Y80589D02*
D03*
X71743Y81038D02*
D03*
X75680Y80589D02*
D03*
X78830Y80880D02*
D03*
X77255Y80589D02*
D03*
X80405D02*
D03*
X69381Y82164D02*
D03*
X70956Y82455D02*
D03*
X72531D02*
D03*
X74106D02*
D03*
X75680D02*
D03*
X77255D02*
D03*
X78830D02*
D03*
X80405Y82164D02*
D03*
D44*
X74953Y100700D02*
D03*
X69047D02*
D03*
D45*
X119370Y40200D02*
D03*
X109370D02*
D03*
X99370D02*
D03*
X89370D02*
D03*
X79370D02*
D03*
X69370D02*
D03*
X59370D02*
D03*
X49370D02*
D03*
X39370D02*
D03*
X119370Y30200D02*
D03*
X109370D02*
D03*
X99370D02*
D03*
X89370D02*
D03*
X79370D02*
D03*
X69370D02*
D03*
X59370D02*
D03*
X49370D02*
D03*
D46*
X39370D02*
D03*
D47*
Y145669D02*
D03*
Y11811D02*
D03*
X118110D02*
D03*
Y145669D02*
D03*
D48*
X75400Y85500D02*
D03*
X76200Y97400D02*
D03*
X74000Y97300D02*
D03*
X75600Y91800D02*
D03*
X73000D02*
D03*
X73290Y79491D02*
D03*
D49*
X72531Y85500D02*
D03*
X83400Y76100D02*
D03*
X66000Y76300D02*
D03*
X82300Y84059D02*
D03*
X78830Y84530D02*
D03*
D50*
X72531Y77148D02*
D03*
X77255Y75573D02*
D03*
X78830D02*
D03*
Y77148D02*
D03*
X77255D02*
D03*
Y79014D02*
D03*
X75680Y77148D02*
D03*
Y75573D02*
D03*
X74106D02*
D03*
X72531D02*
D03*
X70956D02*
D03*
D51*
X66945Y84600D02*
D03*
X114700Y56200D02*
D03*
X100232Y61831D02*
D03*
X91084Y55484D02*
D03*
X86369Y51432D02*
D03*
X4800Y136100D02*
D03*
X10900D02*
D03*
X15200Y135900D02*
D03*
X21000Y134900D02*
D03*
X23100Y131600D02*
D03*
X23500Y125400D02*
D03*
X23400Y122000D02*
D03*
X23300Y116000D02*
D03*
X26500Y110600D02*
D03*
X29300Y105400D02*
D03*
X30800Y97700D02*
D03*
X29700Y93800D02*
D03*
X28300Y89100D02*
D03*
X32200Y85700D02*
D03*
X37900Y85300D02*
D03*
X42500D02*
D03*
X49000Y85100D02*
D03*
X54500D02*
D03*
X62000Y85000D02*
D03*
X63700Y90900D02*
D03*
X52100Y93100D02*
D03*
X46500D02*
D03*
X36600Y93500D02*
D03*
X35700Y125200D02*
D03*
X35500Y120200D02*
D03*
X36500Y112700D02*
D03*
X42800Y106100D02*
D03*
X58200Y105100D02*
D03*
X36400Y104300D02*
D03*
X52900Y100700D02*
D03*
X50100Y116100D02*
D03*
X42000Y123400D02*
D03*
X44000Y113800D02*
D03*
X65800Y134100D02*
D03*
X49400Y131400D02*
D03*
X62000Y122300D02*
D03*
X80700Y116200D02*
D03*
X65800Y114000D02*
D03*
X55100Y150100D02*
D03*
X56400Y139900D02*
D03*
X87700Y140000D02*
D03*
X70400Y148900D02*
D03*
X80300Y135500D02*
D03*
X78400Y129500D02*
D03*
X102900Y121900D02*
D03*
X101800Y115000D02*
D03*
X91300Y103000D02*
D03*
X86300Y86200D02*
D03*
X84900Y89300D02*
D03*
X86200Y94700D02*
D03*
X64800Y95700D02*
D03*
X64700Y101200D02*
D03*
X67800Y105900D02*
D03*
X72800Y108000D02*
D03*
X79100D02*
D03*
X84400Y104100D02*
D03*
X83800Y99000D02*
D03*
X88800Y110400D02*
D03*
X92600Y85700D02*
D03*
X104900Y85600D02*
D03*
X119200D02*
D03*
X98500Y85900D02*
D03*
X125100Y85700D02*
D03*
X128300Y90200D02*
D03*
X126900Y96900D02*
D03*
X127500Y105200D02*
D03*
X131000Y113500D02*
D03*
X133600Y120600D02*
D03*
X150000Y142200D02*
D03*
X142600Y149600D02*
D03*
X135600Y148200D02*
D03*
X133800Y139900D02*
D03*
X143300Y140200D02*
D03*
X150800Y151400D02*
D03*
X124000Y126200D02*
D03*
X114100Y115000D02*
D03*
X109400Y105700D02*
D03*
X99300Y100100D02*
D03*
X115300Y98300D02*
D03*
X107700Y95600D02*
D03*
X96000Y94200D02*
D03*
X94300Y128100D02*
D03*
X90600Y122100D02*
D03*
X108800Y131800D02*
D03*
X99400Y143700D02*
D03*
X89500Y151500D02*
D03*
X79800Y148800D02*
D03*
X72000Y122200D02*
D03*
X57000Y130100D02*
D03*
X56200Y114600D02*
D03*
X100300Y133700D02*
D03*
X131700Y131400D02*
D03*
X115700Y125700D02*
D03*
X127000Y118300D02*
D03*
X119700Y105600D02*
D03*
X5200Y90800D02*
D03*
X15400Y90500D02*
D03*
X11700Y84300D02*
D03*
X11200Y89400D02*
D03*
X5500Y78900D02*
D03*
X5700Y84000D02*
D03*
X18300Y79200D02*
D03*
X11900Y76700D02*
D03*
X5100Y72300D02*
D03*
X6500Y67000D02*
D03*
X13100Y65000D02*
D03*
X11500Y70300D02*
D03*
X18400Y73100D02*
D03*
X18300Y66400D02*
D03*
X5700Y19400D02*
D03*
X5900Y12200D02*
D03*
X5500Y6000D02*
D03*
X11900Y5900D02*
D03*
X12400Y12000D02*
D03*
X12200Y19900D02*
D03*
X19500Y19200D02*
D03*
X19700Y12700D02*
D03*
X19000Y6300D02*
D03*
X26000Y6000D02*
D03*
Y12900D02*
D03*
X26600Y19500D02*
D03*
X24500Y27200D02*
D03*
Y34000D02*
D03*
X24100Y41400D02*
D03*
X27600Y47300D02*
D03*
X60300Y73900D02*
D03*
X54100Y74100D02*
D03*
X49000Y73900D02*
D03*
X43100D02*
D03*
X36300Y73800D02*
D03*
X30600D02*
D03*
X28300Y69900D02*
D03*
X28800Y63400D02*
D03*
Y58200D02*
D03*
X28900Y52100D02*
D03*
X35600Y66300D02*
D03*
X35300Y60400D02*
D03*
X35700Y55000D02*
D03*
X36900Y48900D02*
D03*
X43200Y49100D02*
D03*
X42100Y55800D02*
D03*
X45700Y65100D02*
D03*
X51300Y69000D02*
D03*
X50700Y61200D02*
D03*
X47900Y54100D02*
D03*
X55800Y61500D02*
D03*
X58200Y68800D02*
D03*
X40900Y61600D02*
D03*
X41700Y68200D02*
D03*
X52600Y56100D02*
D03*
X60100Y63600D02*
D03*
X49500Y48500D02*
D03*
X111400Y85800D02*
D03*
X87500Y75000D02*
D03*
X92500Y75100D02*
D03*
X96600Y74800D02*
D03*
X104100Y74500D02*
D03*
X111200Y74300D02*
D03*
X117700Y74000D02*
D03*
X124500Y73800D02*
D03*
X129700Y71400D02*
D03*
X129000Y64500D02*
D03*
X129600Y58700D02*
D03*
X129200Y53500D02*
D03*
X130600Y49300D02*
D03*
X134600Y43700D02*
D03*
Y37300D02*
D03*
X132800Y31700D02*
D03*
X127700Y28400D02*
D03*
X125400Y36100D02*
D03*
X129600Y41300D02*
D03*
X122300Y47900D02*
D03*
X119800Y55100D02*
D03*
X120700Y63300D02*
D03*
X115100Y66800D02*
D03*
X106100Y67000D02*
D03*
X97100Y57000D02*
D03*
X94600Y53300D02*
D03*
X99300Y50700D02*
D03*
X107700Y49900D02*
D03*
X103800Y55000D02*
D03*
X112900Y62300D02*
D03*
X116700Y60500D02*
D03*
X121400Y66400D02*
D03*
X124100Y57400D02*
D03*
X124500Y53300D02*
D03*
X123800Y42600D02*
D03*
X121500Y34700D02*
D03*
X128500Y21100D02*
D03*
X135100Y24300D02*
D03*
X150500Y19600D02*
D03*
X144800Y20000D02*
D03*
X55500Y19800D02*
D03*
X55000Y11800D02*
D03*
X54400Y5300D02*
D03*
X66600D02*
D03*
X65400Y13000D02*
D03*
X66200Y20400D02*
D03*
X75300Y20000D02*
D03*
X74700Y11800D02*
D03*
X78800Y5600D02*
D03*
X90300Y5400D02*
D03*
X85200Y13300D02*
D03*
X84700Y20700D02*
D03*
X94000Y20300D02*
D03*
X93700Y14400D02*
D03*
X99700Y4900D02*
D03*
X106400Y4600D02*
D03*
X104100Y11600D02*
D03*
X107300Y20700D02*
D03*
X100400Y19800D02*
D03*
X48700Y22400D02*
D03*
X51100Y17200D02*
D03*
X49500Y5100D02*
D03*
X72500Y4600D02*
D03*
X80000Y12200D02*
D03*
X106400Y61600D02*
D03*
X91600Y72000D02*
D03*
X90800Y52300D02*
D03*
X77600Y62100D02*
D03*
X77700Y54200D02*
D03*
X61300Y149300D02*
D03*
X63100Y143500D02*
D03*
X69400Y140100D02*
D03*
X97800Y150300D02*
D03*
X90100Y132300D02*
D03*
X141200Y89100D02*
D03*
X149200Y89500D02*
D03*
X152400Y84400D02*
D03*
X148700Y79300D02*
D03*
X141700Y82700D02*
D03*
X137100Y80500D02*
D03*
X143300Y77300D02*
D03*
X152800Y75900D02*
D03*
X139300Y73200D02*
D03*
X139800Y66800D02*
D03*
X150100Y68300D02*
D03*
X148700Y72300D02*
D03*
X153100Y70600D02*
D03*
X152400Y64900D02*
D03*
X145100Y65700D02*
D03*
X147000Y84700D02*
D03*
X152800Y91800D02*
D03*
X144600Y91700D02*
D03*
X144200Y71100D02*
D03*
X148400Y13900D02*
D03*
X148200Y8600D02*
D03*
X146900Y4700D02*
D03*
X152700Y4400D02*
D03*
X152100Y8700D02*
D03*
X152600Y14900D02*
D03*
X23500Y151500D02*
D03*
X23300Y146200D02*
D03*
X21000Y142300D02*
D03*
X26800Y137500D02*
D03*
X31100Y133300D02*
D03*
X40300Y130600D02*
D03*
X28900Y126600D02*
D03*
X29500Y119100D02*
D03*
X50700Y122800D02*
D03*
X56800Y123100D02*
D03*
X51900Y143800D02*
D03*
X50200Y137900D02*
D03*
Y152500D02*
D03*
X130300Y152800D02*
D03*
X150400Y137500D02*
D03*
X141900Y136700D02*
D03*
X119900Y132100D02*
D03*
X108600Y118900D02*
D03*
X120600Y118800D02*
D03*
X120800Y95300D02*
D03*
X96400Y108300D02*
D03*
X67700Y56200D02*
D03*
X139700Y12400D02*
D03*
X133900D02*
D03*
X129400Y12300D02*
D03*
X8400Y150500D02*
D03*
X16700Y150000D02*
D03*
X13700Y143600D02*
D03*
X8400Y144100D02*
D03*
X12200Y151600D02*
D03*
X67100Y152500D02*
D03*
X76300Y152200D02*
D03*
X104500Y152500D02*
D03*
X105100Y143400D02*
D03*
X139100Y153000D02*
D03*
X136900Y29500D02*
D03*
X131700Y25900D02*
D03*
X141300Y16500D02*
D03*
M02*
