%FSLAX25Y25*%
%MOIN*%
G70*
G01*
G75*
G04 Layer_Color=255*
%ADD10C,0.00800*%
%ADD11R,0.16500X0.07000*%
%ADD12R,0.16500X0.10500*%
%ADD13R,0.02362X0.01969*%
%ADD14R,0.01969X0.02362*%
%ADD15R,0.05512X0.04528*%
%ADD16C,0.01181*%
%ADD17R,0.03150X0.03150*%
%ADD18C,0.01000*%
%ADD19C,0.02000*%
%ADD20C,0.00500*%
%ADD21C,0.01500*%
%ADD22C,0.05906*%
%ADD23R,0.05906X0.05906*%
%ADD24C,0.15748*%
%ADD25C,0.02000*%
%ADD26C,0.01800*%
%ADD27C,0.01150*%
%ADD28C,0.02400*%
%ADD29C,0.04000*%
%ADD30C,0.04543*%
%ADD31C,0.02200*%
%ADD32C,0.09661*%
%ADD33R,0.17000X0.11500*%
D22*
X119370Y40200D02*
D03*
X109370D02*
D03*
X99370D02*
D03*
X89370D02*
D03*
X79370D02*
D03*
X69370D02*
D03*
X59370D02*
D03*
X49370D02*
D03*
X39370D02*
D03*
X119370Y30200D02*
D03*
X109370D02*
D03*
X99370D02*
D03*
X89370D02*
D03*
X79370D02*
D03*
X69370D02*
D03*
X59370D02*
D03*
X49370D02*
D03*
D23*
X39370D02*
D03*
D24*
Y145669D02*
D03*
Y11811D02*
D03*
X118110D02*
D03*
Y145669D02*
D03*
D33*
X147538Y127814D02*
D03*
X147638Y100114D02*
D03*
X147538Y56948D02*
D03*
X147638Y29248D02*
D03*
X9943D02*
D03*
X9843Y56948D02*
D03*
X9943Y100114D02*
D03*
X9843Y127814D02*
D03*
M02*
