%FSLAX25Y25*%
%MOIN*%
G70*
G01*
G75*
G04 Layer_Physical_Order=4*
G04 Layer_Color=16711680*
%ADD10C,0.00800*%
%ADD11R,0.16500X0.07000*%
%ADD12R,0.16500X0.10500*%
%ADD13R,0.02362X0.01969*%
%ADD14R,0.01969X0.02362*%
%ADD15R,0.05512X0.04528*%
%ADD16C,0.01181*%
%ADD17R,0.03150X0.03150*%
%ADD18C,0.01000*%
%ADD19C,0.02000*%
%ADD20C,0.00500*%
%ADD21C,0.01500*%
%ADD22C,0.05906*%
%ADD23R,0.05906X0.05906*%
%ADD24C,0.15748*%
%ADD25C,0.02000*%
%ADD26C,0.01800*%
%ADD27C,0.01150*%
%ADD28C,0.02400*%
%ADD29C,0.04000*%
%ADD30C,0.04543*%
%ADD31C,0.02200*%
%ADD32C,0.09661*%
%ADD33R,0.17000X0.11500*%
G36*
X155040Y2441D02*
X2441D01*
Y155040D01*
X155040D01*
Y2441D01*
D02*
G37*
%LPC*%
G36*
X114700Y59428D02*
X113865Y59318D01*
X113086Y58995D01*
X112418Y58482D01*
X111905Y57814D01*
X111582Y57035D01*
X111472Y56200D01*
X111582Y55365D01*
X111905Y54586D01*
X112418Y53918D01*
X113086Y53405D01*
X113865Y53082D01*
X114700Y52972D01*
X115535Y53082D01*
X116314Y53405D01*
X116982Y53918D01*
X117495Y54586D01*
X117818Y55365D01*
X117928Y56200D01*
X117818Y57035D01*
X117495Y57814D01*
X116982Y58482D01*
X116314Y58995D01*
X115535Y59318D01*
X114700Y59428D01*
D02*
G37*
G36*
X39370Y45195D02*
X38077Y45025D01*
X36872Y44526D01*
X35838Y43732D01*
X35044Y42698D01*
X34545Y41493D01*
X34375Y40200D01*
X34545Y38907D01*
X35044Y37702D01*
X35838Y36668D01*
X36872Y35874D01*
X38077Y35375D01*
X39005Y35252D01*
X38999Y35153D01*
X34417D01*
Y25247D01*
X44323D01*
Y35153D01*
X39741D01*
X39735Y35252D01*
X40663Y35375D01*
X41868Y35874D01*
X42902Y36668D01*
X43696Y37702D01*
X44195Y38907D01*
X44366Y40200D01*
X44195Y41493D01*
X43696Y42698D01*
X42902Y43732D01*
X41868Y44526D01*
X40663Y45025D01*
X39370Y45195D01*
D02*
G37*
G36*
X75400Y88526D02*
X74617Y88423D01*
X73887Y88121D01*
X73850Y88092D01*
X73288Y88325D01*
X72531Y88425D01*
X71774Y88325D01*
X71068Y88033D01*
X70462Y87568D01*
X69998Y86962D01*
X69705Y86257D01*
X69606Y85500D01*
X69705Y84743D01*
X69998Y84038D01*
X70462Y83432D01*
X71068Y82967D01*
X71774Y82675D01*
X72531Y82575D01*
X73288Y82675D01*
X73850Y82908D01*
X73887Y82880D01*
X74617Y82577D01*
X75400Y82474D01*
X76183Y82577D01*
X76555Y82731D01*
X76762Y82462D01*
X77367Y81997D01*
X78073Y81705D01*
X78830Y81605D01*
X79587Y81705D01*
X80292Y81997D01*
X80898Y82462D01*
X81363Y83067D01*
X81655Y83773D01*
X81755Y84530D01*
X81655Y85287D01*
X81363Y85992D01*
X80898Y86598D01*
X80292Y87063D01*
X79587Y87355D01*
X78830Y87455D01*
X78073Y87355D01*
X77834Y87256D01*
X77540Y87640D01*
X76913Y88121D01*
X76183Y88423D01*
X75400Y88526D01*
D02*
G37*
G36*
X76200Y100426D02*
X75417Y100323D01*
X74979Y100142D01*
X74783Y100223D01*
X74000Y100326D01*
X73217Y100223D01*
X72487Y99920D01*
X71860Y99440D01*
X71380Y98813D01*
X71077Y98083D01*
X70974Y97300D01*
X71077Y96517D01*
X71380Y95787D01*
X71860Y95160D01*
X72296Y94826D01*
X72270Y94730D01*
X72217Y94723D01*
X71487Y94420D01*
X70860Y93940D01*
X70380Y93313D01*
X70077Y92583D01*
X69974Y91800D01*
X70077Y91017D01*
X70380Y90287D01*
X70860Y89660D01*
X71487Y89179D01*
X72217Y88877D01*
X73000Y88774D01*
X73783Y88877D01*
X74300Y89091D01*
X74817Y88877D01*
X75600Y88774D01*
X76383Y88877D01*
X77113Y89179D01*
X77740Y89660D01*
X78220Y90287D01*
X78523Y91017D01*
X78626Y91800D01*
X78523Y92583D01*
X78220Y93313D01*
X77740Y93940D01*
X77113Y94420D01*
X76985Y94474D01*
X76983Y94477D01*
X77713Y94779D01*
D01*
X77713D01*
X77713Y94779D01*
X78340Y95260D01*
X78821Y95887D01*
X79123Y96617D01*
X79226Y97400D01*
X79123Y98183D01*
X78821Y98913D01*
X78340Y99540D01*
X77713Y100021D01*
X76983Y100323D01*
X76200Y100426D01*
D02*
G37*
G36*
X77255Y81611D02*
X76583Y81523D01*
X75956Y81263D01*
X75419Y80851D01*
X75006Y80313D01*
X74746Y79686D01*
X74658Y79014D01*
X74698Y78713D01*
X74605Y78674D01*
X74367Y78984D01*
X73829Y79397D01*
X73203Y79657D01*
X72531Y79745D01*
X71859Y79657D01*
X71340Y79442D01*
X70748D01*
X69870Y79268D01*
X69126Y78770D01*
X67978Y77622D01*
X67481Y76878D01*
X67306Y76000D01*
Y59376D01*
X66865Y59318D01*
X66086Y58995D01*
X65418Y58482D01*
X64905Y57814D01*
X64582Y57035D01*
X64472Y56200D01*
X64582Y55365D01*
X64905Y54586D01*
X65418Y53918D01*
X66086Y53405D01*
X66865Y53082D01*
X67306Y53024D01*
Y52800D01*
X67481Y51922D01*
X67978Y51178D01*
X67978Y51178D01*
X67978Y51178D01*
X72206Y46950D01*
Y44380D01*
X72116Y44336D01*
X71868Y44526D01*
X70663Y45025D01*
X69370Y45195D01*
X68077Y45025D01*
X66872Y44526D01*
X65838Y43732D01*
X65044Y42698D01*
X64545Y41493D01*
X64420Y40545D01*
X64320D01*
X64195Y41493D01*
X63696Y42698D01*
X62902Y43732D01*
X61868Y44526D01*
X60663Y45025D01*
X59370Y45195D01*
X58077Y45025D01*
X56872Y44526D01*
X55838Y43732D01*
X55044Y42698D01*
X54545Y41493D01*
X54375Y40200D01*
X54545Y38907D01*
X55044Y37702D01*
X55838Y36668D01*
X56872Y35874D01*
X58077Y35375D01*
X59025Y35250D01*
Y35150D01*
X58077Y35025D01*
X56872Y34526D01*
X55838Y33732D01*
X55044Y32698D01*
X54545Y31493D01*
X54375Y30200D01*
X54545Y28907D01*
X55044Y27702D01*
X55838Y26668D01*
X56872Y25874D01*
X58077Y25375D01*
X59370Y25205D01*
X60663Y25375D01*
X61868Y25874D01*
X62902Y26668D01*
X63696Y27702D01*
X64195Y28907D01*
X64320Y29855D01*
X64420D01*
X64545Y28907D01*
X65044Y27702D01*
X65838Y26668D01*
X66872Y25874D01*
X68077Y25375D01*
X69370Y25205D01*
X70663Y25375D01*
X71868Y25874D01*
X72902Y26668D01*
X73696Y27702D01*
X74195Y28907D01*
X74320Y29855D01*
X74420D01*
X74545Y28907D01*
X75044Y27702D01*
X75838Y26668D01*
X76872Y25874D01*
X78077Y25375D01*
X79370Y25205D01*
X80663Y25375D01*
X81868Y25874D01*
X82902Y26668D01*
X83696Y27702D01*
X84195Y28907D01*
X84366Y30200D01*
X84195Y31493D01*
X83696Y32698D01*
X83605Y32816D01*
X83650Y32906D01*
X93750D01*
X94726Y31930D01*
X94545Y31493D01*
X94375Y30200D01*
X94545Y28907D01*
X95044Y27702D01*
X95838Y26668D01*
X96872Y25874D01*
X98077Y25375D01*
X99370Y25205D01*
X100663Y25375D01*
X101868Y25874D01*
X102902Y26668D01*
X103696Y27702D01*
X104195Y28907D01*
X104320Y29855D01*
X104420D01*
X104545Y28907D01*
X105044Y27702D01*
X105838Y26668D01*
X106872Y25874D01*
X108077Y25375D01*
X109370Y25205D01*
X110663Y25375D01*
X111868Y25874D01*
X112902Y26668D01*
X113696Y27702D01*
X114195Y28907D01*
X114320Y29855D01*
X114420D01*
X114545Y28907D01*
X115044Y27702D01*
X115838Y26668D01*
X116872Y25874D01*
X118077Y25375D01*
X119370Y25205D01*
X120663Y25375D01*
X121868Y25874D01*
X122902Y26668D01*
X123696Y27702D01*
X124195Y28907D01*
X124366Y30200D01*
X124195Y31493D01*
X123696Y32698D01*
X122902Y33732D01*
X121868Y34526D01*
X120663Y35025D01*
X119370Y35195D01*
X118077Y35025D01*
X117470Y34774D01*
X116594Y35650D01*
Y41700D01*
X116419Y42578D01*
X115922Y43322D01*
X112222Y47022D01*
X111478Y47519D01*
X110600Y47694D01*
X83550D01*
X77974Y53270D01*
Y73050D01*
X78057Y73106D01*
X78158Y73065D01*
X78830Y72976D01*
X79502Y73065D01*
X80129Y73324D01*
X80666Y73737D01*
X81079Y74275D01*
X81339Y74901D01*
X81427Y75573D01*
X81339Y76245D01*
X81291Y76361D01*
X81339Y76476D01*
X81427Y77148D01*
X81339Y77820D01*
X81079Y78447D01*
X80666Y78984D01*
X80129Y79397D01*
X79783Y79540D01*
X79764Y79686D01*
X79504Y80313D01*
X79092Y80851D01*
X78554Y81263D01*
X77927Y81523D01*
X77255Y81611D01*
D02*
G37*
%LPD*%
G36*
X95288Y43016D02*
X95044Y42698D01*
X94545Y41493D01*
X94375Y40200D01*
X94545Y38907D01*
X95044Y37702D01*
X95208Y37488D01*
X95155Y37404D01*
X94700Y37494D01*
X83650D01*
X83605Y37584D01*
X83696Y37702D01*
X84195Y38907D01*
X84366Y40200D01*
X84195Y41493D01*
X83696Y42698D01*
X83452Y43016D01*
X83496Y43106D01*
X95244D01*
X95288Y43016D01*
D02*
G37*
D20*
X69600Y76000D02*
X70748Y77148D01*
X72531D01*
X75680Y52320D02*
Y75573D01*
Y52320D02*
X82600Y45400D01*
X114300Y34700D02*
X118600Y30400D01*
X82600Y45400D02*
X110600D01*
X114300Y34700D02*
Y41700D01*
X110600Y45400D02*
X114300Y41700D01*
X94700Y35200D02*
X98900Y31000D01*
X79200Y40300D02*
Y46000D01*
X69600Y52800D02*
Y76000D01*
Y52800D02*
X74500Y47900D01*
X70956Y54244D02*
Y75573D01*
Y54244D02*
X79200Y46000D01*
X74500Y38500D02*
Y47900D01*
Y38500D02*
X77800Y35200D01*
X94700D01*
D22*
X119370Y40200D02*
D03*
X109370D02*
D03*
X99370D02*
D03*
X89370D02*
D03*
X79370D02*
D03*
X69370D02*
D03*
X59370D02*
D03*
X49370D02*
D03*
X39370D02*
D03*
X119370Y30200D02*
D03*
X109370D02*
D03*
X99370D02*
D03*
X89370D02*
D03*
X79370D02*
D03*
X69370D02*
D03*
X59370D02*
D03*
X49370D02*
D03*
D23*
X39370D02*
D03*
D24*
Y145669D02*
D03*
Y11811D02*
D03*
X118110D02*
D03*
Y145669D02*
D03*
D25*
X75400Y85500D02*
D03*
X76200Y97400D02*
D03*
X74000Y97300D02*
D03*
X75600Y91800D02*
D03*
X73000D02*
D03*
X73290Y79491D02*
D03*
D26*
X72531Y85500D02*
D03*
X83400Y76100D02*
D03*
X66000Y76300D02*
D03*
X82300Y84059D02*
D03*
X78830Y84530D02*
D03*
D27*
X72531Y77148D02*
D03*
X77255Y75573D02*
D03*
X78830D02*
D03*
Y77148D02*
D03*
X77255D02*
D03*
Y79014D02*
D03*
X75680Y77148D02*
D03*
Y75573D02*
D03*
X74106D02*
D03*
X72531D02*
D03*
X70956D02*
D03*
D28*
X66945Y84600D02*
D03*
X114700Y56200D02*
D03*
X100232Y61831D02*
D03*
X91084Y55484D02*
D03*
X86369Y51432D02*
D03*
X4800Y136100D02*
D03*
X10900D02*
D03*
X15200Y135900D02*
D03*
X21000Y134900D02*
D03*
X23100Y131600D02*
D03*
X23500Y125400D02*
D03*
X23400Y122000D02*
D03*
X23300Y116000D02*
D03*
X26500Y110600D02*
D03*
X29300Y105400D02*
D03*
X30800Y97700D02*
D03*
X29700Y93800D02*
D03*
X28300Y89100D02*
D03*
X32200Y85700D02*
D03*
X37900Y85300D02*
D03*
X42500D02*
D03*
X49000Y85100D02*
D03*
X54500D02*
D03*
X62000Y85000D02*
D03*
X63700Y90900D02*
D03*
X52100Y93100D02*
D03*
X46500D02*
D03*
X36600Y93500D02*
D03*
X35700Y125200D02*
D03*
X35500Y120200D02*
D03*
X36500Y112700D02*
D03*
X42800Y106100D02*
D03*
X58200Y105100D02*
D03*
X36400Y104300D02*
D03*
X52900Y100700D02*
D03*
X50100Y116100D02*
D03*
X42000Y123400D02*
D03*
X44000Y113800D02*
D03*
X65800Y134100D02*
D03*
X49400Y131400D02*
D03*
X62000Y122300D02*
D03*
X80700Y116200D02*
D03*
X65800Y114000D02*
D03*
X55100Y150100D02*
D03*
X56400Y139900D02*
D03*
X87700Y140000D02*
D03*
X70400Y148900D02*
D03*
X80300Y135500D02*
D03*
X78400Y129500D02*
D03*
X102900Y121900D02*
D03*
X101800Y115000D02*
D03*
X91300Y103000D02*
D03*
X86300Y86200D02*
D03*
X84900Y89300D02*
D03*
X86200Y94700D02*
D03*
X64800Y95700D02*
D03*
X64700Y101200D02*
D03*
X67800Y105900D02*
D03*
X72800Y108000D02*
D03*
X79100D02*
D03*
X84400Y104100D02*
D03*
X83800Y99000D02*
D03*
X88800Y110400D02*
D03*
X92600Y85700D02*
D03*
X104900Y85600D02*
D03*
X119200D02*
D03*
X98500Y85900D02*
D03*
X125100Y85700D02*
D03*
X128300Y90200D02*
D03*
X126900Y96900D02*
D03*
X127500Y105200D02*
D03*
X131000Y113500D02*
D03*
X133600Y120600D02*
D03*
X150000Y142200D02*
D03*
X142600Y149600D02*
D03*
X135600Y148200D02*
D03*
X133800Y139900D02*
D03*
X143300Y140200D02*
D03*
X150800Y151400D02*
D03*
X124000Y126200D02*
D03*
X114100Y115000D02*
D03*
X109400Y105700D02*
D03*
X99300Y100100D02*
D03*
X115300Y98300D02*
D03*
X107700Y95600D02*
D03*
X96000Y94200D02*
D03*
X94300Y128100D02*
D03*
X90600Y122100D02*
D03*
X108800Y131800D02*
D03*
X99400Y143700D02*
D03*
X89500Y151500D02*
D03*
X79800Y148800D02*
D03*
X72000Y122200D02*
D03*
X57000Y130100D02*
D03*
X56200Y114600D02*
D03*
X100300Y133700D02*
D03*
X131700Y131400D02*
D03*
X115700Y125700D02*
D03*
X127000Y118300D02*
D03*
X119700Y105600D02*
D03*
X5200Y90800D02*
D03*
X15400Y90500D02*
D03*
X11700Y84300D02*
D03*
X11200Y89400D02*
D03*
X5500Y78900D02*
D03*
X5700Y84000D02*
D03*
X18300Y79200D02*
D03*
X11900Y76700D02*
D03*
X5100Y72300D02*
D03*
X6500Y67000D02*
D03*
X13100Y65000D02*
D03*
X11500Y70300D02*
D03*
X18400Y73100D02*
D03*
X18300Y66400D02*
D03*
X5700Y19400D02*
D03*
X5900Y12200D02*
D03*
X5500Y6000D02*
D03*
X11900Y5900D02*
D03*
X12400Y12000D02*
D03*
X12200Y19900D02*
D03*
X19500Y19200D02*
D03*
X19700Y12700D02*
D03*
X19000Y6300D02*
D03*
X26000Y6000D02*
D03*
Y12900D02*
D03*
X26600Y19500D02*
D03*
X24500Y27200D02*
D03*
Y34000D02*
D03*
X24100Y41400D02*
D03*
X27600Y47300D02*
D03*
X60300Y73900D02*
D03*
X54100Y74100D02*
D03*
X49000Y73900D02*
D03*
X43100D02*
D03*
X36300Y73800D02*
D03*
X30600D02*
D03*
X28300Y69900D02*
D03*
X28800Y63400D02*
D03*
Y58200D02*
D03*
X28900Y52100D02*
D03*
X35600Y66300D02*
D03*
X35300Y60400D02*
D03*
X35700Y55000D02*
D03*
X36900Y48900D02*
D03*
X43200Y49100D02*
D03*
X42100Y55800D02*
D03*
X45700Y65100D02*
D03*
X51300Y69000D02*
D03*
X50700Y61200D02*
D03*
X47900Y54100D02*
D03*
X55800Y61500D02*
D03*
X58200Y68800D02*
D03*
X40900Y61600D02*
D03*
X41700Y68200D02*
D03*
X52600Y56100D02*
D03*
X60100Y63600D02*
D03*
X49500Y48500D02*
D03*
X111400Y85800D02*
D03*
X87500Y75000D02*
D03*
X92500Y75100D02*
D03*
X96600Y74800D02*
D03*
X104100Y74500D02*
D03*
X111200Y74300D02*
D03*
X117700Y74000D02*
D03*
X124500Y73800D02*
D03*
X129700Y71400D02*
D03*
X129000Y64500D02*
D03*
X129600Y58700D02*
D03*
X129200Y53500D02*
D03*
X130600Y49300D02*
D03*
X134600Y43700D02*
D03*
Y37300D02*
D03*
X132800Y31700D02*
D03*
X127700Y28400D02*
D03*
X125400Y36100D02*
D03*
X129600Y41300D02*
D03*
X122300Y47900D02*
D03*
X119800Y55100D02*
D03*
X120700Y63300D02*
D03*
X115100Y66800D02*
D03*
X106100Y67000D02*
D03*
X97100Y57000D02*
D03*
X94600Y53300D02*
D03*
X99300Y50700D02*
D03*
X107700Y49900D02*
D03*
X103800Y55000D02*
D03*
X112900Y62300D02*
D03*
X116700Y60500D02*
D03*
X121400Y66400D02*
D03*
X124100Y57400D02*
D03*
X124500Y53300D02*
D03*
X123800Y42600D02*
D03*
X121500Y34700D02*
D03*
X128500Y21100D02*
D03*
X135100Y24300D02*
D03*
X150500Y19600D02*
D03*
X144800Y20000D02*
D03*
X55500Y19800D02*
D03*
X55000Y11800D02*
D03*
X54400Y5300D02*
D03*
X66600D02*
D03*
X65400Y13000D02*
D03*
X66200Y20400D02*
D03*
X75300Y20000D02*
D03*
X74700Y11800D02*
D03*
X78800Y5600D02*
D03*
X90300Y5400D02*
D03*
X85200Y13300D02*
D03*
X84700Y20700D02*
D03*
X94000Y20300D02*
D03*
X93700Y14400D02*
D03*
X99700Y4900D02*
D03*
X106400Y4600D02*
D03*
X104100Y11600D02*
D03*
X107300Y20700D02*
D03*
X100400Y19800D02*
D03*
X48700Y22400D02*
D03*
X51100Y17200D02*
D03*
X49500Y5100D02*
D03*
X72500Y4600D02*
D03*
X80000Y12200D02*
D03*
X106400Y61600D02*
D03*
X91600Y72000D02*
D03*
X90800Y52300D02*
D03*
X77600Y62100D02*
D03*
X77700Y54200D02*
D03*
X61300Y149300D02*
D03*
X63100Y143500D02*
D03*
X69400Y140100D02*
D03*
X97800Y150300D02*
D03*
X90100Y132300D02*
D03*
X141200Y89100D02*
D03*
X149200Y89500D02*
D03*
X152400Y84400D02*
D03*
X148700Y79300D02*
D03*
X141700Y82700D02*
D03*
X137100Y80500D02*
D03*
X143300Y77300D02*
D03*
X152800Y75900D02*
D03*
X139300Y73200D02*
D03*
X139800Y66800D02*
D03*
X150100Y68300D02*
D03*
X148700Y72300D02*
D03*
X153100Y70600D02*
D03*
X152400Y64900D02*
D03*
X145100Y65700D02*
D03*
X147000Y84700D02*
D03*
X152800Y91800D02*
D03*
X144600Y91700D02*
D03*
X144200Y71100D02*
D03*
X148400Y13900D02*
D03*
X148200Y8600D02*
D03*
X146900Y4700D02*
D03*
X152700Y4400D02*
D03*
X152100Y8700D02*
D03*
X152600Y14900D02*
D03*
X23500Y151500D02*
D03*
X23300Y146200D02*
D03*
X21000Y142300D02*
D03*
X26800Y137500D02*
D03*
X31100Y133300D02*
D03*
X40300Y130600D02*
D03*
X28900Y126600D02*
D03*
X29500Y119100D02*
D03*
X50700Y122800D02*
D03*
X56800Y123100D02*
D03*
X51900Y143800D02*
D03*
X50200Y137900D02*
D03*
Y152500D02*
D03*
X130300Y152800D02*
D03*
X150400Y137500D02*
D03*
X141900Y136700D02*
D03*
X119900Y132100D02*
D03*
X108600Y118900D02*
D03*
X120600Y118800D02*
D03*
X120800Y95300D02*
D03*
X96400Y108300D02*
D03*
X67700Y56200D02*
D03*
X139700Y12400D02*
D03*
X133900D02*
D03*
X129400Y12300D02*
D03*
X8400Y150500D02*
D03*
X16700Y150000D02*
D03*
X13700Y143600D02*
D03*
X8400Y144100D02*
D03*
X12200Y151600D02*
D03*
X67100Y152500D02*
D03*
X76300Y152200D02*
D03*
X104500Y152500D02*
D03*
X105100Y143400D02*
D03*
X139100Y153000D02*
D03*
X136900Y29500D02*
D03*
X131700Y25900D02*
D03*
X141300Y16500D02*
D03*
D33*
X147538Y127814D02*
D03*
X147638Y100114D02*
D03*
X147538Y56948D02*
D03*
X147638Y29248D02*
D03*
X9943D02*
D03*
X9843Y56948D02*
D03*
X9943Y100114D02*
D03*
X9843Y127814D02*
D03*
M02*
