%FSLAX25Y25*%
%MOIN*%
G70*
G01*
G75*
G04 Layer_Physical_Order=2*
G04 Layer_Color=32768*
%ADD10C,0.00800*%
%ADD11R,0.16500X0.07000*%
%ADD12R,0.16500X0.10500*%
%ADD13R,0.02362X0.01969*%
%ADD14R,0.01969X0.02362*%
%ADD15R,0.05512X0.04528*%
%ADD16C,0.01181*%
%ADD17R,0.03150X0.03150*%
%ADD18C,0.01000*%
%ADD19C,0.02000*%
%ADD20C,0.00500*%
%ADD21C,0.01500*%
%ADD22C,0.05906*%
%ADD23R,0.05906X0.05906*%
%ADD24C,0.15748*%
%ADD25C,0.02000*%
%ADD26C,0.01800*%
%ADD27C,0.01150*%
%ADD28C,0.02400*%
%ADD29C,0.04000*%
%ADD30C,0.04543*%
%ADD31C,0.02200*%
D26*
X72531Y77148D02*
D03*
X78830Y75573D02*
D03*
Y77148D02*
D03*
X77255D02*
D03*
Y79014D02*
D03*
X75680Y75573D02*
D03*
X74106D02*
D03*
X70956D02*
D03*
D29*
X0Y0D02*
Y157480D01*
X157480D01*
Y0D02*
Y157480D01*
X0Y0D02*
X157480D01*
D30*
X109370Y40200D02*
D03*
X99370D02*
D03*
X79370D02*
D03*
X69370D02*
D03*
X59370D02*
D03*
X39370D02*
D03*
X119370Y30200D02*
D03*
X109370D02*
D03*
X99370D02*
D03*
X79370D02*
D03*
X69370D02*
D03*
X59370D02*
D03*
X39370D02*
D03*
D31*
X75400Y85500D02*
D03*
X76200Y97400D02*
D03*
X74000Y97300D02*
D03*
X75600Y91800D02*
D03*
X73000D02*
D03*
X72531Y85500D02*
D03*
X78830Y84530D02*
D03*
X114700Y56200D02*
D03*
X67700D02*
D03*
M02*
