M48
;Layer_Color=9474304
;FILE_FORMAT=2:5
INCH,TZ
;TYPE=PLATED
T1F00S00C0.00800
T2F00S00C0.01200
T3F00S00C0.03543
T4F00S00C0.08661
%
T01
X70956Y75573
X72531
X74106
X75680
X77255
X78830
Y77148
X77255
X75680
X72531
X77255Y79014
T02
X146900Y4700
X148200Y8600
X152100Y8700
X152700Y4400
X152600Y14900
X148400Y13900
X150500Y19600
X144800Y20000
X145100Y65700
X144200Y71100
X148700Y72300
X150100Y68300
X153100Y70600
X152800Y75900
X148700Y79300
X147000Y84700
X152400Y84400
X149200Y89500
X144600Y91700
X152400Y64900
X139800Y66800
X139300Y73200
X143300Y77300
X141700Y82700
X137100Y80500
X141200Y89100
X128300Y90200
X125100Y85700
X119200Y85600
X111400Y85800
X104900Y85600
X98500Y85900
X92600Y85700
X86300Y86200
X84900Y89300
X82300Y84059
X78830Y84530
X75400Y85500
X72531
X66945Y84600
X62000Y85000
X54500Y85100
X49000
X42500Y85300
X37900
X32200Y85700
X28300Y89100
X15400Y90500
X11200Y89400
X11700Y84300
X5700Y84000
X5500Y78900
X5100Y72300
X6500Y67000
X11500Y70300
X11900Y76700
X18300Y79200
X18400Y73100
X18300Y66400
X13100Y65000
X28800Y63400
Y58200
X28900Y52100
X27600Y47300
X24100Y41400
X24500Y34000
Y27200
X26600Y19500
X26000Y12900
X19700Y12700
X19500Y19200
X12200Y19900
X5700Y19400
X5900Y12200
X5500Y6000
X11900Y5900
X12400Y12000
X19000Y6300
X26000Y6000
X49500Y5100
X54400Y5300
X55000Y11800
X55500Y19800
X51100Y17200
X48700Y22400
X66200Y20400
X65400Y13000
X66600Y5300
X72500Y4600
X78800Y5600
X80000Y12200
X74700Y11800
X75300Y20000
X84700Y20700
X85200Y13300
X93700Y14400
X94000Y20300
X100400Y19800
X107300Y20700
X104100Y11600
X106400Y4600
X99700Y4900
X90300Y5400
X129400Y12300
X133900Y12400
X139700
X141300Y16500
X135100Y24300
X131700Y25900
X127700Y28400
X128500Y21100
X132800Y31700
X136900Y29500
X134600Y37300
Y43700
X129600Y41300
X123800Y42600
X122300Y47900
X124500Y53300
X124100Y57400
X119800Y55100
X114700Y56200
X116700Y60500
X112900Y62300
X115100Y66800
X121400Y66400
X120700Y63300
X129000Y64500
X129600Y58700
X129200Y53500
X130600Y49300
X125400Y36100
X121500Y34700
X107700Y49900
X103800Y55000
X97100Y57000
X94600Y53300
X90800Y52300
X91084Y55484
X86369Y51432
X77700Y54200
X77600Y62100
X67700Y56200
X60100Y63600
X55800Y61500
X50700Y61200
X52600Y56100
X47900Y54100
X49500Y48500
X43200Y49100
X36900Y48900
X35700Y55000
X35300Y60400
X35600Y66300
X41700Y68200
X43100Y73900
X49000
X54100Y74100
X60300Y73900
X58200Y68800
X51300Y69000
X45700Y65100
X40900Y61600
X42100Y55800
X36300Y73800
X30600
X28300Y69900
X5200Y90800
X63700Y90900
X66000Y76300
X73290Y79491
X83400Y76100
X87500Y75000
X92500Y75100
X91600Y72000
X96600Y74800
X104100Y74500
X111200Y74300
X117700Y74000
X124500Y73800
X129700Y71400
X106100Y67000
X106400Y61600
X100232Y61831
X99300Y50700
X96000Y94200
X99300Y100100
X91300Y103000
X84400Y104100
X83800Y99000
X86200Y94700
X76200Y97400
X74000Y97300
X73000Y91800
X75600
X64800Y95700
X64700Y101200
X67800Y105900
X72800Y108000
X79100
X80700Y116200
X88800Y110400
X96400Y108300
X101800Y115000
X102900Y121900
X108600Y118900
X114100Y115000
X120600Y118800
X127000Y118300
X131000Y113500
X133600Y120600
X131700Y131400
X133800Y139900
X143300Y140200
X141900Y136700
X142600Y149600
X139100Y153000
X135600Y148200
X130300Y152800
X104500Y152500
X97800Y150300
X99400Y143700
X105100Y143400
X100300Y133700
X108800Y131800
X119900Y132100
X124000Y126200
X115700Y125700
X94300Y128100
X90100Y132300
X87700Y140000
X80300Y135500
X78400Y129500
X72000Y122200
X62000Y122300
X56800Y123100
X50700Y122800
X50100Y116100
X56200Y114600
X65800Y114000
X58200Y105100
X52900Y100700
X52100Y93100
X46500
X36600Y93500
X29700Y93800
X30800Y97700
X29300Y105400
X26500Y110600
X23300Y116000
X23400Y122000
X23500Y125400
X23100Y131600
X21000Y134900
X15200Y135900
X10900Y136100
X4800
X8400Y144100
X13700Y143600
X21000Y142300
X23300Y146200
X23500Y151500
X16700Y150000
X12200Y151600
X8400Y150500
X26800Y137500
X31100Y133300
X28900Y126600
X29500Y119100
X35500Y120200
X35700Y125200
X42000Y123400
X40300Y130600
X49400Y131400
X50200Y137900
X51900Y143800
X56400Y139900
X63100Y143500
X61300Y149300
X55100Y150100
X50200Y152500
X67100
X70400Y148900
X76300Y152200
X79800Y148800
X89500Y151500
X90600Y122100
X109400Y105700
X119700Y105600
X127500Y105200
X126900Y96900
X120800Y95300
X115300Y98300
X107700Y95600
X42800Y106100
X36400Y104300
X36500Y112700
X44000Y113800
X57000Y130100
X65800Y134100
X69400Y140100
X150000Y142200
X150400Y137500
X150800Y151400
X152800Y91800
T03
X39370Y30200
Y40200
X49370
X59370
X69370
X79370
X89370
X99370
X109370
X119370
Y30200
X109370
X99370
X89370
X79370
X69370
X59370
X49370
T04
X39370Y11811
X118110
Y145669
X39370
M30
