%FSLAX25Y25*%
%MOIN*%
G70*
G01*
G75*
%ADD10C,0.00800*%
%ADD11R,0.16500X0.07000*%
%ADD12R,0.16500X0.10500*%
%ADD13R,0.02362X0.01969*%
%ADD14R,0.01969X0.02362*%
%ADD15R,0.05512X0.04528*%
%ADD16C,0.01181*%
%ADD17R,0.03150X0.03150*%
%ADD18C,0.01000*%
%ADD19C,0.02000*%
%ADD20C,0.00500*%
%ADD21C,0.01500*%
%ADD22C,0.05906*%
%ADD23R,0.05906X0.05906*%
%ADD24C,0.15748*%
%ADD25C,0.02000*%
%ADD26C,0.01800*%
%ADD27C,0.01150*%
%ADD28C,0.02400*%
%ADD29C,0.04000*%
%ADD30C,0.04543*%
%ADD31C,0.02200*%
%ADD32C,0.09661*%
%ADD33R,0.17000X0.11500*%
%ADD34C,0.00787*%
%ADD35C,0.00394*%
%ADD36C,0.00600*%
G36*
X27706Y106200D02*
X21438D01*
Y121493D01*
X27706D01*
Y106200D01*
D02*
G37*
G36*
X28106Y35100D02*
X21838D01*
Y50467D01*
X28106D01*
Y35100D01*
D02*
G37*
G36*
X135705Y32663D02*
X129394D01*
Y52000D01*
X135705D01*
Y32663D01*
D02*
G37*
G36*
X135305Y106537D02*
X128994D01*
Y125800D01*
X135305D01*
Y106537D01*
D02*
G37*
%LPC*%
G36*
X133762Y114351D02*
X133329D01*
Y113598D01*
X131200D01*
Y113080D01*
X133329D01*
Y112327D01*
X133762D01*
Y114351D01*
D02*
G37*
G36*
X130814Y112284D02*
X130494D01*
Y110244D01*
X130814D01*
Y112284D01*
D02*
G37*
G36*
X133762Y121718D02*
X131200D01*
Y121200D01*
X132288D01*
Y120131D01*
X132721D01*
Y121200D01*
X133329D01*
Y119963D01*
X133762D01*
Y121718D01*
D02*
G37*
G36*
Y124300D02*
X131200D01*
Y123781D01*
X132269D01*
Y123680D01*
Y123617D01*
X132265Y123563D01*
X132261Y123520D01*
X132253Y123485D01*
X132249Y123458D01*
X132241Y123438D01*
X132237Y123426D01*
Y123423D01*
X132226Y123391D01*
X132210Y123364D01*
X132175Y123313D01*
X132159Y123294D01*
X132144Y123278D01*
X132136Y123270D01*
X132132Y123266D01*
X132116Y123251D01*
X132093Y123235D01*
X132038Y123192D01*
X131980Y123146D01*
X131914Y123103D01*
X131851Y123060D01*
X131828Y123040D01*
X131801Y123025D01*
X131781Y123013D01*
X131765Y123001D01*
X131758Y122997D01*
X131754Y122994D01*
X131200Y122627D01*
Y122007D01*
X131699Y122319D01*
X131754Y122354D01*
X131801Y122385D01*
X131847Y122412D01*
X131890Y122444D01*
X131960Y122490D01*
X132019Y122533D01*
X132062Y122568D01*
X132089Y122592D01*
X132109Y122607D01*
X132113Y122611D01*
X132156Y122654D01*
X132194Y122701D01*
X132234Y122748D01*
X132265Y122791D01*
X132292Y122830D01*
X132311Y122861D01*
X132323Y122880D01*
X132327Y122884D01*
Y122888D01*
X132339Y122826D01*
X132351Y122771D01*
X132366Y122717D01*
X132386Y122670D01*
X132405Y122623D01*
X132425Y122580D01*
X132444Y122545D01*
X132464Y122510D01*
X132483Y122483D01*
X132503Y122455D01*
X132522Y122436D01*
X132534Y122416D01*
X132549Y122405D01*
X132557Y122393D01*
X132561Y122385D01*
X132565D01*
X132600Y122354D01*
X132639Y122327D01*
X132717Y122288D01*
X132799Y122256D01*
X132873Y122233D01*
X132939Y122221D01*
X132967Y122217D01*
X132994D01*
X133013Y122213D01*
X133041D01*
X133123Y122217D01*
X133201Y122229D01*
X133267Y122249D01*
X133326Y122268D01*
X133376Y122292D01*
X133411Y122307D01*
X133435Y122323D01*
X133442Y122327D01*
X133505Y122373D01*
X133556Y122420D01*
X133598Y122471D01*
X133634Y122518D01*
X133661Y122561D01*
X133680Y122596D01*
X133688Y122619D01*
X133692Y122623D01*
Y122627D01*
X133704Y122662D01*
X133715Y122705D01*
X133731Y122799D01*
X133747Y122896D01*
X133755Y122994D01*
X133758Y123036D01*
Y123079D01*
Y123118D01*
X133762Y123153D01*
Y123181D01*
Y123200D01*
Y123216D01*
Y123220D01*
Y124300D01*
D02*
G37*
G36*
Y116753D02*
X132315D01*
X132241Y116750D01*
X132171D01*
X132109Y116746D01*
X132050Y116742D01*
X131996Y116738D01*
X131949Y116734D01*
X131906Y116730D01*
X131867Y116726D01*
X131836Y116722D01*
X131805Y116718D01*
X131785Y116715D01*
X131765Y116711D01*
X131754Y116707D01*
X131742D01*
X131687Y116691D01*
X131637Y116668D01*
X131586Y116644D01*
X131543Y116621D01*
X131508Y116597D01*
X131481Y116578D01*
X131465Y116566D01*
X131457Y116562D01*
X131411Y116516D01*
X131364Y116469D01*
X131329Y116418D01*
X131294Y116371D01*
X131270Y116328D01*
X131251Y116293D01*
X131239Y116270D01*
X131235Y116266D01*
Y116262D01*
X131219Y116223D01*
X131208Y116184D01*
X131188Y116094D01*
X131173Y116005D01*
X131165Y115915D01*
X131157Y115833D01*
Y115798D01*
X131153Y115767D01*
Y115743D01*
Y115724D01*
Y115712D01*
Y115708D01*
X131157Y115599D01*
X131165Y115502D01*
X131177Y115420D01*
X131192Y115349D01*
X131204Y115291D01*
X131212Y115268D01*
X131216Y115252D01*
X131219Y115236D01*
X131223Y115225D01*
X131227Y115221D01*
Y115217D01*
X131258Y115151D01*
X131294Y115092D01*
X131329Y115041D01*
X131364Y114995D01*
X131391Y114963D01*
X131414Y114936D01*
X131434Y114920D01*
X131438Y114917D01*
X131489Y114878D01*
X131543Y114842D01*
X131598Y114819D01*
X131649Y114796D01*
X131695Y114780D01*
X131730Y114768D01*
X131754Y114761D01*
X131762D01*
X131801Y114753D01*
X131843Y114745D01*
X131894Y114741D01*
X131945Y114737D01*
X132050Y114729D01*
X132159Y114722D01*
X132257D01*
X132300Y114718D01*
X133762D01*
Y115236D01*
X132234D01*
X132187Y115240D01*
X132144D01*
X132066Y115244D01*
X132007Y115248D01*
X131960Y115252D01*
X131929Y115256D01*
X131910Y115260D01*
X131902D01*
X131855Y115271D01*
X131812Y115291D01*
X131777Y115314D01*
X131746Y115338D01*
X131719Y115357D01*
X131699Y115377D01*
X131687Y115392D01*
X131684Y115396D01*
X131652Y115443D01*
X131633Y115494D01*
X131617Y115548D01*
X131606Y115599D01*
X131598Y115650D01*
X131594Y115689D01*
Y115704D01*
Y115716D01*
Y115720D01*
Y115724D01*
X131598Y115798D01*
X131609Y115868D01*
X131625Y115927D01*
X131641Y115973D01*
X131656Y116013D01*
X131672Y116040D01*
X131684Y116055D01*
X131687Y116063D01*
X131727Y116106D01*
X131765Y116137D01*
X131808Y116165D01*
X131851Y116188D01*
X131886Y116200D01*
X131914Y116211D01*
X131933Y116219D01*
X131941D01*
X131960Y116223D01*
X131988D01*
X132050Y116227D01*
X132120Y116231D01*
X132191D01*
X132261Y116235D01*
X133762D01*
Y116753D01*
D02*
G37*
G36*
X132526Y119640D02*
X132460D01*
X132347Y119636D01*
X132241Y119624D01*
X132144Y119608D01*
X132050Y119589D01*
X131964Y119562D01*
X131886Y119534D01*
X131816Y119503D01*
X131750Y119472D01*
X131691Y119441D01*
X131641Y119409D01*
X131598Y119382D01*
X131563Y119355D01*
X131535Y119335D01*
X131516Y119320D01*
X131504Y119308D01*
X131500Y119304D01*
X131438Y119238D01*
X131387Y119168D01*
X131340Y119097D01*
X131301Y119019D01*
X131266Y118945D01*
X131239Y118871D01*
X131216Y118797D01*
X131196Y118727D01*
X131181Y118661D01*
X131173Y118598D01*
X131165Y118540D01*
X131157Y118493D01*
Y118454D01*
X131153Y118423D01*
Y118407D01*
Y118399D01*
X131157Y118294D01*
X131169Y118196D01*
X131184Y118107D01*
X131208Y118021D01*
X131235Y117939D01*
X131262Y117865D01*
X131294Y117799D01*
X131329Y117736D01*
X131360Y117682D01*
X131391Y117635D01*
X131418Y117592D01*
X131446Y117561D01*
X131469Y117534D01*
X131485Y117514D01*
X131496Y117502D01*
X131500Y117498D01*
X131570Y117440D01*
X131645Y117385D01*
X131723Y117342D01*
X131801Y117303D01*
X131883Y117268D01*
X131964Y117241D01*
X132042Y117218D01*
X132120Y117202D01*
X132191Y117186D01*
X132261Y117179D01*
X132319Y117171D01*
X132374Y117163D01*
X132417D01*
X132448Y117159D01*
X132475D01*
X132588Y117163D01*
X132698Y117175D01*
X132799Y117190D01*
X132893Y117214D01*
X132978Y117237D01*
X133056Y117264D01*
X133131Y117296D01*
X133197Y117327D01*
X133255Y117362D01*
X133306Y117389D01*
X133349Y117420D01*
X133384Y117444D01*
X133415Y117467D01*
X133435Y117483D01*
X133446Y117494D01*
X133450Y117498D01*
X133513Y117565D01*
X133567Y117635D01*
X133614Y117709D01*
X133657Y117783D01*
X133688Y117857D01*
X133719Y117935D01*
X133743Y118005D01*
X133762Y118079D01*
X133774Y118146D01*
X133786Y118208D01*
X133793Y118263D01*
X133801Y118310D01*
Y118349D01*
X133805Y118380D01*
Y118395D01*
Y118403D01*
X133801Y118516D01*
X133790Y118622D01*
X133770Y118715D01*
X133755Y118797D01*
X133743Y118832D01*
X133735Y118863D01*
X133723Y118891D01*
X133715Y118914D01*
X133712Y118934D01*
X133704Y118945D01*
X133700Y118953D01*
Y118957D01*
X133669Y119023D01*
X133634Y119086D01*
X133595Y119140D01*
X133556Y119191D01*
X133524Y119230D01*
X133497Y119261D01*
X133478Y119281D01*
X133470Y119289D01*
X133411Y119339D01*
X133349Y119390D01*
X133290Y119429D01*
X133236Y119464D01*
X133189Y119491D01*
X133150Y119511D01*
X133127Y119523D01*
X133123Y119526D01*
X133119D01*
X133013Y119565D01*
X132904Y119593D01*
X132795Y119612D01*
X132690Y119624D01*
X132643Y119632D01*
X132600D01*
X132561Y119636D01*
X132526Y119640D01*
D02*
G37*
G36*
X133762Y109999D02*
X131200D01*
Y109480D01*
X132167D01*
Y109145D01*
Y109082D01*
Y109020D01*
X132171Y108965D01*
Y108914D01*
X132175Y108864D01*
X132179Y108821D01*
X132183Y108782D01*
X132187Y108747D01*
Y108716D01*
X132191Y108688D01*
X132194Y108665D01*
X132198Y108645D01*
Y108630D01*
X132202Y108618D01*
Y108614D01*
Y108610D01*
X132218Y108560D01*
X132234Y108509D01*
X132253Y108466D01*
X132276Y108423D01*
X132292Y108392D01*
X132308Y108365D01*
X132319Y108345D01*
X132323Y108341D01*
X132362Y108294D01*
X132401Y108252D01*
X132444Y108212D01*
X132487Y108181D01*
X132522Y108158D01*
X132549Y108138D01*
X132569Y108127D01*
X132577Y108123D01*
X132639Y108096D01*
X132705Y108072D01*
X132772Y108056D01*
X132834Y108049D01*
X132889Y108041D01*
X132932Y108037D01*
X132971D01*
X133080Y108045D01*
X133177Y108060D01*
X133263Y108084D01*
X133337Y108111D01*
X133392Y108142D01*
X133415Y108154D01*
X133435Y108166D01*
X133450Y108174D01*
X133462Y108181D01*
X133466Y108189D01*
X133470D01*
X133536Y108248D01*
X133591Y108310D01*
X133637Y108369D01*
X133669Y108427D01*
X133696Y108478D01*
X133712Y108521D01*
X133715Y108536D01*
X133719Y108544D01*
X133723Y108552D01*
Y108556D01*
X133731Y108587D01*
X133735Y108622D01*
X133743Y108665D01*
X133747Y108712D01*
X133755Y108813D01*
X133758Y108918D01*
Y108969D01*
X133762Y109016D01*
Y109059D01*
Y109094D01*
Y109129D01*
Y109152D01*
Y109168D01*
Y109172D01*
Y109999D01*
D02*
G37*
G36*
X134162Y40551D02*
X133729D01*
Y39798D01*
X131600D01*
Y39280D01*
X133729D01*
Y38527D01*
X134162D01*
Y40551D01*
D02*
G37*
G36*
X131214Y38484D02*
X130894D01*
Y36444D01*
X131214D01*
Y38484D01*
D02*
G37*
G36*
X134162Y36199D02*
X131600D01*
Y35719D01*
X133281D01*
X131600Y34682D01*
Y34163D01*
X134162D01*
Y34643D01*
X132442D01*
X134162Y35699D01*
Y36199D01*
D02*
G37*
G36*
Y42954D02*
X132715D01*
X132641Y42950D01*
X132571D01*
X132509Y42946D01*
X132450Y42942D01*
X132396Y42938D01*
X132349Y42934D01*
X132306Y42930D01*
X132267Y42926D01*
X132236Y42922D01*
X132204Y42918D01*
X132185Y42915D01*
X132166Y42911D01*
X132154Y42907D01*
X132142D01*
X132088Y42891D01*
X132037Y42868D01*
X131986Y42844D01*
X131943Y42821D01*
X131908Y42797D01*
X131881Y42778D01*
X131865Y42766D01*
X131857Y42762D01*
X131811Y42716D01*
X131764Y42669D01*
X131729Y42618D01*
X131694Y42571D01*
X131670Y42528D01*
X131651Y42493D01*
X131639Y42470D01*
X131635Y42466D01*
Y42462D01*
X131620Y42423D01*
X131608Y42384D01*
X131588Y42294D01*
X131573Y42205D01*
X131565Y42115D01*
X131557Y42033D01*
Y41998D01*
X131553Y41967D01*
Y41943D01*
Y41924D01*
Y41912D01*
Y41908D01*
X131557Y41799D01*
X131565Y41702D01*
X131577Y41620D01*
X131592Y41550D01*
X131604Y41491D01*
X131612Y41468D01*
X131616Y41452D01*
X131620Y41436D01*
X131623Y41425D01*
X131627Y41421D01*
Y41417D01*
X131658Y41351D01*
X131694Y41292D01*
X131729Y41241D01*
X131764Y41195D01*
X131791Y41163D01*
X131815Y41136D01*
X131834Y41120D01*
X131838Y41117D01*
X131889Y41078D01*
X131943Y41043D01*
X131998Y41019D01*
X132048Y40996D01*
X132095Y40980D01*
X132130Y40968D01*
X132154Y40961D01*
X132162D01*
X132201Y40953D01*
X132244Y40945D01*
X132294Y40941D01*
X132345Y40937D01*
X132450Y40929D01*
X132559Y40922D01*
X132657D01*
X132700Y40918D01*
X134162D01*
Y41436D01*
X132633D01*
X132587Y41440D01*
X132544D01*
X132466Y41444D01*
X132407Y41448D01*
X132360Y41452D01*
X132329Y41456D01*
X132310Y41460D01*
X132302D01*
X132255Y41471D01*
X132212Y41491D01*
X132177Y41514D01*
X132146Y41538D01*
X132119Y41557D01*
X132099Y41577D01*
X132088Y41592D01*
X132084Y41596D01*
X132052Y41643D01*
X132033Y41694D01*
X132017Y41748D01*
X132006Y41799D01*
X131998Y41850D01*
X131994Y41889D01*
Y41904D01*
Y41916D01*
Y41920D01*
Y41924D01*
X131998Y41998D01*
X132009Y42068D01*
X132025Y42127D01*
X132041Y42173D01*
X132056Y42213D01*
X132072Y42240D01*
X132084Y42255D01*
X132088Y42263D01*
X132126Y42306D01*
X132166Y42337D01*
X132208Y42365D01*
X132251Y42388D01*
X132286Y42400D01*
X132314Y42411D01*
X132333Y42419D01*
X132341D01*
X132360Y42423D01*
X132388D01*
X132450Y42427D01*
X132520Y42431D01*
X132591D01*
X132661Y42435D01*
X134162D01*
Y42954D01*
D02*
G37*
G36*
Y50500D02*
X131600D01*
Y49981D01*
X132669D01*
Y49880D01*
Y49817D01*
X132665Y49763D01*
X132661Y49720D01*
X132653Y49685D01*
X132649Y49658D01*
X132641Y49638D01*
X132637Y49626D01*
Y49622D01*
X132626Y49591D01*
X132610Y49564D01*
X132575Y49513D01*
X132559Y49494D01*
X132544Y49478D01*
X132536Y49470D01*
X132532Y49466D01*
X132517Y49451D01*
X132493Y49435D01*
X132439Y49392D01*
X132380Y49346D01*
X132314Y49303D01*
X132251Y49260D01*
X132228Y49240D01*
X132201Y49225D01*
X132181Y49213D01*
X132166Y49201D01*
X132158Y49197D01*
X132154Y49194D01*
X131600Y48827D01*
Y48207D01*
X132099Y48519D01*
X132154Y48554D01*
X132201Y48585D01*
X132247Y48612D01*
X132290Y48644D01*
X132360Y48690D01*
X132419Y48733D01*
X132462Y48768D01*
X132489Y48792D01*
X132509Y48807D01*
X132513Y48811D01*
X132555Y48854D01*
X132595Y48901D01*
X132633Y48948D01*
X132665Y48991D01*
X132692Y49030D01*
X132712Y49061D01*
X132723Y49080D01*
X132727Y49084D01*
Y49088D01*
X132739Y49026D01*
X132750Y48971D01*
X132766Y48917D01*
X132786Y48870D01*
X132805Y48823D01*
X132825Y48780D01*
X132844Y48745D01*
X132864Y48710D01*
X132883Y48683D01*
X132903Y48655D01*
X132922Y48636D01*
X132934Y48616D01*
X132949Y48605D01*
X132957Y48593D01*
X132961Y48585D01*
X132965D01*
X133000Y48554D01*
X133039Y48527D01*
X133117Y48488D01*
X133199Y48456D01*
X133273Y48433D01*
X133339Y48421D01*
X133367Y48417D01*
X133394D01*
X133414Y48414D01*
X133441D01*
X133523Y48417D01*
X133601Y48429D01*
X133667Y48449D01*
X133726Y48468D01*
X133776Y48491D01*
X133811Y48507D01*
X133835Y48523D01*
X133843Y48527D01*
X133905Y48573D01*
X133956Y48620D01*
X133999Y48671D01*
X134034Y48718D01*
X134061Y48761D01*
X134080Y48796D01*
X134088Y48819D01*
X134092Y48823D01*
Y48827D01*
X134104Y48862D01*
X134116Y48905D01*
X134131Y48998D01*
X134147Y49096D01*
X134154Y49194D01*
X134158Y49236D01*
Y49279D01*
Y49318D01*
X134162Y49353D01*
Y49381D01*
Y49400D01*
Y49416D01*
Y49420D01*
Y50500D01*
D02*
G37*
G36*
Y47918D02*
X131600D01*
Y47400D01*
X132688D01*
Y46331D01*
X133121D01*
Y47400D01*
X133729D01*
Y46163D01*
X134162D01*
Y47918D01*
D02*
G37*
G36*
X132926Y45840D02*
X132860D01*
X132747Y45836D01*
X132641Y45824D01*
X132544Y45808D01*
X132450Y45789D01*
X132364Y45761D01*
X132286Y45734D01*
X132216Y45703D01*
X132150Y45672D01*
X132091Y45641D01*
X132041Y45609D01*
X131998Y45582D01*
X131963Y45555D01*
X131935Y45535D01*
X131916Y45520D01*
X131904Y45508D01*
X131900Y45504D01*
X131838Y45438D01*
X131787Y45368D01*
X131740Y45297D01*
X131701Y45219D01*
X131666Y45145D01*
X131639Y45071D01*
X131616Y44997D01*
X131596Y44927D01*
X131580Y44861D01*
X131573Y44798D01*
X131565Y44740D01*
X131557Y44693D01*
Y44654D01*
X131553Y44623D01*
Y44607D01*
Y44599D01*
X131557Y44494D01*
X131569Y44396D01*
X131584Y44307D01*
X131608Y44221D01*
X131635Y44139D01*
X131662Y44065D01*
X131694Y43999D01*
X131729Y43936D01*
X131760Y43882D01*
X131791Y43835D01*
X131818Y43792D01*
X131846Y43761D01*
X131869Y43734D01*
X131885Y43714D01*
X131896Y43702D01*
X131900Y43698D01*
X131971Y43640D01*
X132045Y43585D01*
X132123Y43542D01*
X132201Y43503D01*
X132282Y43468D01*
X132364Y43441D01*
X132442Y43418D01*
X132520Y43402D01*
X132591Y43386D01*
X132661Y43379D01*
X132719Y43371D01*
X132774Y43363D01*
X132817D01*
X132848Y43359D01*
X132875D01*
X132988Y43363D01*
X133098Y43375D01*
X133199Y43390D01*
X133293Y43414D01*
X133378Y43437D01*
X133456Y43464D01*
X133530Y43496D01*
X133597Y43527D01*
X133655Y43562D01*
X133706Y43589D01*
X133749Y43620D01*
X133784Y43644D01*
X133815Y43667D01*
X133835Y43683D01*
X133846Y43694D01*
X133850Y43698D01*
X133913Y43765D01*
X133967Y43835D01*
X134014Y43909D01*
X134057Y43983D01*
X134088Y44057D01*
X134119Y44135D01*
X134143Y44205D01*
X134162Y44280D01*
X134174Y44346D01*
X134186Y44408D01*
X134194Y44463D01*
X134201Y44510D01*
Y44549D01*
X134205Y44580D01*
Y44595D01*
Y44603D01*
X134201Y44716D01*
X134190Y44822D01*
X134170Y44915D01*
X134154Y44997D01*
X134143Y45032D01*
X134135Y45063D01*
X134123Y45091D01*
X134116Y45114D01*
X134112Y45134D01*
X134104Y45145D01*
X134100Y45153D01*
Y45157D01*
X134069Y45223D01*
X134034Y45286D01*
X133995Y45340D01*
X133956Y45391D01*
X133924Y45430D01*
X133897Y45461D01*
X133878Y45481D01*
X133870Y45489D01*
X133811Y45539D01*
X133749Y45590D01*
X133690Y45629D01*
X133636Y45664D01*
X133589Y45691D01*
X133550Y45711D01*
X133527Y45722D01*
X133523Y45726D01*
X133519D01*
X133414Y45765D01*
X133304Y45793D01*
X133195Y45812D01*
X133090Y45824D01*
X133043Y45832D01*
X133000D01*
X132961Y45836D01*
X132926Y45840D01*
D02*
G37*
G36*
X25900Y38893D02*
X25401Y38581D01*
X25346Y38546D01*
X25299Y38515D01*
X25253Y38488D01*
X25210Y38456D01*
X25139Y38410D01*
X25081Y38367D01*
X25038Y38332D01*
X25011Y38308D01*
X24991Y38293D01*
X24987Y38289D01*
X24945Y38246D01*
X24905Y38199D01*
X24867Y38152D01*
X24835Y38109D01*
X24808Y38070D01*
X24789Y38039D01*
X24777Y38020D01*
X24773Y38016D01*
Y38012D01*
X24761Y38074D01*
X24749Y38129D01*
X24734Y38183D01*
X24714Y38230D01*
X24695Y38277D01*
X24675Y38320D01*
X24656Y38355D01*
X24636Y38390D01*
X24617Y38417D01*
X24597Y38445D01*
X24578Y38464D01*
X24566Y38484D01*
X24551Y38495D01*
X24543Y38507D01*
X24539Y38515D01*
X24535D01*
X24500Y38546D01*
X24461Y38573D01*
X24383Y38612D01*
X24301Y38644D01*
X24227Y38667D01*
X24161Y38679D01*
X24133Y38683D01*
X24106D01*
X24087Y38686D01*
X24059D01*
X23977Y38683D01*
X23899Y38671D01*
X23833Y38651D01*
X23775Y38632D01*
X23724Y38609D01*
X23689Y38593D01*
X23665Y38577D01*
X23658Y38573D01*
X23595Y38527D01*
X23544Y38480D01*
X23502Y38429D01*
X23466Y38382D01*
X23439Y38339D01*
X23420Y38304D01*
X23412Y38281D01*
X23408Y38277D01*
Y38273D01*
X23396Y38238D01*
X23384Y38195D01*
X23369Y38102D01*
X23353Y38004D01*
X23346Y37907D01*
X23342Y37864D01*
Y37821D01*
Y37782D01*
X23338Y37747D01*
Y37719D01*
Y37700D01*
Y37684D01*
Y37680D01*
Y36600D01*
X25900D01*
Y37119D01*
X24831D01*
Y37220D01*
Y37282D01*
X24835Y37337D01*
X24839Y37380D01*
X24847Y37415D01*
X24851Y37442D01*
X24859Y37462D01*
X24863Y37474D01*
Y37477D01*
X24874Y37509D01*
X24890Y37536D01*
X24925Y37587D01*
X24941Y37606D01*
X24956Y37622D01*
X24964Y37630D01*
X24968Y37633D01*
X24983Y37649D01*
X25007Y37665D01*
X25062Y37708D01*
X25120Y37754D01*
X25186Y37797D01*
X25249Y37840D01*
X25272Y37860D01*
X25299Y37875D01*
X25319Y37887D01*
X25335Y37899D01*
X25342Y37903D01*
X25346Y37907D01*
X25900Y38273D01*
Y38893D01*
D02*
G37*
G36*
X23771Y40937D02*
X23338D01*
Y39182D01*
X25900D01*
Y39700D01*
X24812D01*
Y40769D01*
X24379D01*
Y39700D01*
X23771D01*
Y40937D01*
D02*
G37*
G36*
X26206Y117785D02*
X25886D01*
Y115746D01*
X26206D01*
Y117785D01*
D02*
G37*
G36*
X23768Y119993D02*
X23729D01*
X23620Y119985D01*
X23523Y119969D01*
X23437Y119946D01*
X23363Y119919D01*
X23308Y119887D01*
X23285Y119876D01*
X23265Y119864D01*
X23250Y119856D01*
X23238Y119849D01*
X23234Y119841D01*
X23230D01*
X23164Y119782D01*
X23109Y119720D01*
X23063Y119661D01*
X23031Y119603D01*
X23004Y119552D01*
X22988Y119509D01*
X22985Y119494D01*
X22981Y119486D01*
X22977Y119478D01*
Y119474D01*
X22969Y119443D01*
X22965Y119408D01*
X22957Y119365D01*
X22953Y119318D01*
X22945Y119217D01*
X22942Y119111D01*
Y119061D01*
X22938Y119014D01*
Y118971D01*
Y118936D01*
Y118901D01*
Y118877D01*
Y118862D01*
Y118858D01*
Y118031D01*
X25500D01*
Y118550D01*
X24533D01*
Y118885D01*
Y118948D01*
Y119010D01*
X24529Y119065D01*
Y119115D01*
X24525Y119166D01*
X24521Y119209D01*
X24517Y119248D01*
X24513Y119283D01*
Y119314D01*
X24509Y119342D01*
X24506Y119365D01*
X24502Y119384D01*
Y119400D01*
X24498Y119412D01*
Y119416D01*
Y119420D01*
X24482Y119470D01*
X24466Y119521D01*
X24447Y119564D01*
X24424Y119607D01*
X24408Y119638D01*
X24392Y119665D01*
X24381Y119685D01*
X24377Y119689D01*
X24338Y119735D01*
X24299Y119778D01*
X24256Y119817D01*
X24213Y119849D01*
X24178Y119872D01*
X24151Y119891D01*
X24131Y119903D01*
X24123Y119907D01*
X24061Y119934D01*
X23995Y119958D01*
X23928Y119973D01*
X23866Y119981D01*
X23811Y119989D01*
X23768Y119993D01*
D02*
G37*
G36*
X26606Y46685D02*
X26286D01*
Y44646D01*
X26606D01*
Y46685D01*
D02*
G37*
G36*
X25900Y48967D02*
X23338D01*
Y48487D01*
X25058D01*
X23338Y47430D01*
Y46931D01*
X25900D01*
Y47411D01*
X24219D01*
X25900Y48448D01*
Y48967D01*
D02*
G37*
G36*
Y41869D02*
X23338D01*
Y41350D01*
X25900D01*
Y41869D01*
D02*
G37*
G36*
Y44396D02*
X23338D01*
Y43916D01*
X25058D01*
X23338Y42860D01*
Y42360D01*
X25900D01*
Y42840D01*
X24219D01*
X25900Y43877D01*
Y44396D01*
D02*
G37*
G36*
X23371Y112037D02*
X22938D01*
Y110282D01*
X25500D01*
Y110801D01*
X24412D01*
Y111869D01*
X23979D01*
Y110801D01*
X23371D01*
Y112037D01*
D02*
G37*
G36*
X25500Y109993D02*
X25001Y109681D01*
X24946Y109646D01*
X24899Y109615D01*
X24853Y109588D01*
X24810Y109556D01*
X24739Y109510D01*
X24681Y109467D01*
X24638Y109432D01*
X24611Y109408D01*
X24591Y109393D01*
X24587Y109389D01*
X24544Y109346D01*
X24506Y109299D01*
X24466Y109252D01*
X24435Y109209D01*
X24408Y109170D01*
X24388Y109139D01*
X24377Y109120D01*
X24373Y109116D01*
Y109112D01*
X24361Y109174D01*
X24350Y109229D01*
X24334Y109283D01*
X24314Y109330D01*
X24295Y109377D01*
X24275Y109420D01*
X24256Y109455D01*
X24236Y109490D01*
X24217Y109517D01*
X24197Y109545D01*
X24178Y109564D01*
X24166Y109584D01*
X24151Y109595D01*
X24143Y109607D01*
X24139Y109615D01*
X24135D01*
X24100Y109646D01*
X24061Y109673D01*
X23983Y109712D01*
X23901Y109744D01*
X23827Y109767D01*
X23761Y109779D01*
X23733Y109783D01*
X23706D01*
X23686Y109786D01*
X23659D01*
X23577Y109783D01*
X23499Y109771D01*
X23433Y109751D01*
X23374Y109732D01*
X23324Y109708D01*
X23289Y109693D01*
X23265Y109677D01*
X23257Y109673D01*
X23195Y109627D01*
X23144Y109580D01*
X23101Y109529D01*
X23066Y109482D01*
X23039Y109439D01*
X23020Y109404D01*
X23012Y109381D01*
X23008Y109377D01*
Y109373D01*
X22996Y109338D01*
X22985Y109295D01*
X22969Y109202D01*
X22953Y109104D01*
X22945Y109007D01*
X22942Y108964D01*
Y108921D01*
Y108882D01*
X22938Y108847D01*
Y108819D01*
Y108800D01*
Y108784D01*
Y108780D01*
Y107700D01*
X25500D01*
Y108219D01*
X24431D01*
Y108320D01*
Y108382D01*
X24435Y108437D01*
X24439Y108480D01*
X24447Y108515D01*
X24451Y108542D01*
X24459Y108562D01*
X24463Y108574D01*
Y108578D01*
X24474Y108609D01*
X24490Y108636D01*
X24525Y108687D01*
X24541Y108706D01*
X24556Y108722D01*
X24564Y108730D01*
X24568Y108733D01*
X24584Y108749D01*
X24607Y108765D01*
X24661Y108808D01*
X24720Y108854D01*
X24786Y108897D01*
X24849Y108940D01*
X24872Y108960D01*
X24899Y108975D01*
X24919Y108987D01*
X24935Y108999D01*
X24942Y109003D01*
X24946Y109007D01*
X25500Y109373D01*
Y109993D01*
D02*
G37*
G36*
Y112969D02*
X22938D01*
Y112450D01*
X25500D01*
Y112969D01*
D02*
G37*
G36*
Y115496D02*
X22938D01*
Y115016D01*
X24658D01*
X22938Y113960D01*
Y113460D01*
X25500D01*
Y113940D01*
X23819D01*
X25500Y114977D01*
Y115496D01*
D02*
G37*
%LPD*%
G36*
X133329Y123383D02*
Y123329D01*
Y123278D01*
Y123231D01*
Y123192D01*
X133326Y123157D01*
Y123126D01*
Y123103D01*
Y123079D01*
X133322Y123044D01*
Y123025D01*
X133318Y123013D01*
Y123009D01*
X133306Y122966D01*
X133294Y122927D01*
X133279Y122896D01*
X133259Y122869D01*
X133244Y122845D01*
X133228Y122830D01*
X133220Y122822D01*
X133216Y122818D01*
X133185Y122795D01*
X133150Y122779D01*
X133115Y122763D01*
X133084Y122756D01*
X133056Y122752D01*
X133033Y122748D01*
X133010D01*
X132967Y122752D01*
X132932Y122756D01*
X132896Y122763D01*
X132869Y122775D01*
X132846Y122787D01*
X132830Y122795D01*
X132818Y122799D01*
X132815Y122802D01*
X132787Y122822D01*
X132768Y122845D01*
X132733Y122892D01*
X132725Y122915D01*
X132717Y122931D01*
X132709Y122943D01*
Y122947D01*
X132705Y122966D01*
X132698Y122994D01*
X132694Y123021D01*
X132690Y123056D01*
X132686Y123130D01*
X132682Y123208D01*
X132678Y123282D01*
Y123313D01*
Y123345D01*
Y123368D01*
Y123387D01*
Y123399D01*
Y123403D01*
Y123781D01*
X133329D01*
Y123383D01*
D02*
G37*
G36*
X23733Y109248D02*
X23768Y109244D01*
X23803Y109237D01*
X23831Y109225D01*
X23854Y109213D01*
X23870Y109205D01*
X23881Y109202D01*
X23885Y109198D01*
X23913Y109178D01*
X23932Y109155D01*
X23967Y109108D01*
X23975Y109084D01*
X23983Y109069D01*
X23991Y109057D01*
Y109053D01*
X23995Y109034D01*
X24002Y109007D01*
X24006Y108979D01*
X24010Y108944D01*
X24014Y108870D01*
X24018Y108792D01*
X24022Y108718D01*
Y108687D01*
Y108656D01*
Y108632D01*
Y108613D01*
Y108601D01*
Y108597D01*
Y108219D01*
X23371D01*
Y108616D01*
Y108671D01*
Y108722D01*
Y108769D01*
Y108808D01*
X23374Y108843D01*
Y108874D01*
Y108897D01*
Y108921D01*
X23378Y108956D01*
Y108975D01*
X23382Y108987D01*
Y108991D01*
X23394Y109034D01*
X23406Y109073D01*
X23421Y109104D01*
X23441Y109131D01*
X23456Y109155D01*
X23472Y109170D01*
X23480Y109178D01*
X23484Y109182D01*
X23515Y109205D01*
X23550Y109221D01*
X23585Y109237D01*
X23616Y109244D01*
X23644Y109248D01*
X23667Y109252D01*
X23690D01*
X23733Y109248D01*
D02*
G37*
G36*
X132561Y119101D02*
X132635Y119097D01*
X132705Y119086D01*
X132772Y119074D01*
X132830Y119062D01*
X132885Y119043D01*
X132936Y119027D01*
X132978Y119008D01*
X133017Y118992D01*
X133049Y118973D01*
X133080Y118957D01*
X133103Y118945D01*
X133119Y118930D01*
X133131Y118922D01*
X133138Y118918D01*
X133142Y118914D01*
X133181Y118875D01*
X133216Y118836D01*
X133244Y118793D01*
X133271Y118750D01*
X133294Y118707D01*
X133310Y118665D01*
X133337Y118583D01*
X133353Y118512D01*
X133357Y118481D01*
X133361Y118454D01*
X133364Y118430D01*
Y118415D01*
Y118403D01*
Y118399D01*
X133361Y118341D01*
X133357Y118286D01*
X133329Y118185D01*
X133294Y118095D01*
X133255Y118025D01*
X133236Y117994D01*
X133216Y117966D01*
X133197Y117943D01*
X133181Y117923D01*
X133166Y117908D01*
X133154Y117896D01*
X133150Y117892D01*
X133146Y117888D01*
X133103Y117853D01*
X133056Y117822D01*
X133006Y117799D01*
X132951Y117775D01*
X132842Y117740D01*
X132737Y117717D01*
X132686Y117709D01*
X132639Y117705D01*
X132596Y117697D01*
X132561D01*
X132530Y117693D01*
X132487D01*
X132405Y117697D01*
X132331Y117701D01*
X132257Y117713D01*
X132194Y117725D01*
X132132Y117740D01*
X132078Y117756D01*
X132027Y117775D01*
X131984Y117791D01*
X131945Y117810D01*
X131910Y117830D01*
X131883Y117845D01*
X131859Y117861D01*
X131840Y117873D01*
X131828Y117885D01*
X131820Y117888D01*
X131816Y117892D01*
X131777Y117931D01*
X131742Y117970D01*
X131715Y118013D01*
X131687Y118056D01*
X131668Y118099D01*
X131649Y118142D01*
X131621Y118220D01*
X131606Y118290D01*
X131602Y118321D01*
X131598Y118349D01*
X131594Y118368D01*
Y118384D01*
Y118395D01*
Y118399D01*
X131598Y118454D01*
X131602Y118509D01*
X131613Y118559D01*
X131629Y118610D01*
X131664Y118696D01*
X131707Y118770D01*
X131746Y118828D01*
X131765Y118852D01*
X131781Y118871D01*
X131797Y118887D01*
X131808Y118898D01*
X131812Y118902D01*
X131816Y118906D01*
X131859Y118941D01*
X131910Y118973D01*
X131960Y119000D01*
X132015Y119019D01*
X132124Y119058D01*
X132234Y119082D01*
X132284Y119090D01*
X132331Y119094D01*
X132370Y119097D01*
X132409Y119101D01*
X132436Y119105D01*
X132479D01*
X132561Y119101D01*
D02*
G37*
G36*
X133729Y49584D02*
Y49529D01*
Y49478D01*
Y49431D01*
Y49392D01*
X133726Y49357D01*
Y49326D01*
Y49303D01*
Y49279D01*
X133722Y49244D01*
Y49225D01*
X133718Y49213D01*
Y49209D01*
X133706Y49166D01*
X133694Y49127D01*
X133679Y49096D01*
X133659Y49069D01*
X133644Y49045D01*
X133628Y49030D01*
X133620Y49022D01*
X133616Y49018D01*
X133585Y48995D01*
X133550Y48979D01*
X133515Y48963D01*
X133484Y48956D01*
X133456Y48952D01*
X133433Y48948D01*
X133410D01*
X133367Y48952D01*
X133332Y48956D01*
X133297Y48963D01*
X133269Y48975D01*
X133246Y48987D01*
X133230Y48995D01*
X133219Y48998D01*
X133215Y49002D01*
X133187Y49022D01*
X133168Y49045D01*
X133133Y49092D01*
X133125Y49115D01*
X133117Y49131D01*
X133109Y49143D01*
Y49147D01*
X133105Y49166D01*
X133098Y49194D01*
X133094Y49221D01*
X133090Y49256D01*
X133086Y49330D01*
X133082Y49408D01*
X133078Y49482D01*
Y49513D01*
Y49545D01*
Y49568D01*
Y49587D01*
Y49599D01*
Y49603D01*
Y49981D01*
X133729D01*
Y49584D01*
D02*
G37*
G36*
X133329Y109234D02*
Y109184D01*
Y109137D01*
Y109094D01*
X133326Y109059D01*
X133322Y108993D01*
Y108942D01*
X133318Y108907D01*
X133314Y108883D01*
X133310Y108868D01*
Y108864D01*
X133298Y108817D01*
X133283Y108778D01*
X133263Y108739D01*
X133244Y108712D01*
X133224Y108684D01*
X133209Y108669D01*
X133197Y108657D01*
X133193Y108653D01*
X133158Y108626D01*
X133119Y108606D01*
X133080Y108591D01*
X133045Y108583D01*
X133013Y108575D01*
X132986Y108571D01*
X132963D01*
X132924Y108575D01*
X132885Y108579D01*
X132850Y108591D01*
X132822Y108599D01*
X132799Y108610D01*
X132780Y108622D01*
X132768Y108626D01*
X132764Y108630D01*
X132733Y108653D01*
X132709Y108680D01*
X132686Y108708D01*
X132670Y108735D01*
X132655Y108758D01*
X132647Y108778D01*
X132643Y108790D01*
X132639Y108794D01*
X132631Y108813D01*
X132627Y108840D01*
X132616Y108899D01*
X132608Y108965D01*
X132604Y109035D01*
Y109098D01*
X132600Y109125D01*
Y109149D01*
Y109172D01*
Y109187D01*
Y109195D01*
Y109199D01*
Y109480D01*
X133329D01*
Y109234D01*
D02*
G37*
G36*
X23776Y119455D02*
X23815Y119451D01*
X23850Y119439D01*
X23878Y119431D01*
X23901Y119420D01*
X23921Y119408D01*
X23932Y119404D01*
X23936Y119400D01*
X23967Y119377D01*
X23991Y119349D01*
X24014Y119322D01*
X24030Y119295D01*
X24045Y119271D01*
X24053Y119252D01*
X24057Y119240D01*
X24061Y119236D01*
X24069Y119217D01*
X24073Y119189D01*
X24084Y119131D01*
X24092Y119065D01*
X24096Y118994D01*
Y118932D01*
X24100Y118905D01*
Y118881D01*
Y118858D01*
Y118842D01*
Y118834D01*
Y118831D01*
Y118550D01*
X23371D01*
Y118796D01*
Y118846D01*
Y118893D01*
Y118936D01*
X23374Y118971D01*
X23378Y119037D01*
Y119088D01*
X23382Y119123D01*
X23386Y119147D01*
X23390Y119162D01*
Y119166D01*
X23402Y119213D01*
X23417Y119252D01*
X23437Y119291D01*
X23456Y119318D01*
X23476Y119345D01*
X23492Y119361D01*
X23503Y119373D01*
X23507Y119377D01*
X23542Y119404D01*
X23581Y119423D01*
X23620Y119439D01*
X23655Y119447D01*
X23686Y119455D01*
X23714Y119458D01*
X23737D01*
X23776Y119455D01*
D02*
G37*
G36*
X132961Y45301D02*
X133035Y45297D01*
X133105Y45286D01*
X133172Y45274D01*
X133230Y45262D01*
X133285Y45243D01*
X133335Y45227D01*
X133378Y45208D01*
X133417Y45192D01*
X133449Y45173D01*
X133480Y45157D01*
X133503Y45145D01*
X133519Y45130D01*
X133530Y45122D01*
X133538Y45118D01*
X133542Y45114D01*
X133581Y45075D01*
X133616Y45036D01*
X133644Y44993D01*
X133671Y44950D01*
X133694Y44907D01*
X133710Y44864D01*
X133737Y44783D01*
X133753Y44712D01*
X133757Y44681D01*
X133761Y44654D01*
X133765Y44631D01*
Y44615D01*
Y44603D01*
Y44599D01*
X133761Y44541D01*
X133757Y44486D01*
X133729Y44385D01*
X133694Y44295D01*
X133655Y44225D01*
X133636Y44194D01*
X133616Y44166D01*
X133597Y44143D01*
X133581Y44124D01*
X133566Y44108D01*
X133554Y44096D01*
X133550Y44092D01*
X133546Y44088D01*
X133503Y44053D01*
X133456Y44022D01*
X133406Y43999D01*
X133351Y43975D01*
X133242Y43940D01*
X133137Y43917D01*
X133086Y43909D01*
X133039Y43905D01*
X132996Y43897D01*
X132961D01*
X132930Y43893D01*
X132887D01*
X132805Y43897D01*
X132731Y43901D01*
X132657Y43913D01*
X132595Y43925D01*
X132532Y43940D01*
X132477Y43956D01*
X132427Y43975D01*
X132384Y43991D01*
X132345Y44010D01*
X132310Y44030D01*
X132282Y44045D01*
X132259Y44061D01*
X132240Y44073D01*
X132228Y44085D01*
X132220Y44088D01*
X132216Y44092D01*
X132177Y44131D01*
X132142Y44170D01*
X132115Y44213D01*
X132088Y44256D01*
X132068Y44299D01*
X132048Y44342D01*
X132021Y44420D01*
X132006Y44490D01*
X132002Y44521D01*
X131998Y44549D01*
X131994Y44568D01*
Y44584D01*
Y44595D01*
Y44599D01*
X131998Y44654D01*
X132002Y44708D01*
X132013Y44759D01*
X132029Y44810D01*
X132064Y44896D01*
X132107Y44970D01*
X132146Y45028D01*
X132166Y45052D01*
X132181Y45071D01*
X132197Y45087D01*
X132208Y45099D01*
X132212Y45102D01*
X132216Y45106D01*
X132259Y45141D01*
X132310Y45173D01*
X132360Y45200D01*
X132415Y45219D01*
X132524Y45258D01*
X132633Y45282D01*
X132684Y45290D01*
X132731Y45294D01*
X132770Y45297D01*
X132809Y45301D01*
X132836Y45305D01*
X132879D01*
X132961Y45301D01*
D02*
G37*
G36*
X24133Y38148D02*
X24168Y38144D01*
X24204Y38137D01*
X24231Y38125D01*
X24254Y38113D01*
X24270Y38105D01*
X24282Y38102D01*
X24285Y38098D01*
X24313Y38078D01*
X24332Y38055D01*
X24367Y38008D01*
X24375Y37984D01*
X24383Y37969D01*
X24391Y37957D01*
Y37953D01*
X24395Y37934D01*
X24402Y37907D01*
X24406Y37879D01*
X24410Y37844D01*
X24414Y37770D01*
X24418Y37692D01*
X24422Y37618D01*
Y37587D01*
Y37556D01*
Y37532D01*
Y37513D01*
Y37501D01*
Y37497D01*
Y37119D01*
X23771D01*
Y37516D01*
Y37571D01*
Y37622D01*
Y37669D01*
Y37708D01*
X23775Y37743D01*
Y37774D01*
Y37797D01*
Y37821D01*
X23778Y37856D01*
Y37875D01*
X23782Y37887D01*
Y37891D01*
X23794Y37934D01*
X23806Y37973D01*
X23821Y38004D01*
X23841Y38031D01*
X23856Y38055D01*
X23872Y38070D01*
X23880Y38078D01*
X23884Y38082D01*
X23915Y38105D01*
X23950Y38121D01*
X23985Y38137D01*
X24016Y38144D01*
X24044Y38148D01*
X24067Y38152D01*
X24090D01*
X24133Y38148D01*
D02*
G37*
D18*
X65828Y83345D02*
G03*
X65828Y83345I-394J0D01*
G01*
D21*
X3500Y22600D02*
X154000D01*
X17000Y2500D02*
Y22100D01*
X30400Y2500D02*
Y22600D01*
X60500Y3000D02*
Y22200D01*
X73700Y3000D02*
Y22600D01*
X89200Y2400D02*
Y22500D01*
X98200Y3000D02*
Y22300D01*
X127200Y2600D02*
Y22300D01*
X141500Y2600D02*
Y22500D01*
X3500Y12400D02*
X153500D01*
X154000Y2500D02*
Y22600D01*
X3500Y2500D02*
X154000D01*
X3500D02*
Y22600D01*
D34*
X34370Y25200D02*
Y45200D01*
X124370D01*
X34370Y25200D02*
X124370D01*
Y45200D01*
X66488Y97944D02*
X77512D01*
X66488Y103456D02*
X77512D01*
X66488Y97944D02*
Y103456D01*
X77512Y97944D02*
Y103456D01*
D35*
X65325Y55043D02*
X68475D01*
X65325Y47957D02*
Y55043D01*
X68475Y47957D02*
Y55043D01*
X65325Y47957D02*
X68475D01*
X74186Y93082D02*
Y96232D01*
X67099Y93082D02*
Y96232D01*
X74186D01*
X67099Y93082D02*
X74186D01*
X113125Y47757D02*
X116275D01*
Y54843D01*
X113125Y47757D02*
Y54843D01*
X116275D01*
X98875Y60257D02*
Y67343D01*
X95725Y60257D02*
Y67343D01*
Y60257D02*
X98875D01*
X95725Y67343D02*
X98875D01*
X80857Y52525D02*
Y55675D01*
X87943Y52525D02*
Y55675D01*
X80857Y52525D02*
X87943D01*
X80857Y55675D02*
X87943D01*
X78879Y56777D02*
Y68588D01*
X94627Y56777D02*
Y68588D01*
X78879D02*
X94627D01*
X78879Y56777D02*
X94627D01*
X67836Y83983D02*
X81930D01*
X67836Y72471D02*
X81930D01*
X67834Y72471D02*
Y83983D01*
X81932Y72471D02*
Y83983D01*
X74176Y87176D02*
Y90326D01*
X67089Y87176D02*
Y90326D01*
X74176D01*
X67089Y87176D02*
X74176D01*
X74963Y90326D02*
X82050D01*
X74963Y87176D02*
X82050D01*
Y90326D01*
X74963Y87176D02*
Y90326D01*
Y96232D02*
X82050D01*
X74963Y93082D02*
X82050D01*
Y96232D01*
X74963Y93082D02*
Y96232D01*
D36*
X84400Y80799D02*
Y77466D01*
X85066Y76800D01*
X86399D01*
X87066Y77466D01*
Y80799D01*
X88399Y76800D02*
X89732D01*
X89065D01*
Y80799D01*
X88399Y80132D01*
X91731D02*
X92397Y80799D01*
X93730D01*
X94397Y80132D01*
Y77466D01*
X93730Y76800D01*
X92397D01*
X91731Y77466D01*
Y80132D01*
X95730D02*
X96396Y80799D01*
X97729D01*
X98396Y80132D01*
Y77466D01*
X97729Y76800D01*
X96396D01*
X95730Y77466D01*
Y80132D01*
X116800Y59100D02*
X112801D01*
Y61099D01*
X113468Y61766D01*
X114801D01*
X115467Y61099D01*
Y59100D01*
Y60433D02*
X116800Y61766D01*
Y63099D02*
Y64432D01*
Y63765D01*
X112801D01*
X113468Y63099D01*
Y66431D02*
X112801Y67097D01*
Y68430D01*
X113468Y69097D01*
X116133D01*
X116800Y68430D01*
Y67097D01*
X116133Y66431D01*
X113468D01*
X116800Y70430D02*
Y71763D01*
Y71096D01*
X112801D01*
X113468Y70430D01*
X93466Y54532D02*
X92799Y55199D01*
X91466D01*
X90800Y54532D01*
Y51866D01*
X91466Y51200D01*
X92799D01*
X93466Y51866D01*
X94799Y51200D02*
X96132D01*
X95465D01*
Y55199D01*
X94799Y54532D01*
X98131D02*
X98797Y55199D01*
X100130D01*
X100797Y54532D01*
Y51866D01*
X100130Y51200D01*
X98797D01*
X98131Y51866D01*
Y54532D01*
X104796Y55199D02*
X102130D01*
Y53199D01*
X103463Y53866D01*
X104129D01*
X104796Y53199D01*
Y51866D01*
X104129Y51200D01*
X102796D01*
X102130Y51866D01*
X101868Y60266D02*
X101201Y59599D01*
Y58266D01*
X101868Y57600D01*
X104534D01*
X105200Y58266D01*
Y59599D01*
X104534Y60266D01*
X105200Y61599D02*
Y62932D01*
Y62265D01*
X101201D01*
X101868Y61599D01*
Y64931D02*
X101201Y65597D01*
Y66930D01*
X101868Y67597D01*
X104534D01*
X105200Y66930D01*
Y65597D01*
X104534Y64931D01*
X101868D01*
X101201Y71596D02*
X101868Y70263D01*
X103201Y68930D01*
X104534D01*
X105200Y69596D01*
Y70929D01*
X104534Y71596D01*
X103867D01*
X103201Y70929D01*
Y68930D01*
X68466Y109332D02*
X67799Y109999D01*
X66466D01*
X65800Y109332D01*
Y106667D01*
X66466Y106000D01*
X67799D01*
X68466Y106667D01*
X69799Y106000D02*
X71132D01*
X70465D01*
Y109999D01*
X69799Y109332D01*
X73131D02*
X73797Y109999D01*
X75130D01*
X75797Y109332D01*
Y106667D01*
X75130Y106000D01*
X73797D01*
X73131Y106667D01*
Y109332D01*
X77130D02*
X77796Y109999D01*
X79129D01*
X79795Y109332D01*
Y106667D01*
X79129Y106000D01*
X77796D01*
X77130Y106667D01*
Y109332D01*
X53766Y96332D02*
X53099Y96999D01*
X51766D01*
X51100Y96332D01*
Y93666D01*
X51766Y93000D01*
X53099D01*
X53766Y93666D01*
X55099Y93000D02*
X56432D01*
X55765D01*
Y96999D01*
X55099Y96332D01*
X58431D02*
X59097Y96999D01*
X60430D01*
X61097Y96332D01*
Y93666D01*
X60430Y93000D01*
X59097D01*
X58431Y93666D01*
Y96332D01*
X62430Y93000D02*
X63763D01*
X63096D01*
Y96999D01*
X62430Y96332D01*
X88766Y96232D02*
X88099Y96899D01*
X86766D01*
X86100Y96232D01*
Y93566D01*
X86766Y92900D01*
X88099D01*
X88766Y93566D01*
X90099Y92900D02*
X91432D01*
X90765D01*
Y96899D01*
X90099Y96232D01*
X93431D02*
X94097Y96899D01*
X95430D01*
X96097Y96232D01*
Y93566D01*
X95430Y92900D01*
X94097D01*
X93431Y93566D01*
Y96232D01*
X100095Y92900D02*
X97430D01*
X100095Y95566D01*
Y96232D01*
X99429Y96899D01*
X98096D01*
X97430Y96232D01*
X53366Y90632D02*
X52699Y91299D01*
X51366D01*
X50700Y90632D01*
Y87966D01*
X51366Y87300D01*
X52699D01*
X53366Y87966D01*
X54699Y87300D02*
X56032D01*
X55365D01*
Y91299D01*
X54699Y90632D01*
X58031D02*
X58697Y91299D01*
X60030D01*
X60697Y90632D01*
Y87966D01*
X60030Y87300D01*
X58697D01*
X58031Y87966D01*
Y90632D01*
X62030D02*
X62696Y91299D01*
X64029D01*
X64696Y90632D01*
Y89966D01*
X64029Y89299D01*
X63363D01*
X64029D01*
X64696Y88633D01*
Y87966D01*
X64029Y87300D01*
X62696D01*
X62030Y87966D01*
X88466Y90432D02*
X87799Y91099D01*
X86466D01*
X85800Y90432D01*
Y87766D01*
X86466Y87100D01*
X87799D01*
X88466Y87766D01*
X89799Y87100D02*
X91132D01*
X90465D01*
Y91099D01*
X89799Y90432D01*
X93131D02*
X93797Y91099D01*
X95130D01*
X95797Y90432D01*
Y87766D01*
X95130Y87100D01*
X93797D01*
X93131Y87766D01*
Y90432D01*
X99129Y87100D02*
Y91099D01*
X97130Y89099D01*
X99796D01*
X50200Y49700D02*
Y53699D01*
X52199D01*
X52866Y53032D01*
Y51699D01*
X52199Y51033D01*
X50200D01*
X51533D02*
X52866Y49700D01*
X54199D02*
X55532D01*
X54865D01*
Y53699D01*
X54199Y53032D01*
X57531D02*
X58197Y53699D01*
X59530D01*
X60197Y53032D01*
Y50366D01*
X59530Y49700D01*
X58197D01*
X57531Y50366D01*
Y53032D01*
X61530D02*
X62196Y53699D01*
X63529D01*
X64196Y53032D01*
Y50366D01*
X63529Y49700D01*
X62196D01*
X61530Y50366D01*
Y53032D01*
X62400Y64499D02*
Y63832D01*
X63733Y62499D01*
X65066Y63832D01*
Y64499D01*
X63733Y62499D02*
Y60500D01*
X66399D02*
X67732D01*
X67065D01*
Y64499D01*
X66399Y63832D01*
X69731D02*
X70397Y64499D01*
X71730D01*
X72397Y63832D01*
Y61166D01*
X71730Y60500D01*
X70397D01*
X69731Y61166D01*
Y63832D01*
X73730D02*
X74396Y64499D01*
X75729D01*
X76395Y63832D01*
Y61166D01*
X75729Y60500D01*
X74396D01*
X73730Y61166D01*
Y63832D01*
X39236Y51199D02*
X37903D01*
X38569D01*
Y47866D01*
X37903Y47200D01*
X37236D01*
X36570Y47866D01*
X40569Y47200D02*
X41902D01*
X41235D01*
Y51199D01*
X40569Y50532D01*
X7681Y9399D02*
X9776D01*
X8633Y7876D01*
X9204D01*
X9585Y7685D01*
X9776Y7495D01*
X9966Y6923D01*
Y6543D01*
X9776Y5971D01*
X9395Y5590D01*
X8823Y5400D01*
X8252D01*
X7681Y5590D01*
X7490Y5781D01*
X7300Y6162D01*
X11052Y5781D02*
X10861Y5590D01*
X11052Y5400D01*
X11242Y5590D01*
X11052Y5781D01*
X12499Y9399D02*
X14594D01*
X13451Y7876D01*
X14022D01*
X14403Y7685D01*
X14594Y7495D01*
X14784Y6923D01*
Y6543D01*
X14594Y5971D01*
X14213Y5590D01*
X13642Y5400D01*
X13070D01*
X12499Y5590D01*
X12308Y5781D01*
X12118Y6162D01*
X24857Y18947D02*
X24666Y19328D01*
X24285Y19709D01*
X23904Y19899D01*
X23143D01*
X22762Y19709D01*
X22381Y19328D01*
X22190Y18947D01*
X22000Y18376D01*
Y17424D01*
X22190Y16852D01*
X22381Y16471D01*
X22762Y16090D01*
X23143Y15900D01*
X23904D01*
X24285Y16090D01*
X24666Y16471D01*
X24857Y16852D01*
Y17424D01*
X23904D02*
X24857D01*
X51257Y18347D02*
X51066Y18728D01*
X50685Y19109D01*
X50304Y19299D01*
X49543D01*
X49162Y19109D01*
X48781Y18728D01*
X48590Y18347D01*
X48400Y17776D01*
Y16824D01*
X48590Y16252D01*
X48781Y15871D01*
X49162Y15490D01*
X49543Y15300D01*
X50304D01*
X50685Y15490D01*
X51066Y15871D01*
X51257Y16252D01*
X52380Y19299D02*
Y15300D01*
X54665D01*
X55103Y19299D02*
Y15300D01*
X57769Y19299D02*
X55103Y16633D01*
X56055Y17585D02*
X57769Y15300D01*
X67766Y8628D02*
X67385Y9009D01*
X66814Y9199D01*
X66052D01*
X65481Y9009D01*
X65100Y8628D01*
Y8247D01*
X65290Y7866D01*
X65481Y7676D01*
X65862Y7485D01*
X67004Y7104D01*
X67385Y6914D01*
X67576Y6724D01*
X67766Y6343D01*
Y5771D01*
X67385Y5390D01*
X66814Y5200D01*
X66052D01*
X65481Y5390D01*
X65100Y5771D01*
X68661Y9199D02*
Y5200D01*
X66366Y18428D02*
X65985Y18809D01*
X65414Y18999D01*
X64652D01*
X64081Y18809D01*
X63700Y18428D01*
Y18047D01*
X63890Y17666D01*
X64081Y17476D01*
X64462Y17285D01*
X65604Y16904D01*
X65985Y16714D01*
X66176Y16523D01*
X66366Y16143D01*
Y15571D01*
X65985Y15190D01*
X65414Y15000D01*
X64652D01*
X64081Y15190D01*
X63700Y15571D01*
X68404Y18999D02*
X68023Y18809D01*
X67642Y18428D01*
X67452Y18047D01*
X67261Y17476D01*
Y16523D01*
X67452Y15952D01*
X67642Y15571D01*
X68023Y15190D01*
X68404Y15000D01*
X69165D01*
X69546Y15190D01*
X69927Y15571D01*
X70118Y15952D01*
X70308Y16523D01*
Y17476D01*
X70118Y18047D01*
X69927Y18428D01*
X69546Y18809D01*
X69165Y18999D01*
X68404D01*
X7281Y19499D02*
X9376D01*
X8233Y17976D01*
X8804D01*
X9185Y17785D01*
X9376Y17595D01*
X9566Y17023D01*
Y16643D01*
X9376Y16071D01*
X8995Y15690D01*
X8423Y15500D01*
X7852D01*
X7281Y15690D01*
X7090Y15881D01*
X6900Y16262D01*
X10652Y15881D02*
X10461Y15690D01*
X10652Y15500D01*
X10842Y15690D01*
X10652Y15881D01*
X12099Y19499D02*
X14194D01*
X13051Y17976D01*
X13622D01*
X14003Y17785D01*
X14194Y17595D01*
X14384Y17023D01*
Y16643D01*
X14194Y16071D01*
X13813Y15690D01*
X13241Y15500D01*
X12670D01*
X12099Y15690D01*
X11908Y15881D01*
X11718Y16262D01*
X24757Y7947D02*
X24566Y8328D01*
X24185Y8709D01*
X23804Y8899D01*
X23043D01*
X22662Y8709D01*
X22281Y8328D01*
X22090Y7947D01*
X21900Y7376D01*
Y6424D01*
X22090Y5852D01*
X22281Y5471D01*
X22662Y5090D01*
X23043Y4900D01*
X23804D01*
X24185Y5090D01*
X24566Y5471D01*
X24757Y5852D01*
Y6424D01*
X23804D02*
X24757D01*
X50300Y9599D02*
Y5600D01*
X52280Y9599D02*
X51900Y9409D01*
X51519Y9028D01*
X51328Y8647D01*
X51138Y8076D01*
Y7124D01*
X51328Y6552D01*
X51519Y6171D01*
X51900Y5790D01*
X52280Y5600D01*
X53042D01*
X53423Y5790D01*
X53804Y6171D01*
X53994Y6552D01*
X54185Y7124D01*
Y8076D01*
X53994Y8647D01*
X53804Y9028D01*
X53423Y9409D01*
X53042Y9599D01*
X52280D01*
X55118Y8837D02*
X55499Y9028D01*
X56070Y9599D01*
Y5600D01*
X81466Y18828D02*
X81085Y19209D01*
X80514Y19399D01*
X79752D01*
X79181Y19209D01*
X78800Y18828D01*
Y18447D01*
X78990Y18066D01*
X79181Y17876D01*
X79562Y17685D01*
X80704Y17304D01*
X81085Y17114D01*
X81276Y16924D01*
X81466Y16543D01*
Y15971D01*
X81085Y15590D01*
X80514Y15400D01*
X79752D01*
X79181Y15590D01*
X78800Y15971D01*
X85027Y18828D02*
X84646Y19209D01*
X84075Y19399D01*
X83313D01*
X82742Y19209D01*
X82361Y18828D01*
Y18447D01*
X82552Y18066D01*
X82742Y17876D01*
X83123Y17685D01*
X84266Y17304D01*
X84646Y17114D01*
X84837Y16924D01*
X85027Y16543D01*
Y15971D01*
X84646Y15590D01*
X84075Y15400D01*
X83313D01*
X82742Y15590D01*
X82361Y15971D01*
X78866Y8728D02*
X78485Y9109D01*
X77914Y9299D01*
X77152D01*
X76581Y9109D01*
X76200Y8728D01*
Y8347D01*
X76390Y7966D01*
X76581Y7776D01*
X76962Y7585D01*
X78104Y7204D01*
X78485Y7014D01*
X78676Y6824D01*
X78866Y6443D01*
Y5871D01*
X78485Y5490D01*
X77914Y5300D01*
X77152D01*
X76581Y5490D01*
X76200Y5871D01*
X79761Y9299D02*
Y5300D01*
X81742Y9299D02*
X81361Y9109D01*
X80980Y8728D01*
X80790Y8347D01*
X80599Y7776D01*
Y6824D01*
X80790Y6252D01*
X80980Y5871D01*
X81361Y5490D01*
X81742Y5300D01*
X82503D01*
X82884Y5490D01*
X83265Y5871D01*
X83456Y6252D01*
X83646Y6824D01*
Y7776D01*
X83456Y8347D01*
X83265Y8728D01*
X82884Y9109D01*
X82503Y9299D01*
X81742D01*
X84770Y8347D02*
Y8537D01*
X84960Y8918D01*
X85150Y9109D01*
X85531Y9299D01*
X86293D01*
X86674Y9109D01*
X86864Y8918D01*
X87055Y8537D01*
Y8157D01*
X86864Y7776D01*
X86484Y7204D01*
X84579Y5300D01*
X87245D01*
X94757Y7847D02*
X94566Y8228D01*
X94185Y8609D01*
X93804Y8799D01*
X93043D01*
X92662Y8609D01*
X92281Y8228D01*
X92090Y7847D01*
X91900Y7276D01*
Y6323D01*
X92090Y5752D01*
X92281Y5371D01*
X92662Y4990D01*
X93043Y4800D01*
X93804D01*
X94185Y4990D01*
X94566Y5371D01*
X94757Y5752D01*
Y6323D01*
X93804D02*
X94757D01*
X94556Y18347D02*
X94366Y18728D01*
X93985Y19109D01*
X93604Y19299D01*
X92843D01*
X92462Y19109D01*
X92081Y18728D01*
X91890Y18347D01*
X91700Y17776D01*
Y16824D01*
X91890Y16252D01*
X92081Y15871D01*
X92462Y15490D01*
X92843Y15300D01*
X93604D01*
X93985Y15490D01*
X94366Y15871D01*
X94556Y16252D01*
Y16824D01*
X93604D02*
X94556D01*
X102500Y9299D02*
Y5300D01*
X104481Y9299D02*
X104100Y9109D01*
X103719Y8728D01*
X103528Y8347D01*
X103338Y7776D01*
Y6824D01*
X103528Y6252D01*
X103719Y5871D01*
X104100Y5490D01*
X104481Y5300D01*
X105242D01*
X105623Y5490D01*
X106004Y5871D01*
X106194Y6252D01*
X106385Y6824D01*
Y7776D01*
X106194Y8347D01*
X106004Y8728D01*
X105623Y9109D01*
X105242Y9299D01*
X104481D01*
X107509Y8347D02*
Y8537D01*
X107699Y8918D01*
X107889Y9109D01*
X108270Y9299D01*
X109032D01*
X109413Y9109D01*
X109603Y8918D01*
X109794Y8537D01*
Y8157D01*
X109603Y7776D01*
X109222Y7204D01*
X107318Y5300D01*
X109984D01*
X103266Y18828D02*
X102885Y19209D01*
X102314Y19399D01*
X101552D01*
X100981Y19209D01*
X100600Y18828D01*
Y18447D01*
X100790Y18066D01*
X100981Y17876D01*
X101362Y17685D01*
X102504Y17304D01*
X102885Y17114D01*
X103076Y16924D01*
X103266Y16543D01*
Y15971D01*
X102885Y15590D01*
X102314Y15400D01*
X101552D01*
X100981Y15590D01*
X100600Y15971D01*
X104161Y19399D02*
Y15400D01*
X106142Y19399D02*
X105761Y19209D01*
X105380Y18828D01*
X105190Y18447D01*
X104999Y17876D01*
Y16924D01*
X105190Y16352D01*
X105380Y15971D01*
X105761Y15590D01*
X106142Y15400D01*
X106903D01*
X107284Y15590D01*
X107665Y15971D01*
X107856Y16352D01*
X108046Y16924D01*
Y17876D01*
X107856Y18447D01*
X107665Y18828D01*
X107284Y19209D01*
X106903Y19399D01*
X106142D01*
X109360D02*
X111455D01*
X110312Y17876D01*
X110883D01*
X111264Y17685D01*
X111455Y17495D01*
X111645Y16924D01*
Y16543D01*
X111455Y15971D01*
X111074Y15590D01*
X110503Y15400D01*
X109931D01*
X109360Y15590D01*
X109170Y15781D01*
X108979Y16162D01*
X130100Y20299D02*
Y16300D01*
X132385D01*
X132823Y14967D02*
X135870D01*
X136384Y18204D02*
X138098D01*
X138670Y18395D01*
X138860Y18585D01*
X139050Y18966D01*
Y19537D01*
X138860Y19918D01*
X138670Y20109D01*
X138098Y20299D01*
X136384D01*
Y16300D01*
X130100Y9499D02*
Y5500D01*
X132385D01*
X132823Y4167D02*
X135870D01*
X136384Y9499D02*
Y5500D01*
Y9499D02*
X139050Y5500D01*
Y9499D02*
Y5500D01*
X149656Y18547D02*
X149466Y18928D01*
X149085Y19309D01*
X148704Y19499D01*
X147943D01*
X147562Y19309D01*
X147181Y18928D01*
X146990Y18547D01*
X146800Y17976D01*
Y17023D01*
X146990Y16452D01*
X147181Y16071D01*
X147562Y15690D01*
X147943Y15500D01*
X148704D01*
X149085Y15690D01*
X149466Y16071D01*
X149656Y16452D01*
Y17023D01*
X148704D02*
X149656D01*
X147276Y9199D02*
X144800D01*
Y5200D01*
X147276D01*
X144800Y7295D02*
X146324D01*
X147942Y9199D02*
Y5200D01*
Y9199D02*
X150608Y5200D01*
Y9199D02*
Y5200D01*
M02*
