G04 ================== begin FILE IDENTIFICATION RECORD ==================*
G04 Layout Name:  G:/Work/SZENCTECH/2019/201911/X4SIP02/pcb/cam/X4_test-1127.brd*
G04 Film Name:    DRILL-1-4*
G04 File Format:  Gerber RS274X*
G04 File Origin:  Cadence Allegro 16.6-2015-S108*
G04 Origin Date:  Wed Nov 27 19:09:34 2019*
G04 *
G04 Layer:  MANUFACTURING/NCLEGEND-1-4*
G04 Layer:  MANUFACTURING/NCDRILL_LEGEND*
G04 Layer:  MANUFACTURING/NCDRILL_FIGURE*
G04 Layer:  BOARD GEOMETRY/OUTLINE*
G04 Layer:  BOARD GEOMETRY/DIMENSION*
G04 *
G04 Offset:    (0.00 0.00)*
G04 Mirror:    No*
G04 Mode:      Positive*
G04 Rotation:  0*
G04 FullContactRelief:  No*
G04 UndefLineWidth:     6.00*
G04 ================== end FILE IDENTIFICATION RECORD ====================*
%FSLAX55Y55*MOIN*%
%IR0*IPPOS*OFA0.00000B0.00000*MIA0B0*SFA1.00000B1.00000*%
%AMMACRO11*
1,1,.006,.04,0.0*
20,1,.006,.04,0.0,-.04,0.0,0.0*
1,1,.006,-.04,0.0*
1,1,.006,0.0,.04*
20,1,.006,0.0,.04,0.0,-.04,0.0*
1,1,.006,0.0,-.04*
%
%ADD11MACRO11*%
%AMMACRO10*
1,1,.006,.025,0.0*
20,1,.006,.025,0.0,-.025,0.0,0.0*
1,1,.006,-.025,0.0*
1,1,.006,0.0,.025*
20,1,.006,0.0,.025,0.0,-.025,0.0*
1,1,.006,0.0,-.025*
1,1,.006,.00208,0.0*
20,1,.006,.00208,0.0,.0125,.025,0.0*
1,1,.006,.0125,.025*
20,1,.006,.0125,.025,.02292,0.0,0.0*
1,1,.006,.02292,0.0*
1,1,.006,.01917,.00875*
20,1,.006,.01917,.00875,.00583,.00875,0.0*
1,1,.006,.00583,.00875*
%
%ADD10MACRO10*%
%AMMACRO12*
1,1,.006,.008284,-.02*
20,1,.006,.008284,-.02,-.008284,-.02,0.0*
1,1,.006,-.008284,-.02*
20,1,.006,-.008284,-.02,-.02,-.008284,0.0*
1,1,.006,-.02,-.008284*
20,1,.006,-.02,-.008284,-.02,.008284,0.0*
1,1,.006,-.02,.008284*
20,1,.006,-.02,.008284,-.008284,.02,0.0*
1,1,.006,-.008284,.02*
20,1,.006,-.008284,.02,.008284,.02,0.0*
1,1,.006,.008284,.02*
20,1,.006,.008284,.02,.02,.008284,0.0*
1,1,.006,.02,.008284*
20,1,.006,.02,.008284,.02,-.008284,0.0*
1,1,.006,.02,-.008284*
20,1,.006,.02,-.008284,.008284,-.02,0.0*
1,1,.006,.008284,-.02*
1,1,.006,-.005,.00333*
20,1,.006,-.005,.00333,.005,-.01,0.0*
1,1,.006,.005,-.01*
1,1,.006,.005,.00333*
20,1,.006,.005,.00333,-.005,-.01,0.0*
1,1,.006,-.005,-.01*
%
%ADD12MACRO12*%
%ADD13C,.006*%
G75*
%LPD*%
G75*
G54D10*
X3000Y5000D03*
X5000Y12122D03*
Y9122D03*
X2953Y20000D03*
Y27500D03*
X7500Y26500D03*
Y21000D03*
X2800Y44200D03*
X5000Y38500D03*
Y35500D03*
X3600Y86600D03*
X10000Y5000D03*
Y12122D03*
Y9122D03*
X15000Y10000D03*
X20000Y5000D03*
X12500Y21000D03*
Y26500D03*
X20000Y15000D03*
X17500Y21000D03*
Y26500D03*
X22500Y21000D03*
Y26500D03*
X12500Y44000D03*
X22500D03*
X10000Y38500D03*
Y35500D03*
X20000Y35000D03*
X15000Y40000D03*
Y30000D03*
X25000Y10000D03*
X30000Y5000D03*
X35000Y10000D03*
X30000Y15000D03*
X27500Y21000D03*
Y26500D03*
X32500Y21000D03*
Y26500D03*
X39352Y17392D03*
Y28000D03*
X32500Y44000D03*
X35000Y30000D03*
Y40000D03*
X30000Y35000D03*
X25000Y30000D03*
Y40000D03*
X51500Y13000D03*
X48300Y12500D03*
X40000Y5000D03*
X54800Y13900D03*
X40000Y15000D03*
X50800Y25059D03*
X54000Y28000D03*
X50800Y20335D03*
X42500Y44000D03*
Y39000D03*
X47000Y37500D03*
X50700Y30500D03*
X50500Y33600D03*
X50400Y37500D03*
X47500Y32400D03*
X47600Y29800D03*
X71100Y12300D03*
X67000Y17500D03*
X69000Y16500D03*
X60100Y13500D03*
X66200Y28200D03*
X71500Y16400D03*
X56900Y13900D03*
X58200Y21800D03*
X67330Y20335D03*
Y25059D03*
X60000Y28000D03*
X58216Y23584D03*
X56969Y27969D03*
X63100Y27600D03*
X64969Y31000D03*
X69531Y30900D03*
X58500Y40500D03*
Y44000D03*
X58700Y31000D03*
X58600Y35500D03*
X84990Y2863D03*
X80000Y5000D03*
X85000Y10000D03*
Y26500D03*
X80000Y15000D03*
X85000Y21000D03*
X78778Y17393D03*
Y28001D03*
X73555Y18464D03*
X86200Y44300D03*
X76200D03*
X80000Y40000D03*
X85000Y35000D03*
X82500Y29500D03*
X76500Y39000D03*
Y35000D03*
X73555Y29464D03*
X94990Y2863D03*
X90000Y5000D03*
X100000D03*
X95000Y10000D03*
X90000Y15000D03*
X100000D03*
X90000Y26500D03*
X95000D03*
X100000D03*
Y21000D03*
X95000D03*
X90000D03*
X96200Y44300D03*
X90000Y30000D03*
X100000D03*
X95000Y35000D03*
X90000Y40000D03*
X100000D03*
X104990Y2863D03*
X115300Y2800D03*
X108095Y8744D03*
Y11744D03*
X113095Y8744D03*
Y11744D03*
X110000Y5000D03*
Y21000D03*
X115000Y27500D03*
X110000Y26500D03*
X115000Y20000D03*
X105000Y26500D03*
Y21000D03*
X115300Y44400D03*
X106200Y44300D03*
X108095Y35122D03*
Y38122D03*
X113095Y35122D03*
Y38122D03*
G54D11*
X3600Y74600D03*
X54063Y4300D03*
Y9300D03*
X49063Y4300D03*
Y9300D03*
X44063Y4300D03*
Y9300D03*
X69063Y4300D03*
Y9300D03*
X64063Y4300D03*
Y9300D03*
X59063Y4300D03*
Y9300D03*
X74063Y4300D03*
Y9300D03*
G54D12*
X55128Y18468D03*
X59852D03*
X56703Y20043D03*
X61427Y18468D03*
X56703D03*
X63002D03*
Y20043D03*
X61427D03*
Y21909D03*
X58277Y18468D03*
G54D13*
G01X-9985Y6D02*
X-55700D01*
G01X-45700Y19325D02*
Y6D01*
G01X-48200Y15006D02*
X-45700Y6D01*
X-43200Y15006D01*
X-48200D01*
G01X-47450Y21950D02*
Y25450D01*
X-48050Y24750D01*
G01Y21950D02*
X-46850D01*
G01X-44900Y24867D02*
X-44600Y25217D01*
X-44250Y25392D01*
X-43850Y25450D01*
X-43350Y25333D01*
X-43000Y25042D01*
X-42900Y24692D01*
X-42950Y24342D01*
X-43150Y24050D01*
X-44150Y23467D01*
X-44600Y23058D01*
X-44900Y22475D01*
X-45000Y21950D01*
X-42900D01*
G01X-45700Y28075D02*
Y47238D01*
G01X-43200Y32238D02*
X-45700Y47238D01*
X-48200Y32238D01*
X-43200D01*
G01X-9985Y47238D02*
X-55700D01*
G01X15Y6D02*
X118095D01*
Y47238D01*
X15D01*
Y6D01*
G01Y57238D02*
Y63700D01*
G01X53025Y53700D02*
X15D01*
G01X15015Y56200D02*
X15Y53700D01*
X15015Y51200D01*
Y56200D01*
G01X-8900Y68600D02*
Y131600D01*
X126100D01*
Y68600D01*
X-8900D01*
G01Y92600D02*
X126100D01*
G01X-8900Y80600D02*
X126100D01*
G01X-6100Y94350D02*
Y97850D01*
X-4200D01*
G01X-4900Y96158D02*
X-6100D01*
G01X-2250Y97850D02*
X-1050D01*
G01X-1650D02*
Y94350D01*
G01X-2250D02*
X-1050D01*
G01X2150Y96100D02*
X3150D01*
Y95050D01*
X2850Y94700D01*
X2500Y94467D01*
X2000Y94350D01*
X1500Y94467D01*
X1150Y94700D01*
X850Y95050D01*
X650Y95458D01*
X550Y95925D01*
Y96333D01*
X650Y96683D01*
X850Y97092D01*
X1150Y97442D01*
X1450Y97675D01*
X1850Y97850D01*
X2200D01*
X2600Y97733D01*
X2900Y97500D01*
G01X4250Y97850D02*
Y95342D01*
X4450Y94817D01*
X4850Y94467D01*
X5350Y94350D01*
X5850Y94467D01*
X6250Y94817D01*
X6450Y95342D01*
Y97850D01*
G01X7850Y94350D02*
Y97850D01*
X9100D01*
X9500Y97675D01*
X9750Y97442D01*
X9850Y96975D01*
X9750Y96508D01*
X9450Y96217D01*
X9100Y96042D01*
X7850D01*
G01X9100D02*
X9850Y94350D01*
G01X13350D02*
X11350D01*
Y97850D01*
X13350D01*
G01X12550Y96158D02*
X11350D01*
G01X-8900Y106600D02*
X126100D01*
G01X-8900Y99600D02*
X126100D01*
G01X16100D02*
Y68600D01*
G01X22350Y101350D02*
X23600Y104850D01*
X24850Y101350D01*
G01X24400Y102575D02*
X22800D01*
G01X26100Y104850D02*
Y101350D01*
X28100D01*
G01X29600Y104850D02*
Y101350D01*
X31600D01*
G01X36500Y104850D02*
Y102342D01*
X36700Y101817D01*
X37100Y101467D01*
X37600Y101350D01*
X38100Y101467D01*
X38500Y101817D01*
X38700Y102342D01*
Y104850D01*
G01X39950Y101350D02*
Y104850D01*
X42250Y101350D01*
Y104850D01*
G01X44000D02*
X45200D01*
G01X44600D02*
Y101350D01*
G01X44000D02*
X45200D01*
G01X48100Y104850D02*
Y101350D01*
G01X46950Y104850D02*
X49250D01*
G01X50550Y101817D02*
X50950Y101525D01*
X51400Y101350D01*
X51800D01*
X52200Y101525D01*
X52500Y101817D01*
X52650Y102225D01*
X52550Y102633D01*
X52300Y102983D01*
X51850Y103217D01*
X51250Y103333D01*
X50900Y103567D01*
X50750Y103975D01*
X50850Y104383D01*
X51100Y104675D01*
X51450Y104850D01*
X51800D01*
X52150Y104733D01*
X52450Y104442D01*
G01X57350Y101350D02*
X58600Y104850D01*
X59850Y101350D01*
G01X59400Y102575D02*
X57800D01*
G01X61100Y101350D02*
Y104850D01*
X62350D01*
X62750Y104675D01*
X63000Y104442D01*
X63100Y103975D01*
X63000Y103508D01*
X62700Y103217D01*
X62350Y103042D01*
X61100D01*
G01X62350D02*
X63100Y101350D01*
G01X66600D02*
X64600D01*
Y104850D01*
X66600D01*
G01X65800Y103158D02*
X64600D01*
G01X72000Y104850D02*
X73200D01*
G01X72600D02*
Y101350D01*
G01X72000D02*
X73200D01*
G01X74950D02*
Y104850D01*
X77250Y101350D01*
Y104850D01*
G01X81800Y101350D02*
Y104850D01*
X83100Y101933D01*
X84400Y104850D01*
Y101350D01*
G01X86000Y104850D02*
X87200D01*
G01X86600D02*
Y101350D01*
G01X86000D02*
X87200D01*
G01X89100Y104850D02*
Y101350D01*
X91100D01*
G01X92550Y101817D02*
X92950Y101525D01*
X93400Y101350D01*
X93800D01*
X94200Y101525D01*
X94500Y101817D01*
X94650Y102225D01*
X94550Y102633D01*
X94300Y102983D01*
X93850Y103217D01*
X93250Y103333D01*
X92900Y103567D01*
X92750Y103975D01*
X92850Y104383D01*
X93100Y104675D01*
X93450Y104850D01*
X93800D01*
X94150Y104733D01*
X94450Y104442D01*
G01X13750Y126350D02*
Y129850D01*
X14750D01*
X15150Y129675D01*
X15450Y129442D01*
X15700Y129092D01*
X15900Y128683D01*
X15950Y128100D01*
X15900Y127517D01*
X15700Y127108D01*
X15450Y126758D01*
X15150Y126525D01*
X14750Y126350D01*
X13750D01*
G01X17350D02*
Y129850D01*
X18600D01*
X19000Y129675D01*
X19250Y129442D01*
X19350Y128975D01*
X19250Y128508D01*
X18950Y128217D01*
X18600Y128042D01*
X17350D01*
G01X18600D02*
X19350Y126350D01*
G01X21250Y129850D02*
X22450D01*
G01X21850D02*
Y126350D01*
G01X21250D02*
X22450D01*
G01X24350Y129850D02*
Y126350D01*
X26350D01*
G01X27850Y129850D02*
Y126350D01*
X29850D01*
G01X36950Y129558D02*
X36650Y129733D01*
X36300Y129850D01*
X35900D01*
X35450Y129675D01*
X35100Y129383D01*
X34850Y129033D01*
X34650Y128450D01*
X34600Y127925D01*
X34700Y127400D01*
X34850Y127050D01*
X35150Y126700D01*
X35500Y126467D01*
X35850Y126350D01*
X36200D01*
X36550Y126467D01*
X36850Y126642D01*
X37100Y126875D01*
G01X38300Y126350D02*
Y129850D01*
G01X40400D02*
Y126350D01*
G01Y128100D02*
X38300D01*
G01X41600Y126350D02*
X42850Y129850D01*
X44100Y126350D01*
G01X43650Y127575D02*
X42050D01*
G01X45350Y126350D02*
Y129850D01*
X46600D01*
X47000Y129675D01*
X47250Y129442D01*
X47350Y128975D01*
X47250Y128508D01*
X46950Y128217D01*
X46600Y128042D01*
X45350D01*
G01X46600D02*
X47350Y126350D01*
G01X49850Y129850D02*
Y126350D01*
G01X48700Y129850D02*
X51000D01*
G01X53350Y126233D02*
X53250Y126292D01*
Y126408D01*
X53350Y126467D01*
X53450Y126408D01*
Y126292D01*
X53350Y126233D01*
G01Y127808D02*
X53250Y127867D01*
Y127983D01*
X53350Y128042D01*
X53450Y127983D01*
Y127867D01*
X53350Y127808D01*
G01X60350Y129850D02*
Y126350D01*
G01X59200Y129850D02*
X61500D01*
G01X63850Y126350D02*
X63450Y126408D01*
X63100Y126642D01*
X62800Y126992D01*
X62600Y127400D01*
X62500Y127867D01*
Y128333D01*
X62600Y128800D01*
X62800Y129208D01*
X63100Y129558D01*
X63450Y129792D01*
X63850Y129850D01*
X64250Y129792D01*
X64600Y129558D01*
X64900Y129208D01*
X65100Y128800D01*
X65200Y128333D01*
Y127867D01*
X65100Y127400D01*
X64900Y126992D01*
X64600Y126642D01*
X64250Y126408D01*
X63850Y126350D01*
G01X66350D02*
Y129850D01*
X67550D01*
X67950Y129675D01*
X68250Y129267D01*
X68350Y128800D01*
X68250Y128333D01*
X68000Y127983D01*
X67550Y127808D01*
X66350D01*
G01X74350Y129850D02*
Y126350D01*
G01X73650Y128683D02*
X75050D01*
G01X77850Y126350D02*
X77550Y126408D01*
X77250Y126642D01*
X77050Y127050D01*
X76950Y127517D01*
X77050Y127983D01*
X77250Y128392D01*
X77550Y128625D01*
X77850Y128683D01*
X78150Y128625D01*
X78450Y128392D01*
X78650Y127983D01*
X78700Y127517D01*
X78650Y127050D01*
X78450Y126642D01*
X78150Y126408D01*
X77850Y126350D01*
G01X85250Y128217D02*
X85450Y128392D01*
X85600Y128683D01*
X85700Y129092D01*
X85600Y129442D01*
X85400Y129675D01*
X85050Y129850D01*
X83700D01*
Y126350D01*
X85350D01*
X85700Y126583D01*
X85900Y126933D01*
X86000Y127342D01*
X85900Y127750D01*
X85600Y128100D01*
X85250Y128217D01*
X83700D01*
G01X88350Y126350D02*
X87950Y126408D01*
X87600Y126642D01*
X87300Y126992D01*
X87100Y127400D01*
X87000Y127867D01*
Y128333D01*
X87100Y128800D01*
X87300Y129208D01*
X87600Y129558D01*
X87950Y129792D01*
X88350Y129850D01*
X88750Y129792D01*
X89100Y129558D01*
X89400Y129208D01*
X89600Y128800D01*
X89700Y128333D01*
Y127867D01*
X89600Y127400D01*
X89400Y126992D01*
X89100Y126642D01*
X88750Y126408D01*
X88350Y126350D01*
G01X91850Y129850D02*
Y126350D01*
G01X90700Y129850D02*
X93000D01*
G01X95350D02*
Y126350D01*
G01X94200Y129850D02*
X96500D01*
G01X98850Y126350D02*
X98450Y126408D01*
X98100Y126642D01*
X97800Y126992D01*
X97600Y127400D01*
X97500Y127867D01*
Y128333D01*
X97600Y128800D01*
X97800Y129208D01*
X98100Y129558D01*
X98450Y129792D01*
X98850Y129850D01*
X99250Y129792D01*
X99600Y129558D01*
X99900Y129208D01*
X100100Y128800D01*
X100200Y128333D01*
Y127867D01*
X100100Y127400D01*
X99900Y126992D01*
X99600Y126642D01*
X99250Y126408D01*
X98850Y126350D01*
G01X101050D02*
Y129850D01*
X102350Y126933D01*
X103650Y129850D01*
Y126350D01*
G01X36400Y75767D02*
X36700Y76117D01*
X37050Y76292D01*
X37450Y76350D01*
X37950Y76233D01*
X38300Y75942D01*
X38400Y75592D01*
X38350Y75242D01*
X38150Y74950D01*
X37150Y74367D01*
X36700Y73958D01*
X36400Y73375D01*
X36300Y72850D01*
X38400D01*
G01X40850D02*
X41200Y72908D01*
X41600Y73083D01*
X41850Y73375D01*
X41950Y73783D01*
X41850Y74192D01*
X41550Y74542D01*
X41100Y74717D01*
X40600D01*
X40300Y74833D01*
X40050Y75125D01*
X39950Y75533D01*
X40100Y75942D01*
X40450Y76233D01*
X40850Y76350D01*
X41250Y76233D01*
X41600Y75942D01*
X41750Y75533D01*
X41650Y75125D01*
X41400Y74833D01*
X41100Y74717D01*
X40600D01*
X40150Y74542D01*
X39850Y74192D01*
X39750Y73783D01*
X39850Y73375D01*
X40100Y73083D01*
X40500Y72908D01*
X40850Y72850D01*
G01X44350Y72733D02*
X44250Y72792D01*
Y72908D01*
X44350Y72967D01*
X44450Y72908D01*
Y72792D01*
X44350Y72733D01*
G01X47850Y76350D02*
X47450Y76233D01*
X47150Y75942D01*
X46950Y75592D01*
X46800Y75125D01*
X46750Y74600D01*
X46800Y74075D01*
X46950Y73608D01*
X47150Y73258D01*
X47450Y72967D01*
X47850Y72850D01*
X48250Y72967D01*
X48550Y73258D01*
X48750Y73608D01*
X48900Y74075D01*
X48950Y74600D01*
X48900Y75125D01*
X48750Y75592D01*
X48550Y75942D01*
X48250Y76233D01*
X47850Y76350D01*
G01X39100Y84850D02*
X39450Y84908D01*
X39850Y85083D01*
X40100Y85375D01*
X40200Y85783D01*
X40100Y86192D01*
X39800Y86542D01*
X39350Y86717D01*
X38850D01*
X38550Y86833D01*
X38300Y87125D01*
X38200Y87533D01*
X38350Y87942D01*
X38700Y88233D01*
X39100Y88350D01*
X39500Y88233D01*
X39850Y87942D01*
X40000Y87533D01*
X39900Y87125D01*
X39650Y86833D01*
X39350Y86717D01*
X38850D01*
X38400Y86542D01*
X38100Y86192D01*
X38000Y85783D01*
X38100Y85375D01*
X38350Y85083D01*
X38750Y84908D01*
X39100Y84850D01*
G01X42600Y84733D02*
X42500Y84792D01*
Y84908D01*
X42600Y84967D01*
X42700Y84908D01*
Y84792D01*
X42600Y84733D01*
G01X46100Y88350D02*
X45700Y88233D01*
X45400Y87942D01*
X45200Y87592D01*
X45050Y87125D01*
X45000Y86600D01*
X45050Y86075D01*
X45200Y85608D01*
X45400Y85258D01*
X45700Y84967D01*
X46100Y84850D01*
X46500Y84967D01*
X46800Y85258D01*
X47000Y85608D01*
X47150Y86075D01*
X47200Y86600D01*
X47150Y87125D01*
X47000Y87592D01*
X46800Y87942D01*
X46500Y88233D01*
X46100Y88350D01*
G01X36300Y94817D02*
X36700Y94525D01*
X37150Y94350D01*
X37550D01*
X37950Y94525D01*
X38250Y94817D01*
X38400Y95225D01*
X38300Y95633D01*
X38050Y95983D01*
X37600Y96217D01*
X37000Y96333D01*
X36650Y96567D01*
X36500Y96975D01*
X36600Y97383D01*
X36850Y97675D01*
X37200Y97850D01*
X37550D01*
X37900Y97733D01*
X38200Y97442D01*
G01X40250Y97850D02*
X41450D01*
G01X40850D02*
Y94350D01*
G01X40250D02*
X41450D01*
G01X43400Y97850D02*
X45300D01*
X43400Y94350D01*
X45300D01*
G01X48850D02*
X46850D01*
Y97850D01*
X48850D01*
G01X48050Y96158D02*
X46850D01*
G01X56050Y52650D02*
X56350Y52242D01*
X56750Y52008D01*
X57200Y51950D01*
X57600Y52008D01*
X58000Y52300D01*
X58250Y52650D01*
X58300Y53000D01*
X58200Y53408D01*
X57850Y53700D01*
X57500Y53817D01*
X57050D01*
G01X57500D02*
X57800Y53992D01*
X58050Y54283D01*
X58150Y54633D01*
X58050Y54983D01*
X57800Y55275D01*
X57350Y55450D01*
X56900Y55392D01*
X56450Y55158D01*
G01X60650Y55450D02*
X60250Y55333D01*
X59950Y55042D01*
X59750Y54692D01*
X59600Y54225D01*
X59550Y53700D01*
X59600Y53175D01*
X59750Y52708D01*
X59950Y52358D01*
X60250Y52067D01*
X60650Y51950D01*
X61050Y52067D01*
X61350Y52358D01*
X61550Y52708D01*
X61700Y53175D01*
X61750Y53700D01*
X61700Y54225D01*
X61550Y54692D01*
X61350Y55042D01*
X61050Y55333D01*
X60650Y55450D01*
G01X64775Y53700D02*
X118095D01*
G01X69100Y99600D02*
Y68600D01*
G01X77100Y72850D02*
Y76350D01*
X78300D01*
X78700Y76175D01*
X79000Y75767D01*
X79100Y75300D01*
X79000Y74833D01*
X78750Y74483D01*
X78300Y74308D01*
X77100D01*
G01X80600Y76350D02*
Y72850D01*
X82600D01*
G01X83850D02*
X85100Y76350D01*
X86350Y72850D01*
G01X85900Y74075D02*
X84300D01*
G01X88600Y76350D02*
Y72850D01*
G01X87450Y76350D02*
X89750D01*
G01X93100Y72850D02*
X91100D01*
Y76350D01*
X93100D01*
G01X92300Y74658D02*
X91100D01*
G01X94500Y72850D02*
Y76350D01*
X95500D01*
X95900Y76175D01*
X96200Y75942D01*
X96450Y75592D01*
X96650Y75183D01*
X96700Y74600D01*
X96650Y74017D01*
X96450Y73608D01*
X96200Y73258D01*
X95900Y73025D01*
X95500Y72850D01*
X94500D01*
G01X77100Y84850D02*
Y88350D01*
X78300D01*
X78700Y88175D01*
X79000Y87767D01*
X79100Y87300D01*
X79000Y86833D01*
X78750Y86483D01*
X78300Y86308D01*
X77100D01*
G01X80600Y88350D02*
Y84850D01*
X82600D01*
G01X83850D02*
X85100Y88350D01*
X86350Y84850D01*
G01X85900Y86075D02*
X84300D01*
G01X88600Y88350D02*
Y84850D01*
G01X87450Y88350D02*
X89750D01*
G01X93100Y84850D02*
X91100D01*
Y88350D01*
X93100D01*
G01X92300Y86658D02*
X91100D01*
G01X94500Y84850D02*
Y88350D01*
X95500D01*
X95900Y88175D01*
X96200Y87942D01*
X96450Y87592D01*
X96650Y87183D01*
X96700Y86600D01*
X96650Y86017D01*
X96450Y85608D01*
X96200Y85258D01*
X95900Y85025D01*
X95500Y84850D01*
X94500D01*
G01X77100Y94350D02*
Y97850D01*
X78300D01*
X78700Y97675D01*
X79000Y97267D01*
X79100Y96800D01*
X79000Y96333D01*
X78750Y95983D01*
X78300Y95808D01*
X77100D01*
G01X80600Y97850D02*
Y94350D01*
X82600D01*
G01X83850D02*
X85100Y97850D01*
X86350Y94350D01*
G01X85900Y95575D02*
X84300D01*
G01X88600Y97850D02*
Y94350D01*
G01X87450Y97850D02*
X89750D01*
G01X93100Y94350D02*
X91100D01*
Y97850D01*
X93100D01*
G01X92300Y96158D02*
X91100D01*
G01X94500Y94350D02*
Y97850D01*
X95500D01*
X95900Y97675D01*
X96200Y97442D01*
X96450Y97092D01*
X96650Y96683D01*
X96700Y96100D01*
X96650Y95517D01*
X96450Y95108D01*
X96200Y94758D01*
X95900Y94525D01*
X95500Y94350D01*
X94500D01*
G01X103095Y51200D02*
X118095Y53700D01*
X103095Y56200D01*
Y51200D01*
G01X118095Y45997D02*
X118080Y6D01*
G01X118095Y55997D02*
Y63700D01*
G01X113600Y72850D02*
Y76350D01*
X113000Y75650D01*
G01Y72850D02*
X114200D01*
G01X117700D02*
Y76350D01*
X115850Y73842D01*
X118350D01*
G01X104600Y99600D02*
Y68600D01*
G01X111850Y84850D02*
Y88350D01*
X111250Y87650D01*
G01Y84850D02*
X112450D01*
G01X114250Y85550D02*
X114550Y85142D01*
X114950Y84908D01*
X115400Y84850D01*
X115800Y84908D01*
X116200Y85200D01*
X116450Y85550D01*
X116500Y85900D01*
X116400Y86308D01*
X116050Y86600D01*
X115700Y86717D01*
X115250D01*
G01X115700D02*
X116000Y86892D01*
X116250Y87183D01*
X116350Y87533D01*
X116250Y87883D01*
X116000Y88175D01*
X115550Y88350D01*
X115100Y88292D01*
X114650Y88058D01*
G01X117750Y85375D02*
X118050Y85083D01*
X118400Y84908D01*
X118850Y84850D01*
X119300Y84967D01*
X119650Y85200D01*
X119900Y85608D01*
X119950Y86075D01*
X119850Y86542D01*
X119600Y86833D01*
X119250Y87067D01*
X118900Y87125D01*
X118550Y87067D01*
X118100Y86833D01*
X118250Y88350D01*
X119600D01*
G01X111850Y94350D02*
X111450Y94408D01*
X111100Y94642D01*
X110800Y94992D01*
X110600Y95400D01*
X110500Y95867D01*
Y96333D01*
X110600Y96800D01*
X110800Y97208D01*
X111100Y97558D01*
X111450Y97792D01*
X111850Y97850D01*
X112250Y97792D01*
X112600Y97558D01*
X112900Y97208D01*
X113100Y96800D01*
X113200Y96333D01*
Y95867D01*
X113100Y95400D01*
X112900Y94992D01*
X112600Y94642D01*
X112250Y94408D01*
X111850Y94350D01*
G01X112250Y95283D02*
X112850Y94350D01*
G01X115350Y97850D02*
Y94350D01*
G01X114200Y97850D02*
X116500D01*
G01X118850Y94350D02*
Y95925D01*
X117850Y97850D01*
G01X119850D02*
X118850Y95925D01*
M02*
