G04 ================== begin FILE IDENTIFICATION RECORD ==================*
G04 Layout Name:  G:/Work/SZENCTECH/2019/201911/X4SIP02/pcb/cam/X4_test-1127.brd*
G04 Film Name:    DRILL-1-2*
G04 File Format:  Gerber RS274X*
G04 File Origin:  Cadence Allegro 16.6-2015-S108*
G04 Origin Date:  Wed Nov 27 19:09:34 2019*
G04 *
G04 Layer:  MANUFACTURING/NCLEGEND-1-2*
G04 Layer:  MANUFACTURING/NCDRILL_LEGEND*
G04 Layer:  MANUFACTURING/NCDRILL_FIGURE*
G04 Layer:  BOARD GEOMETRY/OUTLINE*
G04 Layer:  BOARD GEOMETRY/DIMENSION*
G04 *
G04 Offset:    (0.00 0.00)*
G04 Mirror:    No*
G04 Mode:      Positive*
G04 Rotation:  0*
G04 FullContactRelief:  No*
G04 UndefLineWidth:     6.00*
G04 ================== end FILE IDENTIFICATION RECORD ====================*
%FSLAX55Y55*MOIN*%
%IR0*IPPOS*OFA0.00000B0.00000*MIA0B0*SFA1.00000B1.00000*%
%AMMACRO12*
1,1,.006,.04,0.0*
20,1,.006,.04,0.0,-.04,0.0,0.0*
1,1,.006,-.04,0.0*
1,1,.006,0.0,.04*
20,1,.006,0.0,.04,0.0,-.04,0.0*
1,1,.006,0.0,-.04*
%
%ADD12MACRO12*%
%AMMACRO10*
1,1,.006,.025,0.0*
20,1,.006,.025,0.0,-.025,0.0,0.0*
1,1,.006,-.025,0.0*
1,1,.006,0.0,.025*
20,1,.006,0.0,.025,0.0,-.025,0.0*
1,1,.006,0.0,-.025*
1,1,.006,.00208,0.0*
20,1,.006,.00208,0.0,.0125,.025,0.0*
1,1,.006,.0125,.025*
20,1,.006,.0125,.025,.02292,0.0,0.0*
1,1,.006,.02292,0.0*
1,1,.006,.01917,.00875*
20,1,.006,.01917,.00875,.00583,.00875,0.0*
1,1,.006,.00583,.00875*
%
%ADD10MACRO10*%
%AMMACRO11*
1,1,.006,.008284,-.02*
20,1,.006,.008284,-.02,-.008284,-.02,0.0*
1,1,.006,-.008284,-.02*
20,1,.006,-.008284,-.02,-.02,-.008284,0.0*
1,1,.006,-.02,-.008284*
20,1,.006,-.02,-.008284,-.02,.008284,0.0*
1,1,.006,-.02,.008284*
20,1,.006,-.02,.008284,-.008284,.02,0.0*
1,1,.006,-.008284,.02*
20,1,.006,-.008284,.02,.008284,.02,0.0*
1,1,.006,.008284,.02*
20,1,.006,.008284,.02,.02,.008284,0.0*
1,1,.006,.02,.008284*
20,1,.006,.02,.008284,.02,-.008284,0.0*
1,1,.006,.02,-.008284*
20,1,.006,.02,-.008284,.008284,-.02,0.0*
1,1,.006,.008284,-.02*
1,1,.006,-.005,.00333*
20,1,.006,-.005,.00333,.005,-.01,0.0*
1,1,.006,.005,-.01*
1,1,.006,.005,.00333*
20,1,.006,.005,.00333,-.005,-.01,0.0*
1,1,.006,-.005,-.01*
%
%ADD11MACRO11*%
%ADD13C,.006*%
G75*
%LPD*%
G75*
G54D10*
X3000Y5000D03*
X5000Y12122D03*
Y9122D03*
X2953Y20000D03*
Y27500D03*
X7500Y26500D03*
Y21000D03*
X2800Y44200D03*
X5000Y38500D03*
Y35500D03*
X10000Y5000D03*
Y12122D03*
Y9122D03*
X15000Y10000D03*
X20000Y5000D03*
X12500Y21000D03*
Y26500D03*
X20000Y15000D03*
X17500Y21000D03*
Y26500D03*
X22500Y21000D03*
Y26500D03*
X12500Y44000D03*
X22500D03*
X10000Y38500D03*
Y35500D03*
X20000Y35000D03*
X15000Y40000D03*
Y30000D03*
X25000Y10000D03*
X30000Y5000D03*
X35000Y10000D03*
X30000Y15000D03*
X27500Y21000D03*
Y26500D03*
X32500Y21000D03*
Y26500D03*
X39352Y17392D03*
Y28000D03*
X32500Y44000D03*
X35000Y30000D03*
Y40000D03*
X30000Y35000D03*
X25000Y30000D03*
Y40000D03*
X51500Y13000D03*
X48300Y12500D03*
X40000Y5000D03*
X54800Y13900D03*
X40000Y15000D03*
X50800Y25059D03*
X54000Y28000D03*
X50800Y20335D03*
X42500Y44000D03*
Y39000D03*
X47000Y37500D03*
X50700Y30500D03*
X50500Y33600D03*
X50400Y37500D03*
X47500Y32400D03*
X47600Y29800D03*
X71100Y12300D03*
X67000Y17500D03*
X69000Y16500D03*
X60100Y13500D03*
X66200Y28200D03*
X71500Y16400D03*
X56900Y13900D03*
X58200Y21800D03*
X67330Y20335D03*
Y25059D03*
X60000Y28000D03*
X58216Y23584D03*
X56969Y27969D03*
X63100Y27600D03*
X64969Y31000D03*
X69531Y30900D03*
X58500Y40500D03*
Y44000D03*
X58700Y31000D03*
X58600Y35500D03*
X84990Y2863D03*
X80000Y5000D03*
X85000Y10000D03*
Y26500D03*
X80000Y15000D03*
X85000Y21000D03*
X78778Y17393D03*
Y28001D03*
X73555Y18464D03*
X86200Y44300D03*
X76200D03*
X80000Y40000D03*
X85000Y35000D03*
X82500Y29500D03*
X76500Y39000D03*
Y35000D03*
X73555Y29464D03*
X94990Y2863D03*
X90000Y5000D03*
X100000D03*
X95000Y10000D03*
X90000Y15000D03*
X100000D03*
X90000Y26500D03*
X95000D03*
X100000D03*
Y21000D03*
X95000D03*
X90000D03*
X96200Y44300D03*
X90000Y30000D03*
X100000D03*
X95000Y35000D03*
X90000Y40000D03*
X100000D03*
X104990Y2863D03*
X115300Y2800D03*
X108095Y8744D03*
Y11744D03*
X113095Y8744D03*
Y11744D03*
X110000Y5000D03*
Y21000D03*
X115000Y27500D03*
X110000Y26500D03*
X115000Y20000D03*
X105000Y26500D03*
Y21000D03*
X115300Y44400D03*
X106200Y44300D03*
X108095Y35122D03*
Y38122D03*
X113095Y35122D03*
Y38122D03*
G54D11*
X2700Y141400D03*
X55128Y18468D03*
X59852D03*
X56703Y20043D03*
X61427Y18468D03*
X56703D03*
X63002D03*
Y20043D03*
X61427D03*
Y21909D03*
X58277Y18468D03*
G54D12*
X54063Y4300D03*
Y9300D03*
X49063Y4300D03*
Y9300D03*
X44063Y4300D03*
Y9300D03*
X69063Y4300D03*
Y9300D03*
X64063Y4300D03*
Y9300D03*
X59063Y4300D03*
Y9300D03*
X74063Y4300D03*
Y9300D03*
G54D13*
G01X-9985Y6D02*
X-55700D01*
G01X-45700Y19325D02*
Y6D01*
G01X-48200Y15006D02*
X-45700Y6D01*
X-43200Y15006D01*
X-48200D01*
G01X-47450Y21950D02*
Y25450D01*
X-48050Y24750D01*
G01Y21950D02*
X-46850D01*
G01X-44900Y24867D02*
X-44600Y25217D01*
X-44250Y25392D01*
X-43850Y25450D01*
X-43350Y25333D01*
X-43000Y25042D01*
X-42900Y24692D01*
X-42950Y24342D01*
X-43150Y24050D01*
X-44150Y23467D01*
X-44600Y23058D01*
X-44900Y22475D01*
X-45000Y21950D01*
X-42900D01*
G01X-45700Y28075D02*
Y47238D01*
G01X-43200Y32238D02*
X-45700Y47238D01*
X-48200Y32238D01*
X-43200D01*
G01X-9985Y47238D02*
X-55700D01*
G01X15Y6D02*
X118095D01*
Y47238D01*
X15D01*
Y6D01*
G01Y57238D02*
Y63700D01*
G01X53025Y53700D02*
X15D01*
G01X15015Y56200D02*
X15Y53700D01*
X15015Y51200D01*
Y56200D01*
G01X-9800Y137900D02*
Y183900D01*
X125200D01*
Y137900D01*
X-9800D01*
G01X-7000Y146650D02*
Y150150D01*
X-5100D01*
G01X-5800Y148458D02*
X-7000D01*
G01X-3150Y150150D02*
X-1950D01*
G01X-2550D02*
Y146650D01*
G01X-3150D02*
X-1950D01*
G01X1250Y148400D02*
X2250D01*
Y147350D01*
X1950Y147000D01*
X1600Y146767D01*
X1100Y146650D01*
X600Y146767D01*
X250Y147000D01*
X-50Y147350D01*
X-250Y147758D01*
X-350Y148225D01*
Y148633D01*
X-250Y148983D01*
X-50Y149392D01*
X250Y149742D01*
X550Y149975D01*
X950Y150150D01*
X1300D01*
X1700Y150033D01*
X2000Y149800D01*
G01X3350Y150150D02*
Y147642D01*
X3550Y147117D01*
X3950Y146767D01*
X4450Y146650D01*
X4950Y146767D01*
X5350Y147117D01*
X5550Y147642D01*
Y150150D01*
G01X6950Y146650D02*
Y150150D01*
X8200D01*
X8600Y149975D01*
X8850Y149742D01*
X8950Y149275D01*
X8850Y148808D01*
X8550Y148517D01*
X8200Y148342D01*
X6950D01*
G01X8200D02*
X8950Y146650D01*
G01X12450D02*
X10450D01*
Y150150D01*
X12450D01*
G01X11650Y148458D02*
X10450D01*
G01X-9800Y151900D02*
X125200D01*
G01X-9800Y144900D02*
X125200D01*
G01X-9800Y158900D02*
X125200D01*
G01X15200Y151900D02*
Y137900D01*
G01X21450Y153650D02*
X22700Y157150D01*
X23950Y153650D01*
G01X23500Y154875D02*
X21900D01*
G01X25200Y157150D02*
Y153650D01*
X27200D01*
G01X28700Y157150D02*
Y153650D01*
X30700D01*
G01X35600Y157150D02*
Y154642D01*
X35800Y154117D01*
X36200Y153767D01*
X36700Y153650D01*
X37200Y153767D01*
X37600Y154117D01*
X37800Y154642D01*
Y157150D01*
G01X39050Y153650D02*
Y157150D01*
X41350Y153650D01*
Y157150D01*
G01X43100D02*
X44300D01*
G01X43700D02*
Y153650D01*
G01X43100D02*
X44300D01*
G01X47200Y157150D02*
Y153650D01*
G01X46050Y157150D02*
X48350D01*
G01X49650Y154117D02*
X50050Y153825D01*
X50500Y153650D01*
X50900D01*
X51300Y153825D01*
X51600Y154117D01*
X51750Y154525D01*
X51650Y154933D01*
X51400Y155283D01*
X50950Y155517D01*
X50350Y155633D01*
X50000Y155867D01*
X49850Y156275D01*
X49950Y156683D01*
X50200Y156975D01*
X50550Y157150D01*
X50900D01*
X51250Y157033D01*
X51550Y156742D01*
G01X56450Y153650D02*
X57700Y157150D01*
X58950Y153650D01*
G01X58500Y154875D02*
X56900D01*
G01X60200Y153650D02*
Y157150D01*
X61450D01*
X61850Y156975D01*
X62100Y156742D01*
X62200Y156275D01*
X62100Y155808D01*
X61800Y155517D01*
X61450Y155342D01*
X60200D01*
G01X61450D02*
X62200Y153650D01*
G01X65700D02*
X63700D01*
Y157150D01*
X65700D01*
G01X64900Y155458D02*
X63700D01*
G01X71100Y157150D02*
X72300D01*
G01X71700D02*
Y153650D01*
G01X71100D02*
X72300D01*
G01X74050D02*
Y157150D01*
X76350Y153650D01*
Y157150D01*
G01X80900Y153650D02*
Y157150D01*
X82200Y154233D01*
X83500Y157150D01*
Y153650D01*
G01X85100Y157150D02*
X86300D01*
G01X85700D02*
Y153650D01*
G01X85100D02*
X86300D01*
G01X88200Y157150D02*
Y153650D01*
X90200D01*
G01X91650Y154117D02*
X92050Y153825D01*
X92500Y153650D01*
X92900D01*
X93300Y153825D01*
X93600Y154117D01*
X93750Y154525D01*
X93650Y154933D01*
X93400Y155283D01*
X92950Y155517D01*
X92350Y155633D01*
X92000Y155867D01*
X91850Y156275D01*
X91950Y156683D01*
X92200Y156975D01*
X92550Y157150D01*
X92900D01*
X93250Y157033D01*
X93550Y156742D01*
G01X12850Y178650D02*
Y182150D01*
X13850D01*
X14250Y181975D01*
X14550Y181742D01*
X14800Y181392D01*
X15000Y180983D01*
X15050Y180400D01*
X15000Y179817D01*
X14800Y179408D01*
X14550Y179058D01*
X14250Y178825D01*
X13850Y178650D01*
X12850D01*
G01X16450D02*
Y182150D01*
X17700D01*
X18100Y181975D01*
X18350Y181742D01*
X18450Y181275D01*
X18350Y180808D01*
X18050Y180517D01*
X17700Y180342D01*
X16450D01*
G01X17700D02*
X18450Y178650D01*
G01X20350Y182150D02*
X21550D01*
G01X20950D02*
Y178650D01*
G01X20350D02*
X21550D01*
G01X23450Y182150D02*
Y178650D01*
X25450D01*
G01X26950Y182150D02*
Y178650D01*
X28950D01*
G01X36050Y181858D02*
X35750Y182033D01*
X35400Y182150D01*
X35000D01*
X34550Y181975D01*
X34200Y181683D01*
X33950Y181333D01*
X33750Y180750D01*
X33700Y180225D01*
X33800Y179700D01*
X33950Y179350D01*
X34250Y179000D01*
X34600Y178767D01*
X34950Y178650D01*
X35300D01*
X35650Y178767D01*
X35950Y178942D01*
X36200Y179175D01*
G01X37400Y178650D02*
Y182150D01*
G01X39500D02*
Y178650D01*
G01Y180400D02*
X37400D01*
G01X40700Y178650D02*
X41950Y182150D01*
X43200Y178650D01*
G01X42750Y179875D02*
X41150D01*
G01X44450Y178650D02*
Y182150D01*
X45700D01*
X46100Y181975D01*
X46350Y181742D01*
X46450Y181275D01*
X46350Y180808D01*
X46050Y180517D01*
X45700Y180342D01*
X44450D01*
G01X45700D02*
X46450Y178650D01*
G01X48950Y182150D02*
Y178650D01*
G01X47800Y182150D02*
X50100D01*
G01X52450Y178533D02*
X52350Y178592D01*
Y178708D01*
X52450Y178767D01*
X52550Y178708D01*
Y178592D01*
X52450Y178533D01*
G01Y180108D02*
X52350Y180167D01*
Y180283D01*
X52450Y180342D01*
X52550Y180283D01*
Y180167D01*
X52450Y180108D01*
G01X59450Y182150D02*
Y178650D01*
G01X58300Y182150D02*
X60600D01*
G01X62950Y178650D02*
X62550Y178708D01*
X62200Y178942D01*
X61900Y179292D01*
X61700Y179700D01*
X61600Y180167D01*
Y180633D01*
X61700Y181100D01*
X61900Y181508D01*
X62200Y181858D01*
X62550Y182092D01*
X62950Y182150D01*
X63350Y182092D01*
X63700Y181858D01*
X64000Y181508D01*
X64200Y181100D01*
X64300Y180633D01*
Y180167D01*
X64200Y179700D01*
X64000Y179292D01*
X63700Y178942D01*
X63350Y178708D01*
X62950Y178650D01*
G01X65450D02*
Y182150D01*
X66650D01*
X67050Y181975D01*
X67350Y181567D01*
X67450Y181100D01*
X67350Y180633D01*
X67100Y180283D01*
X66650Y180108D01*
X65450D01*
G01X73450Y182150D02*
Y178650D01*
G01X72750Y180983D02*
X74150D01*
G01X76950Y178650D02*
X76650Y178708D01*
X76350Y178942D01*
X76150Y179350D01*
X76050Y179817D01*
X76150Y180283D01*
X76350Y180692D01*
X76650Y180925D01*
X76950Y180983D01*
X77250Y180925D01*
X77550Y180692D01*
X77750Y180283D01*
X77800Y179817D01*
X77750Y179350D01*
X77550Y178942D01*
X77250Y178708D01*
X76950Y178650D01*
G01X83350Y182150D02*
X84550D01*
G01X83950D02*
Y178650D01*
G01X83350D02*
X84550D01*
G01X86300D02*
Y182150D01*
X88600Y178650D01*
Y182150D01*
G01X89800Y178650D02*
Y182150D01*
X92100Y178650D01*
Y182150D01*
G01X95450Y178650D02*
X93450D01*
Y182150D01*
X95450D01*
G01X94650Y180458D02*
X93450D01*
G01X96950Y178650D02*
Y182150D01*
X98200D01*
X98600Y181975D01*
X98850Y181742D01*
X98950Y181275D01*
X98850Y180808D01*
X98550Y180517D01*
X98200Y180342D01*
X96950D01*
G01X98200D02*
X98950Y178650D01*
G01X101450D02*
Y182150D01*
X100850Y181450D01*
G01Y178650D02*
X102050D01*
G01X38800Y139650D02*
Y143150D01*
X36950Y140642D01*
X39450D01*
G01X41700Y139533D02*
X41600Y139592D01*
Y139708D01*
X41700Y139767D01*
X41800Y139708D01*
Y139592D01*
X41700Y139533D01*
G01X45200Y143150D02*
X44800Y143033D01*
X44500Y142742D01*
X44300Y142392D01*
X44150Y141925D01*
X44100Y141400D01*
X44150Y140875D01*
X44300Y140408D01*
X44500Y140058D01*
X44800Y139767D01*
X45200Y139650D01*
X45600Y139767D01*
X45900Y140058D01*
X46100Y140408D01*
X46250Y140875D01*
X46300Y141400D01*
X46250Y141925D01*
X46100Y142392D01*
X45900Y142742D01*
X45600Y143033D01*
X45200Y143150D01*
G01X35400Y147117D02*
X35800Y146825D01*
X36250Y146650D01*
X36650D01*
X37050Y146825D01*
X37350Y147117D01*
X37500Y147525D01*
X37400Y147933D01*
X37150Y148283D01*
X36700Y148517D01*
X36100Y148633D01*
X35750Y148867D01*
X35600Y149275D01*
X35700Y149683D01*
X35950Y149975D01*
X36300Y150150D01*
X36650D01*
X37000Y150033D01*
X37300Y149742D01*
G01X39350Y150150D02*
X40550D01*
G01X39950D02*
Y146650D01*
G01X39350D02*
X40550D01*
G01X42500Y150150D02*
X44400D01*
X42500Y146650D01*
X44400D01*
G01X47950D02*
X45950D01*
Y150150D01*
X47950D01*
G01X47150Y148458D02*
X45950D01*
G01X56050Y52650D02*
X56350Y52242D01*
X56750Y52008D01*
X57200Y51950D01*
X57600Y52008D01*
X58000Y52300D01*
X58250Y52650D01*
X58300Y53000D01*
X58200Y53408D01*
X57850Y53700D01*
X57500Y53817D01*
X57050D01*
G01X57500D02*
X57800Y53992D01*
X58050Y54283D01*
X58150Y54633D01*
X58050Y54983D01*
X57800Y55275D01*
X57350Y55450D01*
X56900Y55392D01*
X56450Y55158D01*
G01X60650Y55450D02*
X60250Y55333D01*
X59950Y55042D01*
X59750Y54692D01*
X59600Y54225D01*
X59550Y53700D01*
X59600Y53175D01*
X59750Y52708D01*
X59950Y52358D01*
X60250Y52067D01*
X60650Y51950D01*
X61050Y52067D01*
X61350Y52358D01*
X61550Y52708D01*
X61700Y53175D01*
X61750Y53700D01*
X61700Y54225D01*
X61550Y54692D01*
X61350Y55042D01*
X61050Y55333D01*
X60650Y55450D01*
G01X64775Y53700D02*
X118095D01*
G01X68200Y151900D02*
Y137900D01*
G01X76200Y139650D02*
Y143150D01*
X77400D01*
X77800Y142975D01*
X78100Y142567D01*
X78200Y142100D01*
X78100Y141633D01*
X77850Y141283D01*
X77400Y141108D01*
X76200D01*
G01X79700Y143150D02*
Y139650D01*
X81700D01*
G01X82950D02*
X84200Y143150D01*
X85450Y139650D01*
G01X85000Y140875D02*
X83400D01*
G01X87700Y143150D02*
Y139650D01*
G01X86550Y143150D02*
X88850D01*
G01X92200Y139650D02*
X90200D01*
Y143150D01*
X92200D01*
G01X91400Y141458D02*
X90200D01*
G01X93600Y139650D02*
Y143150D01*
X94600D01*
X95000Y142975D01*
X95300Y142742D01*
X95550Y142392D01*
X95750Y141983D01*
X95800Y141400D01*
X95750Y140817D01*
X95550Y140408D01*
X95300Y140058D01*
X95000Y139825D01*
X94600Y139650D01*
X93600D01*
G01X76200Y146650D02*
Y150150D01*
X77400D01*
X77800Y149975D01*
X78100Y149567D01*
X78200Y149100D01*
X78100Y148633D01*
X77850Y148283D01*
X77400Y148108D01*
X76200D01*
G01X79700Y150150D02*
Y146650D01*
X81700D01*
G01X82950D02*
X84200Y150150D01*
X85450Y146650D01*
G01X85000Y147875D02*
X83400D01*
G01X87700Y150150D02*
Y146650D01*
G01X86550Y150150D02*
X88850D01*
G01X92200Y146650D02*
X90200D01*
Y150150D01*
X92200D01*
G01X91400Y148458D02*
X90200D01*
G01X93600Y146650D02*
Y150150D01*
X94600D01*
X95000Y149975D01*
X95300Y149742D01*
X95550Y149392D01*
X95750Y148983D01*
X95800Y148400D01*
X95750Y147817D01*
X95550Y147408D01*
X95300Y147058D01*
X95000Y146825D01*
X94600Y146650D01*
X93600D01*
G01X103095Y51200D02*
X118095Y53700D01*
X103095Y56200D01*
Y51200D01*
G01X118095Y45997D02*
X118080Y6D01*
G01X118095Y55997D02*
Y63700D01*
G01X112700Y139650D02*
Y143150D01*
X112100Y142450D01*
G01Y139650D02*
X113300D01*
G01X116200Y143150D02*
X115800Y143033D01*
X115500Y142742D01*
X115300Y142392D01*
X115150Y141925D01*
X115100Y141400D01*
X115150Y140875D01*
X115300Y140408D01*
X115500Y140058D01*
X115800Y139767D01*
X116200Y139650D01*
X116600Y139767D01*
X116900Y140058D01*
X117100Y140408D01*
X117250Y140875D01*
X117300Y141400D01*
X117250Y141925D01*
X117100Y142392D01*
X116900Y142742D01*
X116600Y143033D01*
X116200Y143150D01*
G01X103700Y151900D02*
Y137900D01*
G01X110950Y146650D02*
X110550Y146708D01*
X110200Y146942D01*
X109900Y147292D01*
X109700Y147700D01*
X109600Y148167D01*
Y148633D01*
X109700Y149100D01*
X109900Y149508D01*
X110200Y149858D01*
X110550Y150092D01*
X110950Y150150D01*
X111350Y150092D01*
X111700Y149858D01*
X112000Y149508D01*
X112200Y149100D01*
X112300Y148633D01*
Y148167D01*
X112200Y147700D01*
X112000Y147292D01*
X111700Y146942D01*
X111350Y146708D01*
X110950Y146650D01*
G01X111350Y147583D02*
X111950Y146650D01*
G01X114450Y150150D02*
Y146650D01*
G01X113300Y150150D02*
X115600D01*
G01X117950Y146650D02*
Y148225D01*
X116950Y150150D01*
G01X118950D02*
X117950Y148225D01*
M02*
