G04 ================== begin FILE IDENTIFICATION RECORD ==================*
G04 Layout Name:  G:/Work/SZENCTECH/2019/201911/X4SIP02/pcb/cam/X4_test-1127.brd*
G04 Film Name:    INNER2*
G04 File Format:  Gerber RS274X*
G04 File Origin:  Cadence Allegro 16.6-2015-S108*
G04 Origin Date:  Wed Nov 27 19:06:35 2019*
G04 *
G04 Layer:  VIA CLASS/INNER2*
G04 Layer:  PIN/INNER2*
G04 Layer:  ETCH/INNER2*
G04 Layer:  BOARD GEOMETRY/OUTLINE*
G04 *
G04 Offset:    (0.00 0.00)*
G04 Mirror:    No*
G04 Mode:      Positive*
G04 Rotation:  0*
G04 FullContactRelief:  No*
G04 UndefLineWidth:     6.00*
G04 ================== end FILE IDENTIFICATION RECORD ====================*
%FSLAX55Y55*MOIN*%
%IR0*IPPOS*OFA0.00000B0.00000*MIA0B0*SFA1.00000B1.00000*%
%ADD10C,.016*%
%ADD11C,.036*%
%ADD12R,.04X.04*%
%ADD13C,.006*%
%ADD14C,.02604*%
%ADD15C,.04504*%
G75*
%LPD*%
G75*
G36*
G01X1984Y1975D02*
Y45269D01*
X116126D01*
Y1975D01*
X72125D01*
X71400Y2700D01*
Y5400D01*
X70400Y6400D01*
X69877D01*
X69844Y6412D01*
G03X68282I-781J-2112D01*
G01X68249Y6400D01*
X64877D01*
X64844Y6412D01*
G03X63282I-781J-2112D01*
G01X63249Y6400D01*
X59877D01*
X59844Y6412D01*
G03X58282I-781J-2112D01*
G01X58249Y6400D01*
X54877D01*
X54844Y6412D01*
G03X53282I-781J-2112D01*
G01X53249Y6400D01*
X49877D01*
X49844Y6412D01*
G03X48282I-781J-2112D01*
G01X48249Y6400D01*
X47400D01*
X46400Y5400D01*
Y3000D01*
X45375Y1975D01*
X1984D01*
G37*
%LPC*%
G75*
G36*
G01X48377Y31438D02*
G03X48401Y30827I270J-295D01*
G02X46723Y30762I-800J-1027D01*
G03X46699Y31373I-270J295D01*
G02X48377Y31438I800J1027D01*
G37*
G36*
G01X68204Y17996D02*
G03X68674Y17761I370J152D01*
G02X67796Y16004I326J-1261D01*
G03X67326Y16239I-370J-152D01*
G02X68204Y17996I-326J1261D01*
G37*
G36*
G01X46514Y6848D02*
X41612D01*
Y11752D01*
X46514D01*
Y10855D01*
G03X47239Y10620I400J-1D01*
G02Y7980I1824J-1320D01*
G03X46514Y7745I-325J-234D01*
G01Y6848D01*
G37*
G54D14*
X51500Y13000D03*
X54800Y13900D03*
X50400Y37500D03*
X50500Y33600D03*
X50700Y30500D03*
X47000Y37500D03*
X63100Y27600D03*
X60100Y13500D03*
X56969Y27969D03*
X64969Y31000D03*
X69531Y30900D03*
G54D15*
X54063Y9300D03*
X69063D03*
X64063D03*
X59063D03*
X74063D03*
%LPD*%
G75*
G54D10*
X3000Y5000D03*
X5000Y12122D03*
Y9122D03*
X2953Y20000D03*
Y27500D03*
X7500Y26500D03*
Y21000D03*
X2800Y44200D03*
X5000Y38500D03*
Y35500D03*
X10000Y5000D03*
Y12122D03*
Y9122D03*
X15000Y10000D03*
X20000Y5000D03*
X12500Y21000D03*
Y26500D03*
X20000Y15000D03*
X17500Y21000D03*
Y26500D03*
X22500Y21000D03*
Y26500D03*
X12500Y44000D03*
X22500D03*
X10000Y38500D03*
Y35500D03*
X20000Y35000D03*
X15000Y40000D03*
Y30000D03*
X25000Y10000D03*
X30000Y5000D03*
X35000Y10000D03*
X30000Y15000D03*
X27500Y21000D03*
Y26500D03*
X32500Y21000D03*
Y26500D03*
X39352Y17392D03*
Y28000D03*
X32500Y44000D03*
X35000Y30000D03*
Y40000D03*
X30000Y35000D03*
X25000Y30000D03*
Y40000D03*
X51500Y13000D03*
X48300Y12500D03*
X40000Y5000D03*
X54800Y13900D03*
X40000Y15000D03*
X50800Y25059D03*
X54000Y28000D03*
X50800Y20335D03*
X42500Y44000D03*
Y39000D03*
X47000Y37500D03*
X50700Y30500D03*
X50500Y33600D03*
X50400Y37500D03*
X47500Y32400D03*
X47600Y29800D03*
X71100Y12300D03*
X67000Y17500D03*
X69000Y16500D03*
X60100Y13500D03*
X66200Y28200D03*
X71500Y16400D03*
X56900Y13900D03*
X58200Y21800D03*
X67330Y20335D03*
Y25059D03*
X60000Y28000D03*
X58216Y23584D03*
X56969Y27969D03*
X63100Y27600D03*
X64969Y31000D03*
X69531Y30900D03*
X58500Y40500D03*
Y44000D03*
X58700Y31000D03*
X58600Y35500D03*
X84990Y2863D03*
X80000Y5000D03*
X85000Y10000D03*
Y26500D03*
X80000Y15000D03*
X85000Y21000D03*
X78778Y17393D03*
Y28001D03*
X73555Y18464D03*
X86200Y44300D03*
X76200D03*
X80000Y40000D03*
X85000Y35000D03*
X82500Y29500D03*
X76500Y39000D03*
Y35000D03*
X73555Y29464D03*
X94990Y2863D03*
X90000Y5000D03*
X100000D03*
X95000Y10000D03*
X90000Y15000D03*
X100000D03*
X90000Y26500D03*
X95000D03*
X100000D03*
Y21000D03*
X95000D03*
X90000D03*
X96200Y44300D03*
X90000Y30000D03*
X100000D03*
X95000Y35000D03*
X90000Y40000D03*
X100000D03*
X104990Y2863D03*
X115300Y2800D03*
X108095Y8744D03*
Y11744D03*
X113095Y8744D03*
Y11744D03*
X110000Y5000D03*
Y21000D03*
X115000Y27500D03*
X110000Y26500D03*
X115000Y20000D03*
X105000Y26500D03*
Y21000D03*
X115300Y44400D03*
X106200Y44300D03*
X108095Y35122D03*
Y38122D03*
X113095Y35122D03*
Y38122D03*
G54D11*
X54063Y4300D03*
Y9300D03*
X49063Y4300D03*
Y9300D03*
X44063Y4300D03*
X69063D03*
Y9300D03*
X64063Y4300D03*
Y9300D03*
X59063Y4300D03*
Y9300D03*
X74063Y4300D03*
Y9300D03*
G54D12*
X44063D03*
G54D13*
G01X15Y6D02*
X118095D01*
Y47238D01*
X15D01*
Y6D01*
G01X118095Y45997D02*
X118080Y6D01*
M02*
