G04 ================== begin FILE IDENTIFICATION RECORD ==================*
G04 Layout Name:  G:/Work/SZENCTECH/2019/201911/X4SIP02/pcb/cam/X4_test-1127.brd*
G04 Film Name:    SOLDTOP*
G04 File Format:  Gerber RS274X*
G04 File Origin:  Cadence Allegro 16.6-2015-S108*
G04 Origin Date:  Wed Nov 27 19:06:35 2019*
G04 *
G04 Layer:  VIA CLASS/SOLDERMASK_TOP*
G04 Layer:  PIN/SOLDERMASK_TOP*
G04 Layer:  PACKAGE GEOMETRY/SOLDERMASK_TOP*
G04 Layer:  BOARD GEOMETRY/SOLDERMASK_TOP*
G04 Layer:  BOARD GEOMETRY/OUTLINE*
G04 *
G04 Offset:    (0.00 0.00)*
G04 Mirror:    No*
G04 Mode:      Positive*
G04 Rotation:  0*
G04 FullContactRelief:  No*
G04 UndefLineWidth:     6.00*
G04 ================== end FILE IDENTIFICATION RECORD ====================*
%FSLAX55Y55*MOIN*%
%IR0*IPPOS*OFA0.00000B0.00000*MIA0B0*SFA1.00000B1.00000*%
%ADD16R,.01969X.01969*%
%ADD17C,.012*%
%ADD15C,.01063*%
%ADD13C,.046*%
%ADD14R,.046X.046*%
%ADD10R,.13386X.05512*%
%ADD18R,.046X.056*%
%ADD12R,.01772X.0315*%
%ADD11O,.05512X.01575*%
%ADD20R,.05906X.04921*%
%ADD19R,.02369X.02762*%
%ADD21C,.006*%
G75*
%LPD*%
G75*
G54D10*
X6496Y10433D03*
Y36811D03*
X111599Y10433D03*
Y36811D03*
G54D20*
X71831Y36850D03*
X63169D03*
Y43150D03*
X71831D03*
G54D11*
X2559Y23622D03*
X115536D03*
G54D21*
G01X15Y6D02*
X118095D01*
Y47238D01*
X15D01*
Y6D01*
G01X118095Y45997D02*
X118080Y6D01*
G54D12*
X36793Y25157D03*
X39352D03*
Y20235D03*
X36793D03*
X41911Y25157D03*
Y20235D03*
X81337Y20236D03*
X78778D03*
X76219D03*
Y25158D03*
X78778D03*
X81337D03*
G54D13*
X54063Y4300D03*
Y9300D03*
X49063Y4300D03*
Y9300D03*
X44063Y4300D03*
X69063D03*
Y9300D03*
X64063Y4300D03*
Y9300D03*
X59063Y4300D03*
Y9300D03*
X74063Y4300D03*
Y9300D03*
G54D14*
X44063D03*
G54D15*
X55128Y16894D03*
X53553D03*
X55128Y18468D03*
X53553D03*
X55128Y20043D03*
X53553Y20335D03*
Y21909D03*
Y23484D03*
X55128Y25350D03*
X53553Y25059D03*
X64577Y16894D03*
X63002D03*
X61427D03*
X59852D03*
X58277D03*
X56703D03*
X64577Y18468D03*
X63002D03*
X61427D03*
X59852D03*
X58277D03*
X56703D03*
X64577Y20335D03*
X63002Y20043D03*
X61427D03*
X59852D03*
X58277D03*
X56703D03*
X64577Y21909D03*
X63002Y21618D03*
X61427Y21909D03*
X59852D03*
X55915Y21461D03*
X64577Y23484D03*
X63002Y23776D03*
X61427Y23484D03*
X59852D03*
X55915Y23933D03*
X64577Y25059D03*
X63002Y25350D03*
X61427D03*
X59852D03*
X58277D03*
X56703D03*
G54D16*
X46315Y20696D03*
X48835D03*
X46315Y24696D03*
X48835D03*
X71815Y20697D03*
X69295D03*
X71815Y24697D03*
X69295D03*
G54D17*
X55128Y18468D03*
X59852D03*
X56703Y20043D03*
X61427Y18468D03*
X56703D03*
X63002D03*
Y20043D03*
X61427D03*
Y21909D03*
X58277Y18468D03*
G54D18*
X47563Y42000D03*
X55437D03*
G54D19*
X52531Y31000D03*
Y35500D03*
X43531D03*
X47469D03*
X43531Y31000D03*
X47469D03*
X69531D03*
X56469D03*
X61031D03*
X64969D03*
X56469Y35500D03*
X73469Y31000D03*
M02*
